G04*
G04 #@! TF.GenerationSoftware,Altium Limited,Altium Designer,24.6.1 (21)*
G04*
G04 Layer_Color=2752767*
%FSLAX26Y26*%
%MOIN*%
G70*
G04*
G04 #@! TF.SameCoordinates,A2FE4C0D-9988-4D7F-9E23-C7A6D8233F7C*
G04*
G04*
G04 #@! TF.FilePolarity,Positive*
G04*
G01*
G75*
%ADD44C,0.005000*%
%ADD45C,0.006667*%
D44*
X285118Y383543D02*
Y423543D01*
X325118D01*
Y383543D01*
X285118D01*
X525276D02*
Y423543D01*
X565276D01*
Y383543D01*
X525276D01*
X415039Y202441D02*
Y242441D01*
X455039D01*
Y202441D01*
X415039D01*
X1334646Y149685D02*
X1314646Y189685D01*
X1354646D01*
X1334646Y149685D01*
Y249685D02*
X1314646Y289685D01*
X1354646D01*
X1334646Y249685D01*
Y449685D02*
X1314646Y489685D01*
X1354646D01*
X1334646Y449685D01*
Y649685D02*
X1314646Y689685D01*
X1354646D01*
X1334646Y649685D01*
Y749685D02*
X1314646Y789685D01*
X1354646D01*
X1334646Y749685D01*
Y549685D02*
X1314646Y589685D01*
X1354646D01*
X1334646Y549685D01*
Y349685D02*
X1314646Y389685D01*
X1354646D01*
X1334646Y349685D01*
Y849685D02*
X1314646Y889685D01*
X1354646D01*
X1334646Y849685D01*
X714567Y46929D02*
X694567Y86929D01*
X734567D01*
X714567Y46929D01*
X414567D02*
X394567Y86929D01*
X434567D01*
X414567Y46929D01*
X614567D02*
X594567Y86929D01*
X634567D01*
X614567Y46929D01*
X514567D02*
X494567Y86929D01*
X534567D01*
X514567Y46929D01*
X314567D02*
X294567Y86929D01*
X334567D01*
X314567Y46929D01*
X214567D02*
X194567Y86929D01*
X234567D01*
X214567Y46929D01*
X1334646Y1002047D02*
X1314646Y1042047D01*
X1354646D01*
X1334646Y1002047D01*
Y1102047D02*
X1314646Y1142047D01*
X1354646D01*
X1334646Y1102047D01*
Y1202047D02*
X1314646Y1242047D01*
X1354646D01*
X1334646Y1202047D01*
X66929Y879213D02*
X46929Y919213D01*
X86929D01*
X66929Y879213D01*
Y779213D02*
X46929Y819213D01*
X86929D01*
X66929Y779213D01*
Y679213D02*
X46929Y719213D01*
X86929D01*
X66929Y679213D01*
X358661Y980787D02*
X368661Y990787D01*
X378661D01*
X368661Y1000787D01*
X378661Y1010787D01*
X368661D01*
X358661Y1020787D01*
X348661Y1010787D01*
X338661D01*
X348661Y1000787D01*
X338661Y990787D01*
X348661D01*
X358661Y980787D01*
X558661D02*
X568661Y990787D01*
X578661D01*
X568661Y1000787D01*
X578661Y1010787D01*
X568661D01*
X558661Y1020787D01*
X548661Y1010787D01*
X538661D01*
X548661Y1000787D01*
X538661Y990787D01*
X548661D01*
X558661Y980787D01*
X1058661D02*
X1068661Y990787D01*
X1078661D01*
X1068661Y1000787D01*
X1078661Y1010787D01*
X1068661D01*
X1058661Y1020787D01*
X1048661Y1010787D01*
X1038661D01*
X1048661Y1000787D01*
X1038661Y990787D01*
X1048661D01*
X1058661Y980787D01*
X1008661Y1180787D02*
X1018661Y1190787D01*
X1028661D01*
X1018661Y1200787D01*
X1028661Y1210787D01*
X1018661D01*
X1008661Y1220787D01*
X998661Y1210787D01*
X988661D01*
X998661Y1200787D01*
X988661Y1190787D01*
X998661D01*
X1008661Y1180787D01*
X958661Y980787D02*
X968661Y990787D01*
X978661D01*
X968661Y1000787D01*
X978661Y1010787D01*
X968661D01*
X958661Y1020787D01*
X948661Y1010787D01*
X938661D01*
X948661Y1000787D01*
X938661Y990787D01*
X948661D01*
X958661Y980787D01*
X908661Y1180787D02*
X918661Y1190787D01*
X928661D01*
X918661Y1200787D01*
X928661Y1210787D01*
X918661D01*
X908661Y1220787D01*
X898661Y1210787D01*
X888661D01*
X898661Y1200787D01*
X888661Y1190787D01*
X898661D01*
X908661Y1180787D01*
X858661Y980787D02*
X868661Y990787D01*
X878661D01*
X868661Y1000787D01*
X878661Y1010787D01*
X868661D01*
X858661Y1020787D01*
X848661Y1010787D01*
X838661D01*
X848661Y1000787D01*
X838661Y990787D01*
X848661D01*
X858661Y980787D01*
X808661Y1180787D02*
X818661Y1190787D01*
X828661D01*
X818661Y1200787D01*
X828661Y1210787D01*
X818661D01*
X808661Y1220787D01*
X798661Y1210787D01*
X788661D01*
X798661Y1200787D01*
X788661Y1190787D01*
X798661D01*
X808661Y1180787D01*
X758661Y980787D02*
X768661Y990787D01*
X778661D01*
X768661Y1000787D01*
X778661Y1010787D01*
X768661D01*
X758661Y1020787D01*
X748661Y1010787D01*
X738661D01*
X748661Y1000787D01*
X738661Y990787D01*
X748661D01*
X758661Y980787D01*
X708661Y1180787D02*
X718661Y1190787D01*
X728661D01*
X718661Y1200787D01*
X728661Y1210787D01*
X718661D01*
X708661Y1220787D01*
X698661Y1210787D01*
X688661D01*
X698661Y1200787D01*
X688661Y1190787D01*
X698661D01*
X708661Y1180787D01*
X658661Y980787D02*
X668661Y990787D01*
X678661D01*
X668661Y1000787D01*
X678661Y1010787D01*
X668661D01*
X658661Y1020787D01*
X648661Y1010787D01*
X638661D01*
X648661Y1000787D01*
X638661Y990787D01*
X648661D01*
X658661Y980787D01*
X608661Y1180787D02*
X618661Y1190787D01*
X628661D01*
X618661Y1200787D01*
X628661Y1210787D01*
X618661D01*
X608661Y1220787D01*
X598661Y1210787D01*
X588661D01*
X598661Y1200787D01*
X588661Y1190787D01*
X598661D01*
X608661Y1180787D01*
X508661D02*
X518661Y1190787D01*
X528661D01*
X518661Y1200787D01*
X528661Y1210787D01*
X518661D01*
X508661Y1220787D01*
X498661Y1210787D01*
X488661D01*
X498661Y1200787D01*
X488661Y1190787D01*
X498661D01*
X508661Y1180787D01*
X458661Y980787D02*
X468661Y990787D01*
X478661D01*
X468661Y1000787D01*
X478661Y1010787D01*
X468661D01*
X458661Y1020787D01*
X448661Y1010787D01*
X438661D01*
X448661Y1000787D01*
X438661Y990787D01*
X448661D01*
X458661Y980787D01*
X408661Y1180787D02*
X418661Y1190787D01*
X428661D01*
X418661Y1200787D01*
X428661Y1210787D01*
X418661D01*
X408661Y1220787D01*
X398661Y1210787D01*
X388661D01*
X398661Y1200787D01*
X388661Y1190787D01*
X398661D01*
X408661Y1180787D01*
X196024Y512008D02*
X206024D01*
X216024Y522008D01*
X226024Y512008D01*
X236024D01*
Y522008D01*
X226024Y532008D01*
X236024Y542008D01*
Y552008D01*
X226024D01*
X216024Y542008D01*
X206024Y552008D01*
X196024D01*
Y542008D01*
X206024Y532008D01*
X196024Y522008D01*
Y512008D01*
X688661Y507559D02*
X698661D01*
X708661Y517559D01*
X718661Y507559D01*
X728661D01*
Y517559D01*
X718661Y527559D01*
X728661Y537559D01*
Y547559D01*
X718661D01*
X708661Y537559D01*
X698661Y547559D01*
X688661D01*
Y537559D01*
X698661Y527559D01*
X688661Y517559D01*
Y507559D01*
X806772Y865827D02*
X816772D01*
X826772Y875827D01*
X836772Y865827D01*
X846772D01*
Y875827D01*
X836772Y885827D01*
X846772Y895827D01*
Y905827D01*
X836772D01*
X826772Y895827D01*
X816772Y905827D01*
X806772D01*
Y895827D01*
X816772Y885827D01*
X806772Y875827D01*
Y865827D01*
X590000Y865000D02*
X600000D01*
X610000Y875000D01*
X620000Y865000D01*
X630000D01*
Y875000D01*
X620000Y885000D01*
X630000Y895000D01*
Y905000D01*
X620000D01*
X610000Y895000D01*
X600000Y905000D01*
X590000D01*
Y895000D01*
X600000Y885000D01*
X590000Y875000D01*
Y865000D01*
X1168976Y842205D02*
X1178976D01*
X1188976Y852205D01*
X1198976Y842205D01*
X1208976D01*
Y852205D01*
X1198976Y862205D01*
X1208976Y872205D01*
Y882205D01*
X1198976D01*
X1188976Y872205D01*
X1178976Y882205D01*
X1168976D01*
Y872205D01*
X1178976Y862205D01*
X1168976Y852205D01*
Y842205D01*
X58740Y590236D02*
X68740D01*
X78740Y600236D01*
X88740Y590236D01*
X98740D01*
Y600236D01*
X88740Y610236D01*
X98740Y620236D01*
Y630236D01*
X88740D01*
X78740Y620236D01*
X68740Y630236D01*
X58740D01*
Y620236D01*
X68740Y610236D01*
X58740Y600236D01*
Y590236D01*
X767402Y19370D02*
X777402D01*
X787402Y29370D01*
X797402Y19370D01*
X807402D01*
Y29370D01*
X797402Y39370D01*
X807402Y49370D01*
Y59370D01*
X797402D01*
X787402Y49370D01*
X777402Y59370D01*
X767402D01*
Y49370D01*
X777402Y39370D01*
X767402Y29370D01*
Y19370D01*
X1318583Y78425D02*
X1328583D01*
X1338583Y88425D01*
X1348583Y78425D01*
X1358583D01*
Y88425D01*
X1348583Y98425D01*
X1358583Y108425D01*
Y118425D01*
X1348583D01*
X1338583Y108425D01*
X1328583Y118425D01*
X1318583D01*
Y108425D01*
X1328583Y98425D01*
X1318583Y88425D01*
Y78425D01*
X1062165Y19882D02*
X1072165D01*
X1082165Y29882D01*
X1092165Y19882D01*
X1102165D01*
Y29882D01*
X1092165Y39882D01*
X1102165Y49882D01*
Y59882D01*
X1092165D01*
X1082165Y49882D01*
X1072165Y59882D01*
X1062165D01*
Y49882D01*
X1072165Y39882D01*
X1062165Y29882D01*
Y19882D01*
X1042480Y1260039D02*
X1052480D01*
X1062480Y1270039D01*
X1072480Y1260039D01*
X1082480D01*
Y1270039D01*
X1072480Y1280039D01*
X1082480Y1290039D01*
Y1300039D01*
X1072480D01*
X1062480Y1290039D01*
X1052480Y1300039D01*
X1042480D01*
Y1290039D01*
X1052480Y1280039D01*
X1042480Y1270039D01*
Y1260039D01*
X58740Y255591D02*
X68740D01*
X78740Y265591D01*
X88740Y255591D01*
X98740D01*
Y265591D01*
X88740Y275591D01*
X98740Y285591D01*
Y295591D01*
X88740D01*
X78740Y285591D01*
X68740Y295591D01*
X58740D01*
Y285591D01*
X68740Y275591D01*
X58740Y265591D01*
Y255591D01*
Y334331D02*
X68740D01*
X78740Y344331D01*
X88740Y334331D01*
X98740D01*
Y344331D01*
X88740Y354331D01*
X98740Y364331D01*
Y374331D01*
X88740D01*
X78740Y364331D01*
X68740Y374331D01*
X58740D01*
Y364331D01*
X68740Y354331D01*
X58740Y344331D01*
Y334331D01*
X58228Y413583D02*
X68228D01*
X78228Y423583D01*
X88228Y413583D01*
X98228D01*
Y423583D01*
X88228Y433583D01*
X98228Y443583D01*
Y453583D01*
X88228D01*
X78228Y443583D01*
X68228Y453583D01*
X58228D01*
Y443583D01*
X68228Y433583D01*
X58228Y423583D01*
Y413583D01*
X58740Y511496D02*
X68740D01*
X78740Y521496D01*
X88740Y511496D01*
X98740D01*
Y521496D01*
X88740Y531496D01*
X98740Y541496D01*
Y551496D01*
X88740D01*
X78740Y541496D01*
X68740Y551496D01*
X58740D01*
Y541496D01*
X68740Y531496D01*
X58740Y521496D01*
Y511496D01*
X97598Y39567D02*
X107598D01*
X117598Y49567D01*
X127598Y39567D01*
X137598D01*
Y49567D01*
X127598Y59567D01*
X137598Y69567D01*
Y79567D01*
X127598D01*
X117598Y69567D01*
X107598Y79567D01*
X97598D01*
Y69567D01*
X107598Y59567D01*
X97598Y49567D01*
Y39567D01*
X38543D02*
X48543D01*
X58543Y49567D01*
X68543Y39567D01*
X78543D01*
Y49567D01*
X68543Y59567D01*
X78543Y69567D01*
Y79567D01*
X68543D01*
X58543Y69567D01*
X48543Y79567D01*
X38543D01*
Y69567D01*
X48543Y59567D01*
X38543Y49567D01*
Y39567D01*
X1318583Y19370D02*
X1328583D01*
X1338583Y29370D01*
X1348583Y19370D01*
X1358583D01*
Y29370D01*
X1348583Y39370D01*
X1358583Y49370D01*
Y59370D01*
X1348583D01*
X1338583Y49370D01*
X1328583Y59370D01*
X1318583D01*
Y49370D01*
X1328583Y39370D01*
X1318583Y29370D01*
Y19370D01*
X432244Y866339D02*
X442244D01*
X452244Y876339D01*
X462244Y866339D01*
X472244D01*
Y876339D01*
X462244Y886339D01*
X472244Y896339D01*
Y906339D01*
X462244D01*
X452244Y896339D01*
X442244Y906339D01*
X432244D01*
Y896339D01*
X442244Y886339D01*
X432244Y876339D01*
Y866339D01*
X1003110Y1319094D02*
X1013110D01*
X1023110Y1329094D01*
X1033110Y1319094D01*
X1043110D01*
Y1329094D01*
X1033110Y1339094D01*
X1043110Y1349094D01*
Y1359094D01*
X1033110D01*
X1023110Y1349094D01*
X1013110Y1359094D01*
X1003110D01*
Y1349094D01*
X1013110Y1339094D01*
X1003110Y1329094D01*
Y1319094D01*
X432244D02*
X442244D01*
X452244Y1329094D01*
X462244Y1319094D01*
X472244D01*
Y1329094D01*
X462244Y1339094D01*
X472244Y1349094D01*
Y1359094D01*
X462244D01*
X452244Y1349094D01*
X442244Y1359094D01*
X432244D01*
Y1349094D01*
X442244Y1339094D01*
X432244Y1329094D01*
Y1319094D01*
X353504D02*
X363504D01*
X373504Y1329094D01*
X383504Y1319094D01*
X393504D01*
Y1329094D01*
X383504Y1339094D01*
X393504Y1349094D01*
Y1359094D01*
X383504D01*
X373504Y1349094D01*
X363504Y1359094D01*
X353504D01*
Y1349094D01*
X363504Y1339094D01*
X353504Y1329094D01*
Y1319094D01*
X1318071D02*
X1328071D01*
X1338071Y1329094D01*
X1348071Y1319094D01*
X1358071D01*
Y1329094D01*
X1348071Y1339094D01*
X1358071Y1349094D01*
Y1359094D01*
X1348071D01*
X1338071Y1349094D01*
X1328071Y1359094D01*
X1318071D01*
Y1349094D01*
X1328071Y1339094D01*
X1318071Y1329094D01*
Y1319094D01*
X1054117Y293009D02*
Y283009D01*
X1074117D01*
Y293009D01*
X1084117D01*
Y313009D01*
X1074117D01*
Y323009D01*
X1054117D01*
Y313009D01*
X1044117D01*
Y293009D01*
X1054117D01*
X1033307Y372874D02*
Y362874D01*
X1053307D01*
Y372874D01*
X1063307D01*
Y392874D01*
X1053307D01*
Y402874D01*
X1033307D01*
Y392874D01*
X1023307D01*
Y372874D01*
X1033307D01*
X956378Y704409D02*
X966378D01*
X976378Y714409D01*
X986378Y704409D01*
X996378D01*
Y714409D01*
X986378Y724409D01*
X996378Y734409D01*
Y744409D01*
X986378D01*
X976378Y734409D01*
X966378Y744409D01*
X956378D01*
Y734409D01*
X966378Y724409D01*
X956378Y714409D01*
Y704409D01*
X380000Y915000D02*
Y905000D01*
X400000D01*
Y915000D01*
X410000D01*
Y935000D01*
X400000D01*
Y945000D01*
X380000D01*
Y935000D01*
X370000D01*
Y915000D01*
X380000D01*
X790000Y140000D02*
Y130000D01*
X810000D01*
Y140000D01*
X820000D01*
Y160000D01*
X810000D01*
Y170000D01*
X790000D01*
Y160000D01*
X780000D01*
Y140000D01*
X790000D01*
X956378Y771339D02*
X966378D01*
X976378Y781339D01*
X986378Y771339D01*
X996378D01*
Y781339D01*
X986378Y791339D01*
X996378Y801339D01*
Y811339D01*
X986378D01*
X976378Y801339D01*
X966378Y811339D01*
X956378D01*
Y801339D01*
X966378Y791339D01*
X956378Y781339D01*
Y771339D01*
X720280Y465280D02*
X730280D01*
X740280Y475280D01*
X750280Y465280D01*
X760280D01*
Y475280D01*
X750280Y485280D01*
X760280Y495280D01*
Y505280D01*
X750280D01*
X740280Y495280D01*
X730280Y505280D01*
X720280D01*
Y495280D01*
X730280Y485280D01*
X720280Y475280D01*
Y465280D01*
X688181Y433181D02*
X698181D01*
X708181Y443181D01*
X718181Y433181D01*
X728181D01*
Y443181D01*
X718181Y453181D01*
X728181Y463181D01*
Y473181D01*
X718181D01*
X708181Y463181D01*
X698181Y473181D01*
X688181D01*
Y463181D01*
X698181Y453181D01*
X688181Y443181D01*
Y433181D01*
X280000Y1330000D02*
Y1320000D01*
X300000D01*
Y1330000D01*
X310000D01*
Y1350000D01*
X300000D01*
Y1360000D01*
X280000D01*
Y1350000D01*
X270000D01*
Y1330000D01*
X280000D01*
X140000D02*
Y1320000D01*
X160000D01*
Y1330000D01*
X170000D01*
Y1350000D01*
X160000D01*
Y1360000D01*
X140000D01*
Y1350000D01*
X130000D01*
Y1330000D01*
X140000D01*
X812835Y816772D02*
Y806772D01*
X832835D01*
Y816772D01*
X842835D01*
Y836772D01*
X832835D01*
Y846772D01*
X812835D01*
Y836772D01*
X802835D01*
Y816772D01*
X812835D01*
X493937D02*
Y806772D01*
X513937D01*
Y816772D01*
X523937D01*
Y836772D01*
X513937D01*
Y846772D01*
X493937D01*
Y836772D01*
X483937D01*
Y816772D01*
X493937D01*
X856142Y411260D02*
Y401260D01*
X876142D01*
Y411260D01*
X886142D01*
Y431260D01*
X876142D01*
Y441260D01*
X856142D01*
Y431260D01*
X846142D01*
Y411260D01*
X856142D01*
Y356142D02*
Y346142D01*
X876142D01*
Y356142D01*
X886142D01*
Y376142D01*
X876142D01*
Y386142D01*
X856142D01*
Y376142D01*
X846142D01*
Y356142D01*
X856142D01*
X980158Y372874D02*
Y362874D01*
X1000158D01*
Y372874D01*
X1010158D01*
Y392874D01*
X1000158D01*
Y402874D01*
X980158D01*
Y392874D01*
X970158D01*
Y372874D01*
X980158D01*
X954567Y321693D02*
Y311693D01*
X974567D01*
Y321693D01*
X984567D01*
Y341693D01*
X974567D01*
Y351693D01*
X954567D01*
Y341693D01*
X944567D01*
Y321693D01*
X954567D01*
X684724Y550866D02*
X694724D01*
X704724Y560866D01*
X714724Y550866D01*
X724724D01*
Y560866D01*
X714724Y570866D01*
X724724Y580866D01*
Y590866D01*
X714724D01*
X704724Y580866D01*
X694724Y590866D01*
X684724D01*
Y580866D01*
X694724Y570866D01*
X684724Y560866D01*
Y550866D01*
D45*
X374331Y787402D02*
G03*
X374331Y787402I-20000J0D01*
G01*
Y708661D02*
G03*
X374331Y708661I-20000J0D01*
G01*
M02*
