M48
;Layer_Color=9474304
;FILE_FORMAT=2:4
INCH
;TYPE=PLATED
T01F00S00C0.0118
T02F00S00C0.0120
T03F00S00C0.0276
T05F00S00C0.0425
T06F00S00C0.0433
%
T01
X008000Y001500
X008661Y003661
Y004213
X009902Y003829
X010433
X010641Y003030
X009646Y003317
X008228Y008268
X005039
X003900Y009250
X002900Y013400
X001500
T02
X002160Y005320
X007087Y005276
X007047Y005709
X007403Y004853
X007082Y004532
X007874Y000394
X010822Y000399
X013386Y000394
Y000984
X009764Y007244
X000787Y006102
Y005315
X000782Y004336
X000787Y003543
Y002756
X000585Y000596
X001176
X004522Y008863
X006100Y008850
X008268Y008858
X009764Y007913
X011890Y008622
X010625Y012800
X010231Y013391
X013381
X004522
X003735
T03
X003543Y007087
Y007874
T05
X003587Y010008
X004587
X005587
X006587
X007587
X008587
X009587
X010587
X010087Y012008
X009087
X008087
X007087
X006087
X005087
X004087
T06
X002146Y000669
X003146
X004146
X005146
X006146
X007146
X013346Y001697
Y002697
Y003697
Y004697
Y005697
Y006697
X000669Y006992
Y007992
Y008992
X013346Y008697
Y007697
Y010220
Y011220
Y012220
M30
