G04*
G04 #@! TF.GenerationSoftware,Altium Limited,Altium Designer,24.6.1 (21)*
G04*
G04 Layer_Color=65535*
%FSLAX26Y26*%
%MOIN*%
G70*
G04*
G04 #@! TF.SameCoordinates,A2FE4C0D-9988-4D7F-9E23-C7A6D8233F7C*
G04*
G04*
G04 #@! TF.FilePolarity,Positive*
G04*
G01*
G75*
%ADD10C,0.007874*%
%ADD11C,0.009842*%
%ADD12C,0.006890*%
%ADD13C,0.005906*%
%ADD14C,0.003937*%
G36*
X187165Y881890D02*
X129921D01*
Y923300D01*
X187165D01*
Y881890D01*
D02*
G37*
G36*
X205475Y775591D02*
X129921D01*
Y817146D01*
X205475D01*
Y775591D01*
D02*
G37*
G36*
X220435Y677165D02*
X129921D01*
Y719049D01*
X220435D01*
Y677165D01*
D02*
G37*
G36*
X227420Y148179D02*
X227701Y148154D01*
X228007Y148103D01*
X228364Y148052D01*
X228746Y147975D01*
X229154Y147873D01*
X229588Y147746D01*
X230021Y147593D01*
X230480Y147389D01*
X230914Y147185D01*
X231322Y146930D01*
X231755Y146624D01*
X232138Y146292D01*
X232163D01*
X232189Y146241D01*
X232265Y146165D01*
X232342Y146088D01*
X232444Y145961D01*
X232546Y145808D01*
X232826Y145451D01*
X233107Y144992D01*
X233413Y144431D01*
X233693Y143793D01*
X233948Y143054D01*
X230429Y142212D01*
Y142238D01*
X230404Y142263D01*
Y142340D01*
X230353Y142442D01*
X230276Y142671D01*
X230149Y142977D01*
X229970Y143334D01*
X229741Y143691D01*
X229435Y144048D01*
X229103Y144354D01*
X229052Y144380D01*
X228925Y144482D01*
X228721Y144609D01*
X228440Y144762D01*
X228083Y144915D01*
X227675Y145043D01*
X227216Y145145D01*
X226706Y145170D01*
X226528D01*
X226375Y145145D01*
X226222Y145119D01*
X226018Y145094D01*
X225584Y144992D01*
X225074Y144813D01*
X224539Y144558D01*
X224258Y144405D01*
X224003Y144227D01*
X223748Y143997D01*
X223519Y143742D01*
Y143717D01*
X223468Y143666D01*
X223417Y143589D01*
X223340Y143462D01*
X223238Y143309D01*
X223136Y143130D01*
X223034Y142901D01*
X222932Y142646D01*
X222805Y142340D01*
X222703Y142008D01*
X222601Y141626D01*
X222499Y141218D01*
X222422Y140759D01*
X222371Y140274D01*
X222346Y139739D01*
X222320Y139152D01*
Y139127D01*
Y138999D01*
Y138821D01*
X222346Y138617D01*
Y138336D01*
X222397Y138005D01*
X222422Y137673D01*
X222473Y137291D01*
X222626Y136500D01*
X222830Y135710D01*
X222958Y135327D01*
X223136Y134970D01*
X223315Y134639D01*
X223519Y134358D01*
X223544Y134333D01*
X223570Y134307D01*
X223646Y134231D01*
X223748Y134129D01*
X224003Y133925D01*
X224360Y133670D01*
X224794Y133389D01*
X225329Y133185D01*
X225941Y133007D01*
X226273Y132981D01*
X226630Y132956D01*
X226757D01*
X226859Y132981D01*
X227140Y133007D01*
X227471Y133058D01*
X227828Y133185D01*
X228236Y133338D01*
X228644Y133542D01*
X229052Y133848D01*
X229103Y133899D01*
X229231Y134027D01*
X229409Y134231D01*
X229613Y134537D01*
X229868Y134945D01*
X230098Y135429D01*
X230327Y136016D01*
X230531Y136704D01*
X233999Y135633D01*
Y135608D01*
X233974Y135506D01*
X233923Y135353D01*
X233846Y135149D01*
X233744Y134919D01*
X233642Y134639D01*
X233515Y134333D01*
X233362Y134001D01*
X233005Y133313D01*
X232546Y132599D01*
X231985Y131910D01*
X231679Y131604D01*
X231347Y131324D01*
X231322Y131298D01*
X231271Y131273D01*
X231169Y131196D01*
X231016Y131094D01*
X230837Y130992D01*
X230608Y130890D01*
X230353Y130763D01*
X230072Y130635D01*
X229741Y130482D01*
X229384Y130355D01*
X229001Y130253D01*
X228593Y130151D01*
X228160Y130049D01*
X227675Y129972D01*
X227191Y129947D01*
X226655Y129921D01*
X226502D01*
X226324Y129947D01*
X226069Y129972D01*
X225788Y129998D01*
X225431Y130049D01*
X225049Y130125D01*
X224615Y130227D01*
X224182Y130355D01*
X223723Y130508D01*
X223238Y130712D01*
X222754Y130941D01*
X222269Y131196D01*
X221785Y131528D01*
X221326Y131885D01*
X220892Y132318D01*
X220867Y132344D01*
X220790Y132420D01*
X220688Y132573D01*
X220535Y132752D01*
X220382Y133007D01*
X220178Y133287D01*
X219974Y133644D01*
X219770Y134052D01*
X219566Y134486D01*
X219362Y134970D01*
X219158Y135531D01*
X219005Y136118D01*
X218852Y136730D01*
X218750Y137418D01*
X218674Y138132D01*
X218648Y138897D01*
Y138923D01*
Y138948D01*
Y139101D01*
X218674Y139331D01*
Y139637D01*
X218725Y139994D01*
X218776Y140427D01*
X218827Y140886D01*
X218929Y141422D01*
X219056Y141957D01*
X219209Y142518D01*
X219388Y143079D01*
X219617Y143666D01*
X219872Y144227D01*
X220178Y144762D01*
X220510Y145272D01*
X220918Y145757D01*
X220943Y145782D01*
X221020Y145859D01*
X221147Y145986D01*
X221326Y146139D01*
X221555Y146318D01*
X221836Y146522D01*
X222142Y146751D01*
X222524Y146981D01*
X222932Y147210D01*
X223366Y147440D01*
X223876Y147644D01*
X224386Y147822D01*
X224972Y147975D01*
X225559Y148103D01*
X226222Y148179D01*
X226885Y148205D01*
X227191D01*
X227420Y148179D01*
D02*
G37*
G36*
X215512Y130227D02*
X211942D01*
X204776Y141855D01*
Y130227D01*
X201487D01*
Y147873D01*
X204929D01*
X212222Y135990D01*
Y147873D01*
X215512D01*
Y130227D01*
D02*
G37*
G36*
X245296Y147848D02*
X245806Y147822D01*
X246316Y147797D01*
X246800Y147746D01*
X247234Y147695D01*
X247285D01*
X247412Y147669D01*
X247591Y147618D01*
X247846Y147542D01*
X248126Y147440D01*
X248432Y147312D01*
X248764Y147159D01*
X249070Y146955D01*
X249095Y146930D01*
X249197Y146853D01*
X249350Y146726D01*
X249554Y146573D01*
X249758Y146343D01*
X249988Y146088D01*
X250217Y145808D01*
X250421Y145476D01*
X250447Y145425D01*
X250498Y145323D01*
X250600Y145119D01*
X250702Y144864D01*
X250804Y144558D01*
X250906Y144227D01*
X250957Y143819D01*
X250982Y143411D01*
Y143385D01*
Y143360D01*
Y143207D01*
X250957Y142977D01*
X250906Y142671D01*
X250804Y142314D01*
X250702Y141932D01*
X250523Y141549D01*
X250294Y141141D01*
X250268Y141090D01*
X250166Y140963D01*
X250013Y140784D01*
X249835Y140555D01*
X249580Y140325D01*
X249274Y140045D01*
X248917Y139815D01*
X248509Y139586D01*
X248534D01*
X248585Y139560D01*
X248662Y139535D01*
X248764Y139509D01*
X249070Y139382D01*
X249427Y139203D01*
X249809Y138999D01*
X250243Y138719D01*
X250625Y138387D01*
X250982Y137979D01*
X251008Y137928D01*
X251110Y137775D01*
X251263Y137546D01*
X251416Y137240D01*
X251569Y136832D01*
X251722Y136398D01*
X251824Y135888D01*
X251849Y135327D01*
Y135302D01*
Y135276D01*
Y135123D01*
X251824Y134894D01*
X251773Y134588D01*
X251722Y134231D01*
X251620Y133823D01*
X251467Y133415D01*
X251288Y132981D01*
X251263Y132930D01*
X251186Y132803D01*
X251059Y132599D01*
X250880Y132344D01*
X250676Y132038D01*
X250396Y131757D01*
X250115Y131451D01*
X249758Y131171D01*
X249707Y131145D01*
X249580Y131069D01*
X249376Y130941D01*
X249095Y130814D01*
X248738Y130661D01*
X248330Y130533D01*
X247871Y130406D01*
X247361Y130329D01*
X247259D01*
X247157Y130304D01*
X246902D01*
X246724Y130278D01*
X246239D01*
X245933Y130253D01*
X245168D01*
X244735Y130227D01*
X237085D01*
Y147873D01*
X244837D01*
X245296Y147848D01*
D02*
G37*
G36*
X198121Y144890D02*
X188609D01*
Y140988D01*
X197458D01*
Y138005D01*
X188609D01*
Y133211D01*
X198452D01*
Y130227D01*
X185039D01*
Y147873D01*
X198121D01*
Y144890D01*
D02*
G37*
G36*
X321909Y148179D02*
X322189Y148154D01*
X322495Y148103D01*
X322852Y148052D01*
X323235Y147975D01*
X323643Y147873D01*
X324076Y147746D01*
X324510Y147593D01*
X324969Y147389D01*
X325402Y147185D01*
X325810Y146930D01*
X326244Y146624D01*
X326626Y146292D01*
X326652D01*
X326677Y146241D01*
X326754Y146165D01*
X326830Y146088D01*
X326932Y145961D01*
X327034Y145808D01*
X327315Y145451D01*
X327595Y144992D01*
X327901Y144431D01*
X328182Y143793D01*
X328437Y143054D01*
X324918Y142212D01*
Y142238D01*
X324892Y142263D01*
Y142340D01*
X324841Y142442D01*
X324765Y142671D01*
X324637Y142977D01*
X324459Y143334D01*
X324229Y143691D01*
X323923Y144048D01*
X323592Y144354D01*
X323541Y144380D01*
X323413Y144482D01*
X323209Y144609D01*
X322929Y144762D01*
X322572Y144915D01*
X322164Y145043D01*
X321705Y145145D01*
X321195Y145170D01*
X321016D01*
X320863Y145145D01*
X320710Y145119D01*
X320506Y145094D01*
X320073Y144992D01*
X319563Y144813D01*
X319027Y144558D01*
X318747Y144405D01*
X318492Y144227D01*
X318237Y143997D01*
X318007Y143742D01*
Y143717D01*
X317956Y143666D01*
X317905Y143589D01*
X317829Y143462D01*
X317727Y143309D01*
X317625Y143130D01*
X317523Y142901D01*
X317421Y142646D01*
X317293Y142340D01*
X317191Y142008D01*
X317089Y141626D01*
X316987Y141218D01*
X316911Y140759D01*
X316860Y140274D01*
X316834Y139739D01*
X316809Y139152D01*
Y139127D01*
Y138999D01*
Y138821D01*
X316834Y138617D01*
Y138336D01*
X316885Y138005D01*
X316911Y137673D01*
X316962Y137291D01*
X317115Y136500D01*
X317319Y135710D01*
X317446Y135327D01*
X317625Y134970D01*
X317803Y134639D01*
X318007Y134358D01*
X318033Y134333D01*
X318058Y134307D01*
X318135Y134231D01*
X318237Y134129D01*
X318492Y133925D01*
X318849Y133670D01*
X319282Y133389D01*
X319818Y133185D01*
X320430Y133007D01*
X320761Y132981D01*
X321118Y132956D01*
X321246D01*
X321348Y132981D01*
X321628Y133007D01*
X321960Y133058D01*
X322317Y133185D01*
X322725Y133338D01*
X323133Y133542D01*
X323541Y133848D01*
X323592Y133899D01*
X323719Y134027D01*
X323898Y134231D01*
X324102Y134537D01*
X324357Y134945D01*
X324586Y135429D01*
X324816Y136016D01*
X325020Y136704D01*
X328488Y135633D01*
Y135608D01*
X328462Y135506D01*
X328411Y135353D01*
X328335Y135149D01*
X328233Y134919D01*
X328131Y134639D01*
X328003Y134333D01*
X327850Y134001D01*
X327493Y133313D01*
X327034Y132599D01*
X326473Y131910D01*
X326167Y131604D01*
X325836Y131324D01*
X325810Y131298D01*
X325759Y131273D01*
X325657Y131196D01*
X325504Y131094D01*
X325326Y130992D01*
X325096Y130890D01*
X324841Y130763D01*
X324561Y130635D01*
X324229Y130482D01*
X323872Y130355D01*
X323490Y130253D01*
X323082Y130151D01*
X322648Y130049D01*
X322164Y129972D01*
X321679Y129947D01*
X321144Y129921D01*
X320991D01*
X320812Y129947D01*
X320557Y129972D01*
X320277Y129998D01*
X319920Y130049D01*
X319537Y130125D01*
X319104Y130227D01*
X318670Y130355D01*
X318211Y130508D01*
X317727Y130712D01*
X317242Y130941D01*
X316758Y131196D01*
X316273Y131528D01*
X315814Y131885D01*
X315381Y132318D01*
X315355Y132344D01*
X315279Y132420D01*
X315177Y132573D01*
X315024Y132752D01*
X314871Y133007D01*
X314667Y133287D01*
X314463Y133644D01*
X314259Y134052D01*
X314055Y134486D01*
X313851Y134970D01*
X313647Y135531D01*
X313494Y136118D01*
X313341Y136730D01*
X313239Y137418D01*
X313162Y138132D01*
X313137Y138897D01*
Y138923D01*
Y138948D01*
Y139101D01*
X313162Y139331D01*
Y139637D01*
X313213Y139994D01*
X313264Y140427D01*
X313315Y140886D01*
X313417Y141422D01*
X313545Y141957D01*
X313698Y142518D01*
X313876Y143079D01*
X314106Y143666D01*
X314361Y144227D01*
X314667Y144762D01*
X314998Y145272D01*
X315406Y145757D01*
X315432Y145782D01*
X315508Y145859D01*
X315636Y145986D01*
X315814Y146139D01*
X316044Y146318D01*
X316324Y146522D01*
X316630Y146751D01*
X317013Y146981D01*
X317421Y147210D01*
X317854Y147440D01*
X318364Y147644D01*
X318874Y147822D01*
X319461Y147975D01*
X320047Y148103D01*
X320710Y148179D01*
X321373Y148205D01*
X321679D01*
X321909Y148179D01*
D02*
G37*
G36*
X310000Y130227D02*
X306430D01*
X299265Y141855D01*
Y130227D01*
X295975D01*
Y147873D01*
X299418D01*
X306711Y135990D01*
Y147873D01*
X310000D01*
Y130227D01*
D02*
G37*
G36*
X347460D02*
X343609D01*
X342079Y134231D01*
X334990D01*
X333537Y130227D01*
X329763D01*
X336597Y147873D01*
X340371D01*
X347460Y130227D01*
D02*
G37*
G36*
X292609Y144890D02*
X283098D01*
Y140988D01*
X291946D01*
Y138005D01*
X283098D01*
Y133211D01*
X292941D01*
Y130227D01*
X279528D01*
Y147873D01*
X292609D01*
Y144890D01*
D02*
G37*
G36*
X424372Y130253D02*
X420521D01*
X414197Y147899D01*
X418048D01*
X422536Y134843D01*
X426845Y147899D01*
X430645D01*
X424372Y130253D01*
D02*
G37*
G36*
X412667Y144507D02*
X406267D01*
X405731Y141498D01*
X405757D01*
X405782Y141524D01*
X405935Y141600D01*
X406165Y141677D01*
X406445Y141804D01*
X406802Y141906D01*
X407185Y141983D01*
X407618Y142059D01*
X408052Y142085D01*
X408281D01*
X408434Y142059D01*
X408613Y142034D01*
X408842Y142008D01*
X409097Y141957D01*
X409378Y141881D01*
X409964Y141677D01*
X410296Y141549D01*
X410602Y141396D01*
X410933Y141192D01*
X411265Y140963D01*
X411571Y140708D01*
X411877Y140427D01*
X411902Y140402D01*
X411953Y140351D01*
X412030Y140249D01*
X412132Y140121D01*
X412234Y139968D01*
X412387Y139764D01*
X412514Y139535D01*
X412667Y139280D01*
X412820Y138999D01*
X412948Y138668D01*
X413101Y138311D01*
X413203Y137954D01*
X413305Y137546D01*
X413381Y137112D01*
X413432Y136653D01*
X413458Y136169D01*
Y136143D01*
Y136067D01*
Y135965D01*
X413432Y135812D01*
Y135608D01*
X413381Y135378D01*
X413356Y135123D01*
X413305Y134868D01*
X413152Y134256D01*
X412922Y133593D01*
X412769Y133236D01*
X412616Y132905D01*
X412412Y132573D01*
X412183Y132242D01*
X412157Y132216D01*
X412106Y132140D01*
X412004Y132038D01*
X411877Y131885D01*
X411698Y131706D01*
X411469Y131502D01*
X411214Y131298D01*
X410933Y131094D01*
X410602Y130865D01*
X410245Y130661D01*
X409862Y130457D01*
X409429Y130278D01*
X408970Y130125D01*
X408485Y130023D01*
X407950Y129947D01*
X407389Y129921D01*
X407159D01*
X406981Y129947D01*
X406777Y129972D01*
X406522Y129998D01*
X406267Y130023D01*
X405961Y130074D01*
X405349Y130227D01*
X404660Y130482D01*
X404329Y130610D01*
X403997Y130788D01*
X403691Y130992D01*
X403385Y131222D01*
X403360Y131247D01*
X403309Y131273D01*
X403232Y131349D01*
X403130Y131451D01*
X403028Y131604D01*
X402875Y131757D01*
X402748Y131936D01*
X402595Y132140D01*
X402416Y132395D01*
X402263Y132650D01*
X401983Y133262D01*
X401728Y133950D01*
X401651Y134333D01*
X401575Y134741D01*
X404941Y135098D01*
Y135047D01*
X404966Y134919D01*
X405017Y134690D01*
X405094Y134435D01*
X405196Y134154D01*
X405349Y133848D01*
X405553Y133568D01*
X405782Y133287D01*
X405808Y133262D01*
X405910Y133185D01*
X406063Y133083D01*
X406267Y132956D01*
X406496Y132828D01*
X406777Y132726D01*
X407108Y132650D01*
X407440Y132624D01*
X407491D01*
X407618Y132650D01*
X407822Y132675D01*
X408077Y132726D01*
X408358Y132828D01*
X408664Y132981D01*
X408970Y133211D01*
X409250Y133491D01*
X409276Y133542D01*
X409378Y133644D01*
X409480Y133848D01*
X409633Y134154D01*
X409760Y134511D01*
X409888Y134945D01*
X409964Y135480D01*
X409990Y136092D01*
Y136118D01*
Y136169D01*
Y136245D01*
Y136373D01*
X409964Y136653D01*
X409888Y137010D01*
X409811Y137418D01*
X409684Y137826D01*
X409505Y138209D01*
X409250Y138540D01*
X409225Y138566D01*
X409123Y138668D01*
X408944Y138795D01*
X408740Y138974D01*
X408460Y139127D01*
X408128Y139254D01*
X407746Y139356D01*
X407338Y139382D01*
X407185D01*
X407083Y139356D01*
X406828Y139305D01*
X406471Y139229D01*
X406063Y139076D01*
X405629Y138846D01*
X405400Y138693D01*
X405170Y138515D01*
X404941Y138311D01*
X404711Y138081D01*
X401983Y138464D01*
X403717Y147669D01*
X412667D01*
Y144507D01*
D02*
G37*
G36*
X497471Y148205D02*
X497752Y148179D01*
X498083Y148154D01*
X498440Y148128D01*
X498822Y148052D01*
X499639Y147899D01*
X500480Y147644D01*
X500913Y147491D01*
X501322Y147312D01*
X501704Y147108D01*
X502061Y146853D01*
X502087Y146828D01*
X502137Y146802D01*
X502240Y146700D01*
X502367Y146598D01*
X502520Y146471D01*
X502673Y146292D01*
X502851Y146088D01*
X503055Y145859D01*
X503260Y145604D01*
X503464Y145323D01*
X503668Y145017D01*
X503846Y144660D01*
X504050Y144303D01*
X504203Y143921D01*
X504356Y143487D01*
X504458Y143054D01*
X500913Y142391D01*
Y142416D01*
X500888Y142442D01*
X500837Y142595D01*
X500735Y142824D01*
X500582Y143130D01*
X500404Y143462D01*
X500149Y143793D01*
X499842Y144125D01*
X499486Y144431D01*
X499435Y144456D01*
X499307Y144558D01*
X499077Y144686D01*
X498797Y144813D01*
X498414Y144966D01*
X497981Y145068D01*
X497497Y145170D01*
X496935Y145196D01*
X496706D01*
X496553Y145170D01*
X496349Y145145D01*
X496120Y145119D01*
X495865Y145068D01*
X495584Y145017D01*
X494998Y144839D01*
X494692Y144711D01*
X494385Y144558D01*
X494079Y144380D01*
X493774Y144201D01*
X493493Y143946D01*
X493212Y143691D01*
X493187Y143666D01*
X493161Y143615D01*
X493085Y143538D01*
X493009Y143411D01*
X492906Y143258D01*
X492779Y143079D01*
X492651Y142850D01*
X492550Y142595D01*
X492422Y142289D01*
X492295Y141957D01*
X492167Y141600D01*
X492065Y141218D01*
X491988Y140784D01*
X491912Y140300D01*
X491887Y139815D01*
X491861Y139280D01*
Y139254D01*
Y139152D01*
Y138974D01*
X491887Y138770D01*
X491912Y138489D01*
X491938Y138209D01*
X491988Y137852D01*
X492039Y137495D01*
X492192Y136730D01*
X492447Y135939D01*
X492601Y135557D01*
X492779Y135200D01*
X493009Y134843D01*
X493238Y134537D01*
X493264Y134511D01*
X493315Y134460D01*
X493391Y134384D01*
X493493Y134282D01*
X493646Y134180D01*
X493799Y134027D01*
X494003Y133899D01*
X494233Y133746D01*
X494488Y133593D01*
X494743Y133466D01*
X495380Y133211D01*
X495737Y133109D01*
X496094Y133032D01*
X496502Y132981D01*
X496910Y132956D01*
X497114D01*
X497318Y132981D01*
X497624Y133007D01*
X497955Y133058D01*
X498338Y133134D01*
X498746Y133236D01*
X499154Y133389D01*
X499180D01*
X499205Y133415D01*
X499332Y133466D01*
X499562Y133568D01*
X499817Y133695D01*
X500123Y133848D01*
X500454Y134027D01*
X500786Y134231D01*
X501092Y134460D01*
Y136730D01*
X497012D01*
Y139713D01*
X504688D01*
Y132624D01*
X504637Y132573D01*
X504560Y132522D01*
X504483Y132446D01*
X504356Y132344D01*
X504228Y132242D01*
X503872Y131987D01*
X503387Y131706D01*
X502826Y131375D01*
X502188Y131043D01*
X501423Y130737D01*
X501398D01*
X501322Y130712D01*
X501219Y130661D01*
X501067Y130610D01*
X500863Y130559D01*
X500633Y130482D01*
X500378Y130406D01*
X500098Y130329D01*
X499460Y130176D01*
X498721Y130049D01*
X497955Y129947D01*
X497139Y129921D01*
X496859D01*
X496680Y129947D01*
X496425D01*
X496145Y129972D01*
X495839Y130023D01*
X495482Y130074D01*
X494743Y130202D01*
X493926Y130406D01*
X493085Y130686D01*
X492702Y130865D01*
X492295Y131069D01*
X492269Y131094D01*
X492218Y131120D01*
X492091Y131196D01*
X491963Y131298D01*
X491784Y131400D01*
X491606Y131553D01*
X491377Y131732D01*
X491147Y131936D01*
X490637Y132395D01*
X490127Y132981D01*
X489642Y133644D01*
X489209Y134409D01*
Y134435D01*
X489158Y134511D01*
X489107Y134639D01*
X489056Y134792D01*
X488979Y134996D01*
X488877Y135225D01*
X488801Y135506D01*
X488699Y135812D01*
X488597Y136143D01*
X488521Y136526D01*
X488342Y137316D01*
X488240Y138183D01*
X488189Y139127D01*
Y139152D01*
Y139254D01*
Y139407D01*
X488214Y139586D01*
Y139841D01*
X488240Y140121D01*
X488291Y140427D01*
X488342Y140784D01*
X488469Y141524D01*
X488673Y142365D01*
X488954Y143207D01*
X489132Y143615D01*
X489337Y144023D01*
X489362Y144048D01*
X489387Y144125D01*
X489464Y144227D01*
X489541Y144380D01*
X489668Y144558D01*
X489821Y144762D01*
X490000Y144992D01*
X490178Y145247D01*
X490408Y145502D01*
X490663Y145782D01*
X490943Y146063D01*
X491249Y146343D01*
X491580Y146598D01*
X491912Y146879D01*
X492702Y147338D01*
X492728D01*
X492779Y147389D01*
X492881Y147414D01*
X493009Y147491D01*
X493187Y147542D01*
X493365Y147618D01*
X493620Y147695D01*
X493875Y147797D01*
X494156Y147873D01*
X494488Y147950D01*
X494844Y148026D01*
X495202Y148103D01*
X496017Y148205D01*
X496935Y148230D01*
X497241D01*
X497471Y148205D01*
D02*
G37*
G36*
X522028Y130253D02*
X518457D01*
X511292Y141881D01*
Y130253D01*
X508002D01*
Y147899D01*
X511445D01*
X518738Y136016D01*
Y147899D01*
X522028D01*
Y130253D01*
D02*
G37*
G36*
X533043Y147873D02*
X533528Y147848D01*
X534063Y147822D01*
X534625Y147746D01*
X535160Y147669D01*
X535644Y147542D01*
X535670D01*
X535721Y147516D01*
X535798Y147491D01*
X535899Y147465D01*
X536206Y147338D01*
X536562Y147159D01*
X536971Y146930D01*
X537429Y146649D01*
X537863Y146318D01*
X538297Y145910D01*
X538322D01*
X538347Y145859D01*
X538475Y145706D01*
X538679Y145451D01*
X538909Y145119D01*
X539189Y144711D01*
X539470Y144227D01*
X539750Y143666D01*
X539980Y143054D01*
Y143028D01*
X540005Y142977D01*
X540030Y142875D01*
X540082Y142748D01*
X540107Y142595D01*
X540158Y142391D01*
X540209Y142161D01*
X540285Y141906D01*
X540337Y141626D01*
X540388Y141294D01*
X540438Y140963D01*
X540464Y140580D01*
X540540Y139790D01*
X540566Y138897D01*
Y138872D01*
Y138795D01*
Y138693D01*
Y138540D01*
X540540Y138336D01*
Y138132D01*
X540515Y137877D01*
X540490Y137597D01*
X540438Y137010D01*
X540337Y136398D01*
X540183Y135761D01*
X540005Y135149D01*
Y135123D01*
X539980Y135072D01*
X539928Y134970D01*
X539878Y134817D01*
X539827Y134664D01*
X539725Y134486D01*
X539520Y134027D01*
X539265Y133542D01*
X538934Y133007D01*
X538552Y132497D01*
X538118Y132012D01*
X538067Y131961D01*
X537939Y131859D01*
X537736Y131706D01*
X537455Y131502D01*
X537098Y131273D01*
X536690Y131043D01*
X536180Y130814D01*
X535619Y130610D01*
X535593D01*
X535568Y130584D01*
X535491D01*
X535415Y130559D01*
X535135Y130508D01*
X534778Y130431D01*
X534344Y130355D01*
X533808Y130304D01*
X533171Y130278D01*
X532482Y130253D01*
X525802D01*
Y147899D01*
X532840D01*
X533043Y147873D01*
D02*
G37*
G36*
X619345Y129921D02*
X616056D01*
X616030Y143793D01*
X612562Y129921D01*
X609120D01*
X605652Y143793D01*
Y129921D01*
X602362D01*
Y147567D01*
X607692D01*
X610854Y135506D01*
X613990Y147567D01*
X619345D01*
Y129921D01*
D02*
G37*
G36*
X629188Y134639D02*
X622533D01*
Y138030D01*
X629188D01*
Y134639D01*
D02*
G37*
G36*
X717770Y129921D02*
X714481D01*
X714455Y143793D01*
X710987Y129921D01*
X707545D01*
X704077Y143793D01*
Y129921D01*
X700787D01*
Y147567D01*
X706117D01*
X709279Y135506D01*
X712415Y147567D01*
X717770D01*
Y129921D01*
D02*
G37*
G36*
X728302Y140198D02*
X732943D01*
Y137036D01*
X728302D01*
Y132471D01*
X725216D01*
Y137036D01*
X720601D01*
Y140198D01*
X725216D01*
Y144762D01*
X728302D01*
Y140198D01*
D02*
G37*
G36*
X1274555Y897493D02*
X1274861Y897442D01*
X1275218Y897391D01*
X1275626Y897289D01*
X1276034Y897136D01*
X1276468Y896958D01*
X1276519Y896932D01*
X1276646Y896856D01*
X1276850Y896728D01*
X1277105Y896550D01*
X1277411Y896346D01*
X1277692Y896065D01*
X1277998Y895785D01*
X1278278Y895428D01*
X1278304Y895377D01*
X1278380Y895249D01*
X1278508Y895045D01*
X1278635Y894765D01*
X1278788Y894408D01*
X1278916Y894000D01*
X1279043Y893541D01*
X1279120Y893031D01*
Y892929D01*
X1279145Y892827D01*
Y892572D01*
X1279171Y892393D01*
Y891909D01*
X1279196Y891603D01*
Y890838D01*
X1279222Y890404D01*
Y882754D01*
X1261576D01*
Y890506D01*
X1261601Y890965D01*
X1261627Y891475D01*
X1261652Y891985D01*
X1261703Y892470D01*
X1261754Y892903D01*
Y892954D01*
X1261780Y893082D01*
X1261831Y893260D01*
X1261907Y893515D01*
X1262009Y893796D01*
X1262137Y894102D01*
X1262290Y894433D01*
X1262494Y894739D01*
X1262519Y894765D01*
X1262596Y894867D01*
X1262723Y895020D01*
X1262876Y895224D01*
X1263106Y895428D01*
X1263361Y895657D01*
X1263641Y895887D01*
X1263973Y896091D01*
X1264024Y896116D01*
X1264126Y896167D01*
X1264330Y896269D01*
X1264585Y896371D01*
X1264891Y896473D01*
X1265222Y896575D01*
X1265630Y896626D01*
X1266038Y896652D01*
X1266064D01*
X1266089D01*
X1266242D01*
X1266472Y896626D01*
X1266778Y896575D01*
X1267135Y896473D01*
X1267517Y896371D01*
X1267900Y896193D01*
X1268308Y895963D01*
X1268359Y895938D01*
X1268486Y895836D01*
X1268665Y895683D01*
X1268894Y895504D01*
X1269124Y895249D01*
X1269404Y894943D01*
X1269634Y894586D01*
X1269863Y894178D01*
Y894204D01*
X1269889Y894255D01*
X1269914Y894331D01*
X1269940Y894433D01*
X1270067Y894739D01*
X1270246Y895096D01*
X1270450Y895479D01*
X1270730Y895912D01*
X1271062Y896295D01*
X1271470Y896652D01*
X1271521Y896677D01*
X1271674Y896779D01*
X1271903Y896932D01*
X1272209Y897085D01*
X1272617Y897238D01*
X1273051Y897391D01*
X1273561Y897493D01*
X1274122Y897519D01*
X1274147D01*
X1274173D01*
X1274326D01*
X1274555Y897493D01*
D02*
G37*
G36*
X1273943Y879643D02*
X1274096Y879592D01*
X1274300Y879516D01*
X1274530Y879414D01*
X1274810Y879312D01*
X1275116Y879184D01*
X1275448Y879031D01*
X1276136Y878674D01*
X1276850Y878215D01*
X1277539Y877654D01*
X1277845Y877348D01*
X1278125Y877017D01*
X1278151Y876991D01*
X1278176Y876940D01*
X1278253Y876838D01*
X1278355Y876685D01*
X1278457Y876507D01*
X1278559Y876277D01*
X1278686Y876022D01*
X1278814Y875742D01*
X1278967Y875410D01*
X1279094Y875053D01*
X1279196Y874671D01*
X1279298Y874263D01*
X1279400Y873829D01*
X1279477Y873345D01*
X1279502Y872860D01*
X1279528Y872325D01*
Y872172D01*
X1279502Y871993D01*
X1279477Y871738D01*
X1279451Y871458D01*
X1279400Y871101D01*
X1279324Y870718D01*
X1279222Y870285D01*
X1279094Y869851D01*
X1278941Y869392D01*
X1278737Y868908D01*
X1278508Y868423D01*
X1278253Y867939D01*
X1277921Y867454D01*
X1277564Y866995D01*
X1277131Y866562D01*
X1277105Y866536D01*
X1277029Y866460D01*
X1276876Y866358D01*
X1276697Y866205D01*
X1276442Y866052D01*
X1276162Y865848D01*
X1275805Y865644D01*
X1275397Y865440D01*
X1274963Y865236D01*
X1274479Y865032D01*
X1273918Y864828D01*
X1273331Y864675D01*
X1272719Y864522D01*
X1272031Y864420D01*
X1271317Y864343D01*
X1270552Y864318D01*
X1270526D01*
X1270501D01*
X1270348D01*
X1270118Y864343D01*
X1269812D01*
X1269455Y864394D01*
X1269022Y864445D01*
X1268563Y864496D01*
X1268027Y864598D01*
X1267492Y864726D01*
X1266931Y864879D01*
X1266370Y865057D01*
X1265783Y865287D01*
X1265222Y865542D01*
X1264687Y865848D01*
X1264177Y866179D01*
X1263692Y866587D01*
X1263667Y866613D01*
X1263590Y866689D01*
X1263463Y866817D01*
X1263310Y866995D01*
X1263131Y867225D01*
X1262927Y867505D01*
X1262698Y867811D01*
X1262468Y868194D01*
X1262239Y868602D01*
X1262009Y869035D01*
X1261805Y869545D01*
X1261627Y870055D01*
X1261474Y870642D01*
X1261346Y871228D01*
X1261270Y871891D01*
X1261244Y872554D01*
Y872860D01*
X1261270Y873090D01*
X1261295Y873370D01*
X1261346Y873676D01*
X1261397Y874033D01*
X1261474Y874416D01*
X1261576Y874824D01*
X1261703Y875257D01*
X1261856Y875691D01*
X1262060Y876150D01*
X1262264Y876583D01*
X1262519Y876991D01*
X1262825Y877425D01*
X1263157Y877807D01*
Y877833D01*
X1263208Y877858D01*
X1263284Y877935D01*
X1263361Y878011D01*
X1263488Y878113D01*
X1263641Y878215D01*
X1263998Y878496D01*
X1264457Y878776D01*
X1265018Y879082D01*
X1265656Y879363D01*
X1266395Y879618D01*
X1267237Y876099D01*
X1267211D01*
X1267186Y876073D01*
X1267109D01*
X1267007Y876022D01*
X1266778Y875946D01*
X1266472Y875818D01*
X1266115Y875640D01*
X1265758Y875410D01*
X1265401Y875104D01*
X1265095Y874773D01*
X1265069Y874722D01*
X1264967Y874594D01*
X1264840Y874390D01*
X1264687Y874110D01*
X1264534Y873753D01*
X1264406Y873345D01*
X1264304Y872886D01*
X1264279Y872376D01*
Y872197D01*
X1264304Y872044D01*
X1264330Y871891D01*
X1264355Y871687D01*
X1264457Y871254D01*
X1264636Y870744D01*
X1264891Y870208D01*
X1265044Y869928D01*
X1265222Y869673D01*
X1265452Y869418D01*
X1265707Y869188D01*
X1265732D01*
X1265783Y869137D01*
X1265860Y869086D01*
X1265987Y869010D01*
X1266140Y868908D01*
X1266319Y868806D01*
X1266548Y868704D01*
X1266803Y868602D01*
X1267109Y868474D01*
X1267441Y868372D01*
X1267823Y868270D01*
X1268231Y868168D01*
X1268690Y868092D01*
X1269175Y868041D01*
X1269710Y868015D01*
X1270297Y867990D01*
X1270322D01*
X1270450D01*
X1270628D01*
X1270832Y868015D01*
X1271113D01*
X1271444Y868066D01*
X1271776Y868092D01*
X1272158Y868143D01*
X1272949Y868296D01*
X1273739Y868500D01*
X1274122Y868627D01*
X1274479Y868806D01*
X1274810Y868984D01*
X1275091Y869188D01*
X1275116Y869214D01*
X1275142Y869239D01*
X1275218Y869316D01*
X1275320Y869418D01*
X1275524Y869673D01*
X1275779Y870030D01*
X1276060Y870463D01*
X1276264Y870999D01*
X1276442Y871611D01*
X1276468Y871942D01*
X1276493Y872299D01*
Y872427D01*
X1276468Y872529D01*
X1276442Y872809D01*
X1276391Y873141D01*
X1276264Y873498D01*
X1276111Y873906D01*
X1275907Y874314D01*
X1275601Y874722D01*
X1275550Y874773D01*
X1275422Y874900D01*
X1275218Y875079D01*
X1274912Y875283D01*
X1274504Y875538D01*
X1274020Y875767D01*
X1273433Y875997D01*
X1272745Y876201D01*
X1273816Y879669D01*
X1273841D01*
X1273943Y879643D01*
D02*
G37*
G36*
X1279222Y857611D02*
X1267594Y850446D01*
X1279222D01*
Y847156D01*
X1261576D01*
Y850599D01*
X1273459Y857892D01*
X1261576D01*
Y861181D01*
X1279222D01*
Y857611D01*
D02*
G37*
G36*
Y830709D02*
X1261576D01*
Y843790D01*
X1264559D01*
Y834279D01*
X1268461D01*
Y843127D01*
X1271444D01*
Y834279D01*
X1276238D01*
Y844122D01*
X1279222D01*
Y830709D01*
D02*
G37*
G36*
Y800302D02*
X1275218Y798772D01*
Y791683D01*
X1279222Y790230D01*
Y786456D01*
X1261576Y793289D01*
Y797063D01*
X1279222Y804153D01*
Y800302D01*
D02*
G37*
G36*
X1273943Y785155D02*
X1274096Y785104D01*
X1274300Y785028D01*
X1274530Y784926D01*
X1274810Y784823D01*
X1275116Y784696D01*
X1275448Y784543D01*
X1276136Y784186D01*
X1276850Y783727D01*
X1277539Y783166D01*
X1277845Y782860D01*
X1278125Y782529D01*
X1278151Y782503D01*
X1278176Y782452D01*
X1278253Y782350D01*
X1278355Y782197D01*
X1278457Y782019D01*
X1278559Y781789D01*
X1278686Y781534D01*
X1278814Y781254D01*
X1278967Y780922D01*
X1279094Y780565D01*
X1279196Y780183D01*
X1279298Y779774D01*
X1279400Y779341D01*
X1279477Y778856D01*
X1279502Y778372D01*
X1279528Y777837D01*
Y777683D01*
X1279502Y777505D01*
X1279477Y777250D01*
X1279451Y776970D01*
X1279400Y776612D01*
X1279324Y776230D01*
X1279222Y775797D01*
X1279094Y775363D01*
X1278941Y774904D01*
X1278737Y774419D01*
X1278508Y773935D01*
X1278253Y773451D01*
X1277921Y772966D01*
X1277564Y772507D01*
X1277131Y772073D01*
X1277105Y772048D01*
X1277029Y771971D01*
X1276876Y771870D01*
X1276697Y771716D01*
X1276442Y771563D01*
X1276162Y771360D01*
X1275805Y771155D01*
X1275397Y770952D01*
X1274963Y770747D01*
X1274479Y770543D01*
X1273918Y770340D01*
X1273331Y770187D01*
X1272719Y770034D01*
X1272031Y769932D01*
X1271317Y769855D01*
X1270552Y769830D01*
X1270526D01*
X1270501D01*
X1270348D01*
X1270118Y769855D01*
X1269812D01*
X1269455Y769906D01*
X1269022Y769957D01*
X1268563Y770008D01*
X1268027Y770110D01*
X1267492Y770237D01*
X1266931Y770390D01*
X1266370Y770569D01*
X1265783Y770798D01*
X1265222Y771053D01*
X1264687Y771360D01*
X1264177Y771691D01*
X1263692Y772099D01*
X1263667Y772125D01*
X1263590Y772201D01*
X1263463Y772328D01*
X1263310Y772507D01*
X1263131Y772736D01*
X1262927Y773017D01*
X1262698Y773323D01*
X1262468Y773706D01*
X1262239Y774114D01*
X1262009Y774547D01*
X1261805Y775057D01*
X1261627Y775567D01*
X1261474Y776154D01*
X1261346Y776740D01*
X1261270Y777403D01*
X1261244Y778066D01*
Y778372D01*
X1261270Y778601D01*
X1261295Y778882D01*
X1261346Y779188D01*
X1261397Y779545D01*
X1261474Y779928D01*
X1261576Y780336D01*
X1261703Y780769D01*
X1261856Y781202D01*
X1262060Y781662D01*
X1262264Y782095D01*
X1262519Y782503D01*
X1262825Y782937D01*
X1263157Y783319D01*
Y783345D01*
X1263208Y783370D01*
X1263284Y783447D01*
X1263361Y783523D01*
X1263488Y783625D01*
X1263641Y783727D01*
X1263998Y784008D01*
X1264457Y784288D01*
X1265018Y784594D01*
X1265656Y784875D01*
X1266395Y785130D01*
X1267237Y781611D01*
X1267211D01*
X1267186Y781585D01*
X1267109D01*
X1267007Y781534D01*
X1266778Y781457D01*
X1266472Y781330D01*
X1266115Y781152D01*
X1265758Y780922D01*
X1265401Y780616D01*
X1265095Y780284D01*
X1265069Y780234D01*
X1264967Y780106D01*
X1264840Y779902D01*
X1264687Y779621D01*
X1264534Y779264D01*
X1264406Y778856D01*
X1264304Y778398D01*
X1264279Y777888D01*
Y777709D01*
X1264304Y777556D01*
X1264330Y777403D01*
X1264355Y777199D01*
X1264457Y776765D01*
X1264636Y776255D01*
X1264891Y775720D01*
X1265044Y775439D01*
X1265222Y775184D01*
X1265452Y774929D01*
X1265707Y774700D01*
X1265732D01*
X1265783Y774649D01*
X1265860Y774598D01*
X1265987Y774521D01*
X1266140Y774419D01*
X1266319Y774317D01*
X1266548Y774216D01*
X1266803Y774114D01*
X1267109Y773986D01*
X1267441Y773884D01*
X1267823Y773782D01*
X1268231Y773680D01*
X1268690Y773604D01*
X1269175Y773553D01*
X1269710Y773527D01*
X1270297Y773501D01*
X1270322D01*
X1270450D01*
X1270628D01*
X1270832Y773527D01*
X1271113D01*
X1271444Y773578D01*
X1271776Y773604D01*
X1272158Y773654D01*
X1272949Y773808D01*
X1273739Y774011D01*
X1274122Y774139D01*
X1274479Y774317D01*
X1274810Y774496D01*
X1275091Y774700D01*
X1275116Y774726D01*
X1275142Y774751D01*
X1275218Y774827D01*
X1275320Y774929D01*
X1275524Y775184D01*
X1275779Y775542D01*
X1276060Y775975D01*
X1276264Y776510D01*
X1276442Y777122D01*
X1276468Y777454D01*
X1276493Y777811D01*
Y777938D01*
X1276468Y778040D01*
X1276442Y778321D01*
X1276391Y778653D01*
X1276264Y779010D01*
X1276111Y779418D01*
X1275907Y779826D01*
X1275601Y780234D01*
X1275550Y780284D01*
X1275422Y780412D01*
X1275218Y780591D01*
X1274912Y780794D01*
X1274504Y781049D01*
X1274020Y781279D01*
X1273433Y781509D01*
X1272745Y781712D01*
X1273816Y785181D01*
X1273841D01*
X1273943Y785155D01*
D02*
G37*
G36*
X1279222Y763123D02*
X1267594Y755957D01*
X1279222D01*
Y752668D01*
X1261576D01*
Y756111D01*
X1273459Y763404D01*
X1261576D01*
Y766693D01*
X1279222D01*
Y763123D01*
D02*
G37*
G36*
Y736221D02*
X1261576D01*
Y749302D01*
X1264559D01*
Y739790D01*
X1268461D01*
Y748639D01*
X1271444D01*
Y739790D01*
X1276238D01*
Y749634D01*
X1279222D01*
Y736221D01*
D02*
G37*
G36*
X1279528Y680446D02*
X1267900Y673280D01*
X1279528D01*
Y669991D01*
X1261882D01*
Y673433D01*
X1273765Y680726D01*
X1261882D01*
Y684016D01*
X1279528D01*
Y680446D01*
D02*
G37*
G36*
Y653543D02*
X1261882D01*
Y666625D01*
X1264865D01*
Y657113D01*
X1268767D01*
Y665962D01*
X1271750D01*
Y657113D01*
X1276544D01*
Y666956D01*
X1279528D01*
Y653543D01*
D02*
G37*
G36*
Y574769D02*
X1279502D01*
X1279451D01*
X1279349Y574794D01*
X1279222Y574820D01*
X1279069Y574845D01*
X1278890Y574871D01*
X1278431Y574973D01*
X1277921Y575126D01*
X1277360Y575330D01*
X1276748Y575585D01*
X1276162Y575916D01*
X1276136D01*
X1276085Y575967D01*
X1275983Y576018D01*
X1275881Y576120D01*
X1275703Y576222D01*
X1275524Y576375D01*
X1275295Y576554D01*
X1275040Y576758D01*
X1274734Y576987D01*
X1274428Y577268D01*
X1274071Y577574D01*
X1273688Y577931D01*
X1273306Y578313D01*
X1272872Y578747D01*
X1272413Y579206D01*
X1271929Y579716D01*
X1271903Y579741D01*
X1271827Y579818D01*
X1271725Y579920D01*
X1271572Y580073D01*
X1271419Y580277D01*
X1271215Y580481D01*
X1270756Y580940D01*
X1270271Y581399D01*
X1269787Y581858D01*
X1269583Y582062D01*
X1269353Y582266D01*
X1269175Y582419D01*
X1269022Y582521D01*
X1268971Y582546D01*
X1268843Y582623D01*
X1268639Y582750D01*
X1268359Y582878D01*
X1268053Y583005D01*
X1267696Y583133D01*
X1267339Y583209D01*
X1266956Y583235D01*
X1266931D01*
X1266905D01*
X1266778D01*
X1266548Y583209D01*
X1266293Y583158D01*
X1266013Y583082D01*
X1265732Y582980D01*
X1265452Y582827D01*
X1265197Y582623D01*
X1265171Y582597D01*
X1265095Y582521D01*
X1264993Y582368D01*
X1264891Y582189D01*
X1264789Y581934D01*
X1264687Y581654D01*
X1264610Y581322D01*
X1264585Y580940D01*
Y580761D01*
X1264610Y580557D01*
X1264661Y580328D01*
X1264738Y580047D01*
X1264865Y579767D01*
X1265018Y579486D01*
X1265222Y579231D01*
X1265248Y579206D01*
X1265350Y579129D01*
X1265503Y579027D01*
X1265732Y578925D01*
X1266013Y578798D01*
X1266395Y578696D01*
X1266829Y578594D01*
X1267339Y578543D01*
X1267007Y575177D01*
X1266982D01*
X1266880Y575202D01*
X1266752D01*
X1266548Y575253D01*
X1266319Y575279D01*
X1266064Y575355D01*
X1265783Y575432D01*
X1265452Y575508D01*
X1264814Y575763D01*
X1264151Y576069D01*
X1263820Y576273D01*
X1263514Y576503D01*
X1263259Y576758D01*
X1263004Y577038D01*
X1262978Y577064D01*
X1262953Y577115D01*
X1262902Y577191D01*
X1262800Y577319D01*
X1262723Y577472D01*
X1262621Y577676D01*
X1262494Y577880D01*
X1262392Y578135D01*
X1262264Y578415D01*
X1262162Y578721D01*
X1261958Y579384D01*
X1261831Y580175D01*
X1261805Y580583D01*
X1261780Y581016D01*
Y581271D01*
X1261805Y581450D01*
X1261831Y581679D01*
X1261856Y581934D01*
X1261907Y582215D01*
X1261958Y582521D01*
X1262137Y583184D01*
X1262392Y583847D01*
X1262545Y584204D01*
X1262723Y584510D01*
X1262953Y584841D01*
X1263208Y585122D01*
X1263233Y585147D01*
X1263259Y585198D01*
X1263361Y585249D01*
X1263463Y585351D01*
X1263590Y585479D01*
X1263769Y585606D01*
X1263947Y585734D01*
X1264177Y585887D01*
X1264687Y586142D01*
X1265273Y586397D01*
X1265605Y586499D01*
X1265962Y586550D01*
X1266344Y586601D01*
X1266727Y586626D01*
X1266778D01*
X1266931D01*
X1267160Y586601D01*
X1267441Y586575D01*
X1267798Y586524D01*
X1268180Y586448D01*
X1268588Y586346D01*
X1268996Y586193D01*
X1269047Y586167D01*
X1269175Y586116D01*
X1269404Y586014D01*
X1269685Y585861D01*
X1270016Y585683D01*
X1270399Y585453D01*
X1270807Y585173D01*
X1271240Y584841D01*
X1271266Y584816D01*
X1271393Y584714D01*
X1271572Y584561D01*
X1271827Y584331D01*
X1272133Y584025D01*
X1272541Y583643D01*
X1272974Y583184D01*
X1273510Y582623D01*
X1273535Y582597D01*
X1273561Y582546D01*
X1273637Y582470D01*
X1273739Y582368D01*
X1273994Y582087D01*
X1274300Y581756D01*
X1274632Y581424D01*
X1274963Y581093D01*
X1275244Y580787D01*
X1275371Y580685D01*
X1275473Y580583D01*
X1275499Y580557D01*
X1275550Y580506D01*
X1275652Y580430D01*
X1275779Y580328D01*
X1276060Y580098D01*
X1276391Y579894D01*
Y586626D01*
X1279528D01*
Y574769D01*
D02*
G37*
G36*
Y568623D02*
X1267900Y561458D01*
X1279528D01*
Y558168D01*
X1261882D01*
Y561611D01*
X1273765Y568904D01*
X1261882D01*
Y572193D01*
X1279528D01*
Y568623D01*
D02*
G37*
G36*
Y551181D02*
X1261882D01*
Y554751D01*
X1279528D01*
Y551181D01*
D02*
G37*
G36*
Y482030D02*
X1266752D01*
X1266778Y482004D01*
X1266829Y481953D01*
X1266905Y481851D01*
X1267033Y481698D01*
X1267186Y481520D01*
X1267339Y481316D01*
X1267517Y481061D01*
X1267721Y480780D01*
X1267925Y480474D01*
X1268129Y480143D01*
X1268359Y479786D01*
X1268563Y479403D01*
X1268945Y478587D01*
X1269302Y477669D01*
X1266242D01*
Y477695D01*
X1266217Y477720D01*
X1266191Y477797D01*
X1266166Y477899D01*
X1266038Y478154D01*
X1265885Y478511D01*
X1265681Y478944D01*
X1265401Y479429D01*
X1265044Y479964D01*
X1264636Y480525D01*
X1264610Y480551D01*
X1264585Y480602D01*
X1264508Y480678D01*
X1264406Y480780D01*
X1264151Y481061D01*
X1263820Y481367D01*
X1263412Y481724D01*
X1262902Y482081D01*
X1262366Y482412D01*
X1261780Y482667D01*
Y485421D01*
X1279528D01*
Y482030D01*
D02*
G37*
G36*
Y470198D02*
X1267900Y463032D01*
X1279528D01*
Y459743D01*
X1261882D01*
Y463185D01*
X1273765Y470478D01*
X1261882D01*
Y473768D01*
X1279528D01*
Y470198D01*
D02*
G37*
G36*
Y452756D02*
X1261882D01*
Y456326D01*
X1279528D01*
Y452756D01*
D02*
G37*
G36*
X1274453Y387634D02*
X1274631Y387608D01*
X1274988Y387557D01*
X1275447Y387455D01*
X1275932Y387302D01*
X1276417Y387073D01*
X1276927Y386792D01*
X1276952D01*
X1276977Y386741D01*
X1277130Y386639D01*
X1277386Y386435D01*
X1277666Y386180D01*
X1277997Y385849D01*
X1278303Y385415D01*
X1278610Y384956D01*
X1278890Y384395D01*
Y384370D01*
X1278916Y384319D01*
X1278941Y384242D01*
X1278992Y384115D01*
X1279043Y383962D01*
X1279094Y383783D01*
X1279145Y383579D01*
X1279196Y383350D01*
X1279273Y383069D01*
X1279323Y382789D01*
X1279426Y382126D01*
X1279502Y381386D01*
X1279527Y380570D01*
Y380239D01*
X1279502Y380009D01*
X1279476Y379729D01*
X1279451Y379423D01*
X1279400Y379066D01*
X1279323Y378683D01*
X1279145Y377842D01*
X1279017Y377408D01*
X1278890Y377000D01*
X1278711Y376567D01*
X1278507Y376159D01*
X1278278Y375776D01*
X1277997Y375419D01*
X1277972Y375394D01*
X1277921Y375343D01*
X1277844Y375241D01*
X1277717Y375139D01*
X1277539Y374986D01*
X1277334Y374833D01*
X1277105Y374654D01*
X1276850Y374476D01*
X1276544Y374297D01*
X1276213Y374119D01*
X1275830Y373940D01*
X1275422Y373762D01*
X1274988Y373634D01*
X1274504Y373481D01*
X1273994Y373379D01*
X1273458Y373303D01*
X1273127Y376771D01*
X1273152D01*
X1273204Y376796D01*
X1273305D01*
X1273408Y376822D01*
X1273714Y376924D01*
X1274096Y377051D01*
X1274530Y377204D01*
X1274963Y377434D01*
X1275345Y377689D01*
X1275703Y378020D01*
X1275728Y378071D01*
X1275830Y378199D01*
X1275957Y378403D01*
X1276111Y378709D01*
X1276264Y379091D01*
X1276391Y379525D01*
X1276493Y380035D01*
X1276518Y380621D01*
Y380902D01*
X1276467Y381208D01*
X1276417Y381590D01*
X1276340Y381998D01*
X1276213Y382432D01*
X1276034Y382840D01*
X1275804Y383197D01*
X1275779Y383248D01*
X1275677Y383350D01*
X1275524Y383477D01*
X1275320Y383656D01*
X1275065Y383809D01*
X1274759Y383962D01*
X1274453Y384064D01*
X1274096Y384089D01*
X1274071D01*
X1273994D01*
X1273867Y384064D01*
X1273714Y384038D01*
X1273561Y383987D01*
X1273382Y383936D01*
X1273204Y383834D01*
X1273025Y383707D01*
X1272999Y383681D01*
X1272948Y383630D01*
X1272872Y383554D01*
X1272770Y383426D01*
X1272642Y383248D01*
X1272515Y383018D01*
X1272388Y382763D01*
X1272260Y382432D01*
Y382406D01*
X1272209Y382304D01*
X1272158Y382126D01*
X1272107Y381998D01*
X1272082Y381845D01*
X1272031Y381667D01*
X1271954Y381463D01*
X1271903Y381233D01*
X1271826Y380978D01*
X1271750Y380672D01*
X1271674Y380341D01*
X1271572Y379984D01*
X1271469Y379576D01*
Y379550D01*
X1271444Y379448D01*
X1271393Y379295D01*
X1271342Y379117D01*
X1271265Y378887D01*
X1271189Y378607D01*
X1271087Y378326D01*
X1270985Y377995D01*
X1270730Y377332D01*
X1270424Y376694D01*
X1270271Y376363D01*
X1270092Y376082D01*
X1269914Y375802D01*
X1269736Y375572D01*
X1269710Y375547D01*
X1269659Y375496D01*
X1269582Y375419D01*
X1269480Y375317D01*
X1269328Y375190D01*
X1269149Y375062D01*
X1268970Y374909D01*
X1268741Y374782D01*
X1268206Y374476D01*
X1267593Y374221D01*
X1267262Y374119D01*
X1266930Y374042D01*
X1266548Y373991D01*
X1266166Y373966D01*
X1266140D01*
X1266114D01*
X1266038D01*
X1265936D01*
X1265681Y374017D01*
X1265350Y374068D01*
X1264967Y374144D01*
X1264534Y374272D01*
X1264074Y374450D01*
X1263641Y374705D01*
X1263616D01*
X1263590Y374731D01*
X1263437Y374858D01*
X1263233Y375011D01*
X1262978Y375266D01*
X1262697Y375572D01*
X1262391Y375955D01*
X1262111Y376388D01*
X1261856Y376898D01*
Y376924D01*
X1261831Y376975D01*
X1261805Y377051D01*
X1261754Y377153D01*
X1261703Y377306D01*
X1261652Y377459D01*
X1261601Y377663D01*
X1261524Y377893D01*
X1261422Y378403D01*
X1261321Y378989D01*
X1261244Y379652D01*
X1261218Y380392D01*
Y380698D01*
X1261244Y380927D01*
X1261270Y381208D01*
X1261295Y381539D01*
X1261346Y381871D01*
X1261397Y382253D01*
X1261575Y383069D01*
X1261703Y383477D01*
X1261831Y383885D01*
X1262009Y384293D01*
X1262213Y384676D01*
X1262443Y385033D01*
X1262697Y385364D01*
X1262723Y385390D01*
X1262774Y385441D01*
X1262851Y385517D01*
X1262953Y385619D01*
X1263105Y385747D01*
X1263284Y385900D01*
X1263488Y386053D01*
X1263717Y386231D01*
X1263998Y386384D01*
X1264278Y386537D01*
X1264610Y386690D01*
X1264967Y386818D01*
X1265324Y386945D01*
X1265732Y387047D01*
X1266140Y387124D01*
X1266599Y387149D01*
X1266726Y383579D01*
X1266701D01*
X1266676D01*
X1266497Y383528D01*
X1266267Y383477D01*
X1265987Y383375D01*
X1265656Y383248D01*
X1265350Y383069D01*
X1265043Y382840D01*
X1264789Y382585D01*
X1264763Y382559D01*
X1264687Y382457D01*
X1264584Y382279D01*
X1264483Y382024D01*
X1264380Y381718D01*
X1264278Y381335D01*
X1264202Y380876D01*
X1264177Y380341D01*
Y380086D01*
X1264202Y379805D01*
X1264253Y379474D01*
X1264330Y379091D01*
X1264457Y378683D01*
X1264610Y378301D01*
X1264840Y377944D01*
X1264865Y377918D01*
X1264916Y377867D01*
X1264993Y377765D01*
X1265120Y377663D01*
X1265273Y377561D01*
X1265477Y377459D01*
X1265681Y377408D01*
X1265936Y377383D01*
X1265961D01*
X1266038D01*
X1266166Y377408D01*
X1266293Y377459D01*
X1266472Y377510D01*
X1266650Y377587D01*
X1266829Y377714D01*
X1267007Y377893D01*
X1267033Y377918D01*
X1267109Y378046D01*
X1267160Y378122D01*
X1267211Y378250D01*
X1267287Y378377D01*
X1267364Y378556D01*
X1267440Y378760D01*
X1267543Y378989D01*
X1267645Y379270D01*
X1267746Y379550D01*
X1267849Y379907D01*
X1267950Y380290D01*
X1268053Y380698D01*
X1268180Y381157D01*
Y381182D01*
X1268206Y381284D01*
X1268231Y381412D01*
X1268282Y381590D01*
X1268333Y381794D01*
X1268409Y382049D01*
X1268486Y382330D01*
X1268562Y382610D01*
X1268766Y383222D01*
X1268970Y383860D01*
X1269200Y384472D01*
X1269328Y384727D01*
X1269455Y384982D01*
Y385007D01*
X1269480Y385033D01*
X1269582Y385186D01*
X1269736Y385415D01*
X1269939Y385696D01*
X1270195Y386002D01*
X1270501Y386333D01*
X1270858Y386665D01*
X1271265Y386945D01*
X1271316Y386971D01*
X1271469Y387047D01*
X1271699Y387175D01*
X1272031Y387302D01*
X1272438Y387430D01*
X1272923Y387557D01*
X1273458Y387634D01*
X1274071Y387659D01*
X1274096D01*
X1274147D01*
X1274224D01*
X1274325D01*
X1274453Y387634D01*
D02*
G37*
G36*
X1270806Y371416D02*
X1271112D01*
X1271469Y371365D01*
X1271878Y371314D01*
X1272362Y371237D01*
X1272847Y371161D01*
X1273382Y371033D01*
X1273943Y370880D01*
X1274504Y370676D01*
X1275065Y370447D01*
X1275601Y370192D01*
X1276136Y369860D01*
X1276646Y369503D01*
X1277130Y369095D01*
X1277156Y369070D01*
X1277233Y368993D01*
X1277360Y368866D01*
X1277513Y368662D01*
X1277691Y368432D01*
X1277896Y368152D01*
X1278100Y367820D01*
X1278329Y367463D01*
X1278559Y367030D01*
X1278763Y366571D01*
X1278966Y366061D01*
X1279145Y365500D01*
X1279298Y364913D01*
X1279426Y364276D01*
X1279502Y363613D01*
X1279527Y362899D01*
Y362720D01*
X1279502Y362516D01*
X1279476Y362261D01*
X1279451Y361930D01*
X1279400Y361547D01*
X1279323Y361114D01*
X1279222Y360655D01*
X1279094Y360145D01*
X1278941Y359660D01*
X1278737Y359125D01*
X1278507Y358615D01*
X1278253Y358079D01*
X1277921Y357595D01*
X1277564Y357110D01*
X1277130Y356651D01*
X1277105Y356626D01*
X1277028Y356549D01*
X1276876Y356447D01*
X1276697Y356294D01*
X1276442Y356116D01*
X1276136Y355912D01*
X1275804Y355708D01*
X1275397Y355504D01*
X1274963Y355274D01*
X1274453Y355070D01*
X1273918Y354866D01*
X1273331Y354688D01*
X1272694Y354535D01*
X1272005Y354433D01*
X1271265Y354356D01*
X1270501Y354331D01*
X1270475D01*
X1270373D01*
X1270245D01*
X1270042Y354356D01*
X1269812D01*
X1269557Y354382D01*
X1269251Y354407D01*
X1268919Y354433D01*
X1268206Y354535D01*
X1267440Y354662D01*
X1266676Y354866D01*
X1265961Y355121D01*
X1265936D01*
X1265910Y355147D01*
X1265834Y355198D01*
X1265732Y355223D01*
X1265477Y355376D01*
X1265146Y355555D01*
X1264763Y355784D01*
X1264380Y356065D01*
X1263947Y356396D01*
X1263539Y356753D01*
X1263514Y356779D01*
X1263488Y356804D01*
X1263361Y356932D01*
X1263157Y357161D01*
X1262927Y357442D01*
X1262672Y357773D01*
X1262391Y358156D01*
X1262137Y358589D01*
X1261932Y359048D01*
Y359074D01*
X1261907Y359125D01*
X1261856Y359227D01*
X1261831Y359354D01*
X1261754Y359507D01*
X1261703Y359686D01*
X1261652Y359915D01*
X1261575Y360145D01*
X1261448Y360706D01*
X1261321Y361343D01*
X1261244Y362083D01*
X1261218Y362848D01*
Y363026D01*
X1261244Y363230D01*
Y363485D01*
X1261295Y363817D01*
X1261346Y364199D01*
X1261422Y364633D01*
X1261524Y365092D01*
X1261652Y365576D01*
X1261805Y366086D01*
X1262009Y366596D01*
X1262238Y367132D01*
X1262519Y367642D01*
X1262851Y368152D01*
X1263233Y368636D01*
X1263667Y369095D01*
X1263692Y369121D01*
X1263768Y369197D01*
X1263921Y369325D01*
X1264100Y369452D01*
X1264355Y369631D01*
X1264661Y369835D01*
X1265018Y370039D01*
X1265426Y370268D01*
X1265860Y370498D01*
X1266370Y370702D01*
X1266930Y370906D01*
X1267517Y371084D01*
X1268180Y371237D01*
X1268869Y371339D01*
X1269608Y371416D01*
X1270399Y371441D01*
X1270449D01*
X1270577D01*
X1270806Y371416D01*
D02*
G37*
G36*
X1279196Y283298D02*
X1261678D01*
Y286868D01*
X1276213D01*
Y295742D01*
X1279196D01*
Y283298D01*
D02*
G37*
G36*
X1273918Y280110D02*
X1274071Y280059D01*
X1274274Y279983D01*
X1274504Y279881D01*
X1274784Y279779D01*
X1275091Y279651D01*
X1275422Y279498D01*
X1276111Y279141D01*
X1276824Y278682D01*
X1277513Y278121D01*
X1277819Y277815D01*
X1278100Y277484D01*
X1278125Y277458D01*
X1278150Y277407D01*
X1278227Y277305D01*
X1278329Y277152D01*
X1278431Y276974D01*
X1278533Y276744D01*
X1278660Y276489D01*
X1278788Y276209D01*
X1278941Y275877D01*
X1279069Y275520D01*
X1279170Y275138D01*
X1279273Y274730D01*
X1279374Y274296D01*
X1279451Y273812D01*
X1279476Y273327D01*
X1279502Y272792D01*
Y272639D01*
X1279476Y272460D01*
X1279451Y272205D01*
X1279426Y271925D01*
X1279374Y271568D01*
X1279298Y271185D01*
X1279196Y270752D01*
X1279069Y270318D01*
X1278916Y269859D01*
X1278711Y269375D01*
X1278482Y268890D01*
X1278227Y268406D01*
X1277896Y267921D01*
X1277539Y267462D01*
X1277105Y267029D01*
X1277080Y267003D01*
X1277003Y266927D01*
X1276850Y266825D01*
X1276671Y266672D01*
X1276417Y266519D01*
X1276136Y266315D01*
X1275779Y266111D01*
X1275371Y265907D01*
X1274938Y265703D01*
X1274453Y265499D01*
X1273892Y265295D01*
X1273305Y265142D01*
X1272694Y264989D01*
X1272005Y264887D01*
X1271291Y264810D01*
X1270526Y264785D01*
X1270501D01*
X1270475D01*
X1270322D01*
X1270092Y264810D01*
X1269786D01*
X1269429Y264861D01*
X1268996Y264912D01*
X1268537Y264963D01*
X1268002Y265065D01*
X1267466Y265193D01*
X1266905Y265346D01*
X1266344Y265524D01*
X1265757Y265754D01*
X1265197Y266009D01*
X1264661Y266315D01*
X1264151Y266646D01*
X1263667Y267054D01*
X1263641Y267080D01*
X1263564Y267156D01*
X1263437Y267284D01*
X1263284Y267462D01*
X1263105Y267692D01*
X1262901Y267972D01*
X1262672Y268278D01*
X1262443Y268661D01*
X1262213Y269069D01*
X1261984Y269502D01*
X1261780Y270012D01*
X1261601Y270522D01*
X1261448Y271109D01*
X1261321Y271695D01*
X1261244Y272358D01*
X1261218Y273021D01*
Y273327D01*
X1261244Y273557D01*
X1261270Y273837D01*
X1261321Y274143D01*
X1261371Y274500D01*
X1261448Y274883D01*
X1261550Y275291D01*
X1261678Y275724D01*
X1261831Y276158D01*
X1262034Y276617D01*
X1262238Y277050D01*
X1262494Y277458D01*
X1262800Y277892D01*
X1263131Y278274D01*
Y278300D01*
X1263182Y278325D01*
X1263258Y278402D01*
X1263335Y278478D01*
X1263463Y278580D01*
X1263616Y278682D01*
X1263973Y278963D01*
X1264431Y279243D01*
X1264993Y279549D01*
X1265630Y279830D01*
X1266370Y280085D01*
X1267211Y276566D01*
X1267186D01*
X1267160Y276540D01*
X1267083D01*
X1266982Y276489D01*
X1266752Y276413D01*
X1266446Y276285D01*
X1266089Y276107D01*
X1265732Y275877D01*
X1265375Y275571D01*
X1265069Y275240D01*
X1265043Y275189D01*
X1264941Y275061D01*
X1264814Y274857D01*
X1264661Y274577D01*
X1264508Y274220D01*
X1264380Y273812D01*
X1264278Y273353D01*
X1264253Y272843D01*
Y272664D01*
X1264278Y272511D01*
X1264304Y272358D01*
X1264330Y272154D01*
X1264431Y271721D01*
X1264610Y271211D01*
X1264865Y270675D01*
X1265018Y270395D01*
X1265197Y270140D01*
X1265426Y269885D01*
X1265681Y269655D01*
X1265707D01*
X1265757Y269604D01*
X1265834Y269553D01*
X1265961Y269477D01*
X1266114Y269375D01*
X1266293Y269273D01*
X1266523Y269171D01*
X1266777Y269069D01*
X1267083Y268941D01*
X1267415Y268839D01*
X1267797Y268737D01*
X1268206Y268635D01*
X1268665Y268559D01*
X1269149Y268508D01*
X1269685Y268482D01*
X1270271Y268457D01*
X1270296D01*
X1270424D01*
X1270602D01*
X1270806Y268482D01*
X1271087D01*
X1271418Y268533D01*
X1271750Y268559D01*
X1272132Y268610D01*
X1272923Y268763D01*
X1273714Y268967D01*
X1274096Y269094D01*
X1274453Y269273D01*
X1274784Y269451D01*
X1275065Y269655D01*
X1275091Y269681D01*
X1275116Y269706D01*
X1275193Y269783D01*
X1275294Y269885D01*
X1275498Y270140D01*
X1275754Y270497D01*
X1276034Y270930D01*
X1276238Y271466D01*
X1276417Y272078D01*
X1276442Y272409D01*
X1276467Y272766D01*
Y272894D01*
X1276442Y272996D01*
X1276417Y273276D01*
X1276366Y273608D01*
X1276238Y273965D01*
X1276085Y274373D01*
X1275881Y274781D01*
X1275575Y275189D01*
X1275524Y275240D01*
X1275397Y275367D01*
X1275193Y275546D01*
X1274887Y275750D01*
X1274478Y276005D01*
X1273994Y276234D01*
X1273408Y276464D01*
X1272719Y276668D01*
X1273790Y280136D01*
X1273815D01*
X1273918Y280110D01*
D02*
G37*
G36*
X1274453Y262362D02*
X1274631Y262337D01*
X1274988Y262286D01*
X1275447Y262184D01*
X1275932Y262031D01*
X1276417Y261801D01*
X1276927Y261521D01*
X1276952D01*
X1276977Y261470D01*
X1277130Y261368D01*
X1277386Y261164D01*
X1277666Y260909D01*
X1277997Y260577D01*
X1278303Y260144D01*
X1278610Y259685D01*
X1278890Y259124D01*
Y259098D01*
X1278916Y259047D01*
X1278941Y258971D01*
X1278992Y258843D01*
X1279043Y258690D01*
X1279094Y258512D01*
X1279145Y258308D01*
X1279196Y258078D01*
X1279273Y257798D01*
X1279323Y257517D01*
X1279426Y256854D01*
X1279502Y256115D01*
X1279527Y255299D01*
Y254967D01*
X1279502Y254738D01*
X1279476Y254457D01*
X1279451Y254151D01*
X1279400Y253794D01*
X1279323Y253412D01*
X1279145Y252570D01*
X1279017Y252137D01*
X1278890Y251729D01*
X1278711Y251295D01*
X1278507Y250887D01*
X1278278Y250505D01*
X1277997Y250148D01*
X1277972Y250122D01*
X1277921Y250071D01*
X1277844Y249969D01*
X1277717Y249867D01*
X1277539Y249714D01*
X1277334Y249561D01*
X1277105Y249383D01*
X1276850Y249204D01*
X1276544Y249026D01*
X1276213Y248847D01*
X1275830Y248669D01*
X1275422Y248490D01*
X1274988Y248363D01*
X1274504Y248210D01*
X1273994Y248108D01*
X1273458Y248031D01*
X1273127Y251499D01*
X1273152D01*
X1273204Y251525D01*
X1273305D01*
X1273408Y251550D01*
X1273714Y251652D01*
X1274096Y251780D01*
X1274530Y251933D01*
X1274963Y252162D01*
X1275345Y252417D01*
X1275703Y252749D01*
X1275728Y252800D01*
X1275830Y252927D01*
X1275957Y253131D01*
X1276111Y253437D01*
X1276264Y253820D01*
X1276391Y254253D01*
X1276493Y254763D01*
X1276518Y255350D01*
Y255630D01*
X1276467Y255936D01*
X1276417Y256319D01*
X1276340Y256727D01*
X1276213Y257160D01*
X1276034Y257568D01*
X1275804Y257925D01*
X1275779Y257976D01*
X1275677Y258078D01*
X1275524Y258206D01*
X1275320Y258384D01*
X1275065Y258537D01*
X1274759Y258690D01*
X1274453Y258792D01*
X1274096Y258818D01*
X1274071D01*
X1273994D01*
X1273867Y258792D01*
X1273714Y258767D01*
X1273561Y258716D01*
X1273382Y258665D01*
X1273204Y258563D01*
X1273025Y258435D01*
X1272999Y258410D01*
X1272948Y258359D01*
X1272872Y258282D01*
X1272770Y258155D01*
X1272642Y257976D01*
X1272515Y257747D01*
X1272388Y257492D01*
X1272260Y257160D01*
Y257135D01*
X1272209Y257033D01*
X1272158Y256854D01*
X1272107Y256727D01*
X1272082Y256574D01*
X1272031Y256395D01*
X1271954Y256191D01*
X1271903Y255962D01*
X1271826Y255707D01*
X1271750Y255401D01*
X1271674Y255069D01*
X1271572Y254712D01*
X1271469Y254304D01*
Y254279D01*
X1271444Y254177D01*
X1271393Y254024D01*
X1271342Y253845D01*
X1271265Y253616D01*
X1271189Y253335D01*
X1271087Y253055D01*
X1270985Y252723D01*
X1270730Y252060D01*
X1270424Y251423D01*
X1270271Y251091D01*
X1270092Y250811D01*
X1269914Y250530D01*
X1269736Y250301D01*
X1269710Y250275D01*
X1269659Y250224D01*
X1269582Y250148D01*
X1269480Y250046D01*
X1269328Y249918D01*
X1269149Y249791D01*
X1268970Y249638D01*
X1268741Y249510D01*
X1268206Y249204D01*
X1267593Y248949D01*
X1267262Y248847D01*
X1266930Y248771D01*
X1266548Y248720D01*
X1266166Y248694D01*
X1266140D01*
X1266114D01*
X1266038D01*
X1265936D01*
X1265681Y248745D01*
X1265350Y248796D01*
X1264967Y248873D01*
X1264534Y249000D01*
X1264074Y249179D01*
X1263641Y249434D01*
X1263616D01*
X1263590Y249459D01*
X1263437Y249587D01*
X1263233Y249740D01*
X1262978Y249995D01*
X1262697Y250301D01*
X1262391Y250683D01*
X1262111Y251117D01*
X1261856Y251627D01*
Y251652D01*
X1261831Y251703D01*
X1261805Y251780D01*
X1261754Y251882D01*
X1261703Y252035D01*
X1261652Y252188D01*
X1261601Y252392D01*
X1261524Y252621D01*
X1261422Y253131D01*
X1261321Y253718D01*
X1261244Y254381D01*
X1261218Y255120D01*
Y255426D01*
X1261244Y255656D01*
X1261270Y255936D01*
X1261295Y256268D01*
X1261346Y256599D01*
X1261397Y256982D01*
X1261575Y257798D01*
X1261703Y258206D01*
X1261831Y258614D01*
X1262009Y259022D01*
X1262213Y259404D01*
X1262443Y259761D01*
X1262697Y260093D01*
X1262723Y260118D01*
X1262774Y260169D01*
X1262851Y260246D01*
X1262953Y260348D01*
X1263105Y260475D01*
X1263284Y260628D01*
X1263488Y260781D01*
X1263717Y260960D01*
X1263998Y261113D01*
X1264278Y261266D01*
X1264610Y261419D01*
X1264967Y261546D01*
X1265324Y261674D01*
X1265732Y261776D01*
X1266140Y261852D01*
X1266599Y261878D01*
X1266726Y258308D01*
X1266701D01*
X1266676D01*
X1266497Y258257D01*
X1266267Y258206D01*
X1265987Y258104D01*
X1265656Y257976D01*
X1265350Y257798D01*
X1265043Y257568D01*
X1264789Y257313D01*
X1264763Y257288D01*
X1264687Y257186D01*
X1264584Y257007D01*
X1264483Y256752D01*
X1264380Y256446D01*
X1264278Y256064D01*
X1264202Y255605D01*
X1264177Y255069D01*
Y254814D01*
X1264202Y254534D01*
X1264253Y254202D01*
X1264330Y253820D01*
X1264457Y253412D01*
X1264610Y253029D01*
X1264840Y252672D01*
X1264865Y252647D01*
X1264916Y252596D01*
X1264993Y252494D01*
X1265120Y252392D01*
X1265273Y252290D01*
X1265477Y252188D01*
X1265681Y252137D01*
X1265936Y252111D01*
X1265961D01*
X1266038D01*
X1266166Y252137D01*
X1266293Y252188D01*
X1266472Y252239D01*
X1266650Y252315D01*
X1266829Y252443D01*
X1267007Y252621D01*
X1267033Y252647D01*
X1267109Y252774D01*
X1267160Y252851D01*
X1267211Y252978D01*
X1267287Y253106D01*
X1267364Y253284D01*
X1267440Y253488D01*
X1267543Y253718D01*
X1267645Y253998D01*
X1267746Y254279D01*
X1267849Y254636D01*
X1267950Y255018D01*
X1268053Y255426D01*
X1268180Y255885D01*
Y255911D01*
X1268206Y256013D01*
X1268231Y256140D01*
X1268282Y256319D01*
X1268333Y256523D01*
X1268409Y256778D01*
X1268486Y257058D01*
X1268562Y257339D01*
X1268766Y257951D01*
X1268970Y258588D01*
X1269200Y259200D01*
X1269328Y259455D01*
X1269455Y259710D01*
Y259736D01*
X1269480Y259761D01*
X1269582Y259914D01*
X1269736Y260144D01*
X1269939Y260424D01*
X1270195Y260730D01*
X1270501Y261062D01*
X1270858Y261393D01*
X1271265Y261674D01*
X1271316Y261699D01*
X1271469Y261776D01*
X1271699Y261903D01*
X1272031Y262031D01*
X1272438Y262158D01*
X1272923Y262286D01*
X1273458Y262362D01*
X1274071Y262388D01*
X1274096D01*
X1274147D01*
X1274224D01*
X1274325D01*
X1274453Y262362D01*
D02*
G37*
G36*
X1279196Y200769D02*
X1275193Y199239D01*
Y192150D01*
X1279196Y190697D01*
Y186923D01*
X1261550Y193757D01*
Y197531D01*
X1279196Y204620D01*
Y200769D01*
D02*
G37*
G36*
X1271113Y185673D02*
X1271317D01*
X1271572Y185648D01*
X1271852Y185622D01*
X1272439Y185571D01*
X1273051Y185469D01*
X1273688Y185316D01*
X1274300Y185138D01*
X1274326D01*
X1274377Y185112D01*
X1274479Y185061D01*
X1274632Y185010D01*
X1274785Y184959D01*
X1274963Y184857D01*
X1275422Y184653D01*
X1275907Y184398D01*
X1276442Y184067D01*
X1276952Y183684D01*
X1277437Y183251D01*
X1277488Y183200D01*
X1277590Y183072D01*
X1277743Y182868D01*
X1277947Y182588D01*
X1278176Y182231D01*
X1278406Y181823D01*
X1278635Y181313D01*
X1278839Y180752D01*
Y180726D01*
X1278865Y180701D01*
Y180624D01*
X1278890Y180548D01*
X1278941Y180267D01*
X1279018Y179910D01*
X1279094Y179477D01*
X1279145Y178941D01*
X1279171Y178304D01*
X1279196Y177615D01*
Y170934D01*
X1261550D01*
Y177972D01*
X1261576Y178176D01*
X1261601Y178661D01*
X1261627Y179196D01*
X1261703Y179757D01*
X1261780Y180293D01*
X1261907Y180777D01*
Y180803D01*
X1261933Y180854D01*
X1261958Y180930D01*
X1261984Y181032D01*
X1262111Y181338D01*
X1262290Y181695D01*
X1262519Y182103D01*
X1262800Y182562D01*
X1263131Y182996D01*
X1263539Y183429D01*
Y183455D01*
X1263590Y183480D01*
X1263743Y183608D01*
X1263998Y183812D01*
X1264330Y184041D01*
X1264738Y184322D01*
X1265222Y184602D01*
X1265783Y184883D01*
X1266395Y185112D01*
X1266421D01*
X1266472Y185138D01*
X1266574Y185163D01*
X1266701Y185214D01*
X1266854Y185240D01*
X1267058Y185291D01*
X1267288Y185342D01*
X1267543Y185418D01*
X1267823Y185469D01*
X1268155Y185520D01*
X1268486Y185571D01*
X1268869Y185597D01*
X1269659Y185673D01*
X1270552Y185699D01*
X1270577D01*
X1270654D01*
X1270756D01*
X1270909D01*
X1271113Y185673D01*
D02*
G37*
G36*
X1274453Y167874D02*
X1274632Y167849D01*
X1274989Y167798D01*
X1275448Y167696D01*
X1275932Y167543D01*
X1276417Y167313D01*
X1276927Y167033D01*
X1276952D01*
X1276978Y166982D01*
X1277131Y166880D01*
X1277386Y166676D01*
X1277666Y166421D01*
X1277998Y166089D01*
X1278304Y165656D01*
X1278610Y165197D01*
X1278890Y164636D01*
Y164610D01*
X1278916Y164559D01*
X1278941Y164483D01*
X1278992Y164355D01*
X1279043Y164202D01*
X1279094Y164024D01*
X1279145Y163820D01*
X1279196Y163590D01*
X1279273Y163310D01*
X1279324Y163029D01*
X1279426Y162366D01*
X1279502Y161627D01*
X1279528Y160811D01*
Y160479D01*
X1279502Y160250D01*
X1279477Y159969D01*
X1279451Y159663D01*
X1279400Y159306D01*
X1279324Y158924D01*
X1279145Y158082D01*
X1279018Y157649D01*
X1278890Y157241D01*
X1278712Y156807D01*
X1278508Y156399D01*
X1278278Y156017D01*
X1277998Y155660D01*
X1277972Y155634D01*
X1277921Y155583D01*
X1277845Y155481D01*
X1277717Y155379D01*
X1277539Y155226D01*
X1277335Y155073D01*
X1277105Y154895D01*
X1276850Y154716D01*
X1276544Y154538D01*
X1276213Y154359D01*
X1275830Y154181D01*
X1275422Y154002D01*
X1274989Y153875D01*
X1274504Y153722D01*
X1273994Y153620D01*
X1273459Y153543D01*
X1273127Y157011D01*
X1273153D01*
X1273204Y157037D01*
X1273306D01*
X1273408Y157062D01*
X1273714Y157164D01*
X1274096Y157292D01*
X1274530Y157445D01*
X1274963Y157674D01*
X1275346Y157929D01*
X1275703Y158261D01*
X1275728Y158312D01*
X1275830Y158439D01*
X1275958Y158643D01*
X1276111Y158949D01*
X1276264Y159332D01*
X1276391Y159765D01*
X1276493Y160275D01*
X1276519Y160862D01*
Y161142D01*
X1276468Y161448D01*
X1276417Y161831D01*
X1276340Y162239D01*
X1276213Y162672D01*
X1276034Y163080D01*
X1275805Y163437D01*
X1275779Y163488D01*
X1275677Y163590D01*
X1275524Y163718D01*
X1275320Y163896D01*
X1275065Y164049D01*
X1274759Y164202D01*
X1274453Y164304D01*
X1274096Y164330D01*
X1274071D01*
X1273994D01*
X1273867Y164304D01*
X1273714Y164279D01*
X1273561Y164228D01*
X1273382Y164177D01*
X1273204Y164075D01*
X1273025Y163947D01*
X1273000Y163922D01*
X1272949Y163871D01*
X1272872Y163794D01*
X1272770Y163667D01*
X1272643Y163488D01*
X1272515Y163259D01*
X1272388Y163004D01*
X1272260Y162672D01*
Y162647D01*
X1272209Y162545D01*
X1272158Y162366D01*
X1272107Y162239D01*
X1272082Y162086D01*
X1272031Y161907D01*
X1271954Y161703D01*
X1271903Y161474D01*
X1271827Y161219D01*
X1271750Y160913D01*
X1271674Y160581D01*
X1271572Y160224D01*
X1271470Y159816D01*
Y159791D01*
X1271444Y159689D01*
X1271393Y159536D01*
X1271342Y159357D01*
X1271266Y159128D01*
X1271189Y158847D01*
X1271087Y158567D01*
X1270985Y158235D01*
X1270730Y157572D01*
X1270424Y156935D01*
X1270271Y156603D01*
X1270093Y156323D01*
X1269914Y156042D01*
X1269736Y155813D01*
X1269710Y155787D01*
X1269659Y155736D01*
X1269583Y155660D01*
X1269481Y155558D01*
X1269328Y155430D01*
X1269149Y155303D01*
X1268971Y155150D01*
X1268741Y155022D01*
X1268206Y154716D01*
X1267594Y154461D01*
X1267262Y154359D01*
X1266931Y154283D01*
X1266548Y154232D01*
X1266166Y154206D01*
X1266140D01*
X1266115D01*
X1266038D01*
X1265936D01*
X1265681Y154257D01*
X1265350Y154308D01*
X1264967Y154385D01*
X1264534Y154512D01*
X1264075Y154691D01*
X1263641Y154946D01*
X1263616D01*
X1263590Y154971D01*
X1263437Y155099D01*
X1263233Y155252D01*
X1262978Y155507D01*
X1262698Y155813D01*
X1262392Y156195D01*
X1262111Y156629D01*
X1261856Y157139D01*
Y157164D01*
X1261831Y157215D01*
X1261805Y157292D01*
X1261754Y157394D01*
X1261703Y157547D01*
X1261652Y157700D01*
X1261601Y157904D01*
X1261525Y158133D01*
X1261423Y158643D01*
X1261321Y159230D01*
X1261244Y159893D01*
X1261219Y160632D01*
Y160938D01*
X1261244Y161168D01*
X1261270Y161448D01*
X1261295Y161780D01*
X1261346Y162111D01*
X1261397Y162494D01*
X1261576Y163310D01*
X1261703Y163718D01*
X1261831Y164126D01*
X1262009Y164534D01*
X1262213Y164916D01*
X1262443Y165273D01*
X1262698Y165605D01*
X1262723Y165630D01*
X1262774Y165681D01*
X1262851Y165758D01*
X1262953Y165860D01*
X1263106Y165987D01*
X1263284Y166140D01*
X1263488Y166293D01*
X1263718Y166472D01*
X1263998Y166625D01*
X1264279Y166778D01*
X1264610Y166931D01*
X1264967Y167058D01*
X1265324Y167186D01*
X1265732Y167288D01*
X1266140Y167364D01*
X1266599Y167390D01*
X1266727Y163820D01*
X1266701D01*
X1266676D01*
X1266497Y163769D01*
X1266268Y163718D01*
X1265987Y163616D01*
X1265656Y163488D01*
X1265350Y163310D01*
X1265044Y163080D01*
X1264789Y162825D01*
X1264763Y162800D01*
X1264687Y162698D01*
X1264585Y162519D01*
X1264483Y162264D01*
X1264381Y161958D01*
X1264279Y161576D01*
X1264202Y161117D01*
X1264177Y160581D01*
Y160326D01*
X1264202Y160046D01*
X1264253Y159714D01*
X1264330Y159332D01*
X1264457Y158924D01*
X1264610Y158541D01*
X1264840Y158184D01*
X1264865Y158159D01*
X1264916Y158108D01*
X1264993Y158006D01*
X1265120Y157904D01*
X1265273Y157802D01*
X1265477Y157700D01*
X1265681Y157649D01*
X1265936Y157623D01*
X1265962D01*
X1266038D01*
X1266166Y157649D01*
X1266293Y157700D01*
X1266472Y157751D01*
X1266650Y157827D01*
X1266829Y157955D01*
X1267007Y158133D01*
X1267033Y158159D01*
X1267109Y158286D01*
X1267160Y158363D01*
X1267211Y158490D01*
X1267288Y158618D01*
X1267364Y158796D01*
X1267441Y159000D01*
X1267543Y159230D01*
X1267645Y159510D01*
X1267747Y159791D01*
X1267849Y160148D01*
X1267951Y160530D01*
X1268053Y160938D01*
X1268180Y161397D01*
Y161423D01*
X1268206Y161525D01*
X1268231Y161652D01*
X1268282Y161831D01*
X1268333Y162035D01*
X1268410Y162290D01*
X1268486Y162570D01*
X1268563Y162851D01*
X1268767Y163463D01*
X1268971Y164100D01*
X1269200Y164712D01*
X1269328Y164967D01*
X1269455Y165222D01*
Y165248D01*
X1269481Y165273D01*
X1269583Y165426D01*
X1269736Y165656D01*
X1269940Y165936D01*
X1270195Y166242D01*
X1270501Y166574D01*
X1270858Y166905D01*
X1271266Y167186D01*
X1271317Y167211D01*
X1271470Y167288D01*
X1271699Y167415D01*
X1272031Y167543D01*
X1272439Y167670D01*
X1272923Y167798D01*
X1273459Y167874D01*
X1274071Y167900D01*
X1274096D01*
X1274147D01*
X1274224D01*
X1274326D01*
X1274453Y167874D01*
D02*
G37*
G36*
X79245Y109662D02*
X11811D01*
Y208661D01*
X79245D01*
Y109662D01*
D02*
G37*
G36*
X1274453Y1130611D02*
X1274631Y1130585D01*
X1274988Y1130534D01*
X1275447Y1130432D01*
X1275932Y1130279D01*
X1276417Y1130050D01*
X1276927Y1129769D01*
X1276952D01*
X1276977Y1129718D01*
X1277130Y1129616D01*
X1277386Y1129412D01*
X1277666Y1129157D01*
X1277997Y1128826D01*
X1278303Y1128392D01*
X1278610Y1127933D01*
X1278890Y1127372D01*
Y1127347D01*
X1278916Y1127296D01*
X1278941Y1127219D01*
X1278992Y1127092D01*
X1279043Y1126939D01*
X1279094Y1126760D01*
X1279145Y1126556D01*
X1279196Y1126327D01*
X1279273Y1126046D01*
X1279323Y1125766D01*
X1279426Y1125103D01*
X1279502Y1124363D01*
X1279527Y1123547D01*
Y1123216D01*
X1279502Y1122986D01*
X1279476Y1122706D01*
X1279451Y1122400D01*
X1279400Y1122043D01*
X1279323Y1121660D01*
X1279145Y1120819D01*
X1279017Y1120385D01*
X1278890Y1119977D01*
X1278711Y1119544D01*
X1278507Y1119136D01*
X1278278Y1118753D01*
X1277997Y1118396D01*
X1277972Y1118371D01*
X1277921Y1118320D01*
X1277844Y1118218D01*
X1277717Y1118116D01*
X1277539Y1117963D01*
X1277334Y1117810D01*
X1277105Y1117631D01*
X1276850Y1117453D01*
X1276544Y1117274D01*
X1276213Y1117096D01*
X1275830Y1116917D01*
X1275422Y1116739D01*
X1274988Y1116611D01*
X1274504Y1116458D01*
X1273994Y1116356D01*
X1273458Y1116280D01*
X1273127Y1119748D01*
X1273152D01*
X1273204Y1119773D01*
X1273305D01*
X1273408Y1119799D01*
X1273714Y1119901D01*
X1274096Y1120028D01*
X1274530Y1120181D01*
X1274963Y1120411D01*
X1275345Y1120666D01*
X1275703Y1120997D01*
X1275728Y1121048D01*
X1275830Y1121176D01*
X1275957Y1121380D01*
X1276111Y1121686D01*
X1276264Y1122068D01*
X1276391Y1122502D01*
X1276493Y1123012D01*
X1276518Y1123598D01*
Y1123879D01*
X1276467Y1124185D01*
X1276417Y1124567D01*
X1276340Y1124975D01*
X1276213Y1125409D01*
X1276034Y1125817D01*
X1275804Y1126174D01*
X1275779Y1126225D01*
X1275677Y1126327D01*
X1275524Y1126454D01*
X1275320Y1126633D01*
X1275065Y1126786D01*
X1274759Y1126939D01*
X1274453Y1127041D01*
X1274096Y1127066D01*
X1274071D01*
X1273994D01*
X1273867Y1127041D01*
X1273714Y1127015D01*
X1273561Y1126964D01*
X1273382Y1126913D01*
X1273204Y1126811D01*
X1273025Y1126684D01*
X1272999Y1126658D01*
X1272948Y1126607D01*
X1272872Y1126531D01*
X1272770Y1126403D01*
X1272642Y1126225D01*
X1272515Y1125995D01*
X1272388Y1125740D01*
X1272260Y1125409D01*
Y1125383D01*
X1272209Y1125281D01*
X1272158Y1125103D01*
X1272107Y1124975D01*
X1272082Y1124822D01*
X1272031Y1124644D01*
X1271954Y1124440D01*
X1271903Y1124210D01*
X1271826Y1123955D01*
X1271750Y1123649D01*
X1271674Y1123318D01*
X1271572Y1122961D01*
X1271469Y1122553D01*
Y1122527D01*
X1271444Y1122425D01*
X1271393Y1122272D01*
X1271342Y1122094D01*
X1271265Y1121864D01*
X1271189Y1121584D01*
X1271087Y1121303D01*
X1270985Y1120972D01*
X1270730Y1120309D01*
X1270424Y1119671D01*
X1270271Y1119340D01*
X1270092Y1119059D01*
X1269914Y1118779D01*
X1269736Y1118549D01*
X1269710Y1118524D01*
X1269659Y1118473D01*
X1269582Y1118396D01*
X1269480Y1118294D01*
X1269328Y1118167D01*
X1269149Y1118039D01*
X1268970Y1117886D01*
X1268741Y1117759D01*
X1268206Y1117453D01*
X1267593Y1117198D01*
X1267262Y1117096D01*
X1266930Y1117019D01*
X1266548Y1116968D01*
X1266166Y1116943D01*
X1266140D01*
X1266114D01*
X1266038D01*
X1265936D01*
X1265681Y1116994D01*
X1265350Y1117045D01*
X1264967Y1117121D01*
X1264534Y1117249D01*
X1264074Y1117427D01*
X1263641Y1117682D01*
X1263616D01*
X1263590Y1117708D01*
X1263437Y1117835D01*
X1263233Y1117988D01*
X1262978Y1118243D01*
X1262697Y1118549D01*
X1262391Y1118932D01*
X1262111Y1119365D01*
X1261856Y1119875D01*
Y1119901D01*
X1261831Y1119952D01*
X1261805Y1120028D01*
X1261754Y1120130D01*
X1261703Y1120283D01*
X1261652Y1120436D01*
X1261601Y1120640D01*
X1261524Y1120870D01*
X1261422Y1121380D01*
X1261321Y1121966D01*
X1261244Y1122629D01*
X1261218Y1123369D01*
Y1123675D01*
X1261244Y1123904D01*
X1261270Y1124185D01*
X1261295Y1124516D01*
X1261346Y1124848D01*
X1261397Y1125230D01*
X1261575Y1126046D01*
X1261703Y1126454D01*
X1261831Y1126862D01*
X1262009Y1127270D01*
X1262213Y1127653D01*
X1262443Y1128010D01*
X1262697Y1128341D01*
X1262723Y1128367D01*
X1262774Y1128418D01*
X1262851Y1128494D01*
X1262953Y1128596D01*
X1263105Y1128724D01*
X1263284Y1128877D01*
X1263488Y1129030D01*
X1263717Y1129208D01*
X1263998Y1129361D01*
X1264278Y1129514D01*
X1264610Y1129667D01*
X1264967Y1129795D01*
X1265324Y1129922D01*
X1265732Y1130024D01*
X1266140Y1130101D01*
X1266599Y1130126D01*
X1266726Y1126556D01*
X1266701D01*
X1266676D01*
X1266497Y1126505D01*
X1266267Y1126454D01*
X1265987Y1126352D01*
X1265656Y1126225D01*
X1265350Y1126046D01*
X1265043Y1125817D01*
X1264789Y1125562D01*
X1264763Y1125536D01*
X1264687Y1125434D01*
X1264584Y1125256D01*
X1264483Y1125001D01*
X1264380Y1124695D01*
X1264278Y1124312D01*
X1264202Y1123853D01*
X1264177Y1123318D01*
Y1123063D01*
X1264202Y1122782D01*
X1264253Y1122451D01*
X1264330Y1122068D01*
X1264457Y1121660D01*
X1264610Y1121278D01*
X1264840Y1120921D01*
X1264865Y1120895D01*
X1264916Y1120844D01*
X1264993Y1120742D01*
X1265120Y1120640D01*
X1265273Y1120538D01*
X1265477Y1120436D01*
X1265681Y1120385D01*
X1265936Y1120360D01*
X1265961D01*
X1266038D01*
X1266166Y1120385D01*
X1266293Y1120436D01*
X1266472Y1120487D01*
X1266650Y1120564D01*
X1266829Y1120691D01*
X1267007Y1120870D01*
X1267033Y1120895D01*
X1267109Y1121023D01*
X1267160Y1121099D01*
X1267211Y1121227D01*
X1267287Y1121354D01*
X1267364Y1121533D01*
X1267440Y1121737D01*
X1267543Y1121966D01*
X1267645Y1122247D01*
X1267746Y1122527D01*
X1267849Y1122884D01*
X1267950Y1123267D01*
X1268053Y1123675D01*
X1268180Y1124134D01*
Y1124159D01*
X1268206Y1124261D01*
X1268231Y1124389D01*
X1268282Y1124567D01*
X1268333Y1124771D01*
X1268409Y1125026D01*
X1268486Y1125307D01*
X1268562Y1125587D01*
X1268766Y1126199D01*
X1268970Y1126837D01*
X1269200Y1127449D01*
X1269328Y1127704D01*
X1269455Y1127959D01*
Y1127984D01*
X1269480Y1128010D01*
X1269582Y1128163D01*
X1269736Y1128392D01*
X1269939Y1128673D01*
X1270195Y1128979D01*
X1270501Y1129310D01*
X1270858Y1129642D01*
X1271265Y1129922D01*
X1271316Y1129948D01*
X1271469Y1130024D01*
X1271699Y1130152D01*
X1272031Y1130279D01*
X1272438Y1130407D01*
X1272923Y1130534D01*
X1273458Y1130611D01*
X1274071Y1130636D01*
X1274096D01*
X1274147D01*
X1274224D01*
X1274325D01*
X1274453Y1130611D01*
D02*
G37*
G36*
X1279196Y1110236D02*
X1261550D01*
Y1113806D01*
X1279196D01*
Y1110236D01*
D02*
G37*
G36*
X1271112Y1040540D02*
X1271316D01*
X1271572Y1040515D01*
X1271852Y1040489D01*
X1272438Y1040438D01*
X1273051Y1040336D01*
X1273688Y1040183D01*
X1274300Y1040005D01*
X1274325D01*
X1274377Y1039979D01*
X1274478Y1039928D01*
X1274631Y1039877D01*
X1274784Y1039826D01*
X1274963Y1039724D01*
X1275422Y1039520D01*
X1275907Y1039265D01*
X1276442Y1038934D01*
X1276952Y1038551D01*
X1277437Y1038118D01*
X1277487Y1038067D01*
X1277590Y1037939D01*
X1277743Y1037735D01*
X1277947Y1037455D01*
X1278176Y1037098D01*
X1278406Y1036690D01*
X1278635Y1036180D01*
X1278839Y1035619D01*
Y1035593D01*
X1278864Y1035568D01*
Y1035491D01*
X1278890Y1035415D01*
X1278941Y1035134D01*
X1279017Y1034777D01*
X1279094Y1034344D01*
X1279145Y1033808D01*
X1279170Y1033171D01*
X1279196Y1032482D01*
Y1025801D01*
X1261550D01*
Y1032839D01*
X1261575Y1033043D01*
X1261601Y1033528D01*
X1261627Y1034063D01*
X1261703Y1034624D01*
X1261780Y1035160D01*
X1261907Y1035644D01*
Y1035670D01*
X1261932Y1035721D01*
X1261958Y1035797D01*
X1261984Y1035899D01*
X1262111Y1036205D01*
X1262290Y1036562D01*
X1262519Y1036970D01*
X1262800Y1037429D01*
X1263131Y1037863D01*
X1263539Y1038296D01*
Y1038322D01*
X1263590Y1038347D01*
X1263743Y1038475D01*
X1263998Y1038679D01*
X1264330Y1038908D01*
X1264737Y1039189D01*
X1265222Y1039469D01*
X1265783Y1039750D01*
X1266395Y1039979D01*
X1266420D01*
X1266472Y1040005D01*
X1266573Y1040030D01*
X1266701Y1040081D01*
X1266854Y1040107D01*
X1267058Y1040158D01*
X1267287Y1040209D01*
X1267543Y1040285D01*
X1267823Y1040336D01*
X1268155Y1040387D01*
X1268486Y1040438D01*
X1268869Y1040464D01*
X1269659Y1040540D01*
X1270552Y1040566D01*
X1270577D01*
X1270653D01*
X1270755D01*
X1270909D01*
X1271112Y1040540D01*
D02*
G37*
G36*
X1279196Y1018457D02*
X1267568Y1011292D01*
X1279196D01*
Y1008002D01*
X1261550D01*
Y1011445D01*
X1273433Y1018738D01*
X1261550D01*
Y1022027D01*
X1279196D01*
Y1018457D01*
D02*
G37*
G36*
X1276876Y1004636D02*
X1276927Y1004560D01*
X1277003Y1004483D01*
X1277105Y1004356D01*
X1277207Y1004228D01*
X1277462Y1003871D01*
X1277743Y1003387D01*
X1278074Y1002826D01*
X1278406Y1002188D01*
X1278711Y1001423D01*
Y1001398D01*
X1278737Y1001321D01*
X1278788Y1001219D01*
X1278839Y1001066D01*
X1278890Y1000862D01*
X1278966Y1000633D01*
X1279043Y1000378D01*
X1279120Y1000097D01*
X1279273Y999460D01*
X1279400Y998720D01*
X1279502Y997955D01*
X1279527Y997139D01*
Y996859D01*
X1279502Y996680D01*
Y996425D01*
X1279476Y996145D01*
X1279426Y995839D01*
X1279374Y995482D01*
X1279247Y994742D01*
X1279043Y993926D01*
X1278763Y993085D01*
X1278584Y992702D01*
X1278380Y992294D01*
X1278354Y992269D01*
X1278329Y992218D01*
X1278253Y992090D01*
X1278150Y991963D01*
X1278049Y991784D01*
X1277896Y991606D01*
X1277717Y991376D01*
X1277513Y991147D01*
X1277054Y990637D01*
X1276467Y990127D01*
X1275804Y989642D01*
X1275040Y989209D01*
X1275014D01*
X1274938Y989158D01*
X1274810Y989107D01*
X1274657Y989056D01*
X1274453Y988979D01*
X1274224Y988877D01*
X1273943Y988801D01*
X1273637Y988699D01*
X1273305Y988597D01*
X1272923Y988520D01*
X1272132Y988342D01*
X1271265Y988240D01*
X1270322Y988189D01*
X1270296D01*
X1270195D01*
X1270042D01*
X1269863Y988214D01*
X1269608D01*
X1269328Y988240D01*
X1269022Y988291D01*
X1268665Y988342D01*
X1267925Y988469D01*
X1267083Y988673D01*
X1266242Y988954D01*
X1265834Y989132D01*
X1265426Y989336D01*
X1265400Y989362D01*
X1265324Y989387D01*
X1265222Y989464D01*
X1265069Y989540D01*
X1264890Y989668D01*
X1264687Y989821D01*
X1264457Y989999D01*
X1264202Y990178D01*
X1263947Y990407D01*
X1263667Y990662D01*
X1263386Y990943D01*
X1263105Y991249D01*
X1262851Y991580D01*
X1262570Y991912D01*
X1262111Y992702D01*
Y992728D01*
X1262060Y992779D01*
X1262034Y992881D01*
X1261958Y993008D01*
X1261907Y993187D01*
X1261831Y993365D01*
X1261754Y993620D01*
X1261652Y993875D01*
X1261575Y994156D01*
X1261499Y994487D01*
X1261422Y994844D01*
X1261346Y995201D01*
X1261244Y996017D01*
X1261218Y996935D01*
Y997241D01*
X1261244Y997471D01*
X1261270Y997751D01*
X1261295Y998083D01*
X1261321Y998440D01*
X1261397Y998822D01*
X1261550Y999638D01*
X1261805Y1000480D01*
X1261958Y1000913D01*
X1262137Y1001321D01*
X1262341Y1001704D01*
X1262595Y1002061D01*
X1262621Y1002086D01*
X1262647Y1002137D01*
X1262748Y1002239D01*
X1262851Y1002367D01*
X1262978Y1002520D01*
X1263157Y1002673D01*
X1263361Y1002851D01*
X1263590Y1003055D01*
X1263845Y1003259D01*
X1264126Y1003463D01*
X1264431Y1003667D01*
X1264789Y1003846D01*
X1265146Y1004050D01*
X1265528Y1004203D01*
X1265961Y1004356D01*
X1266395Y1004458D01*
X1267058Y1000913D01*
X1267033D01*
X1267007Y1000888D01*
X1266854Y1000837D01*
X1266624Y1000735D01*
X1266319Y1000582D01*
X1265987Y1000403D01*
X1265656Y1000148D01*
X1265324Y999842D01*
X1265018Y999485D01*
X1264993Y999434D01*
X1264890Y999307D01*
X1264763Y999077D01*
X1264636Y998797D01*
X1264483Y998414D01*
X1264380Y997981D01*
X1264278Y997496D01*
X1264253Y996935D01*
Y996706D01*
X1264278Y996553D01*
X1264304Y996349D01*
X1264330Y996119D01*
X1264380Y995864D01*
X1264431Y995584D01*
X1264610Y994997D01*
X1264737Y994691D01*
X1264890Y994385D01*
X1265069Y994079D01*
X1265247Y993773D01*
X1265503Y993493D01*
X1265757Y993212D01*
X1265783Y993187D01*
X1265834Y993161D01*
X1265910Y993085D01*
X1266038Y993008D01*
X1266191Y992906D01*
X1266370Y992779D01*
X1266599Y992651D01*
X1266854Y992549D01*
X1267160Y992422D01*
X1267492Y992294D01*
X1267849Y992167D01*
X1268231Y992065D01*
X1268665Y991988D01*
X1269149Y991912D01*
X1269633Y991886D01*
X1270169Y991861D01*
X1270195D01*
X1270296D01*
X1270475D01*
X1270679Y991886D01*
X1270959Y991912D01*
X1271240Y991937D01*
X1271597Y991988D01*
X1271954Y992039D01*
X1272719Y992192D01*
X1273509Y992447D01*
X1273892Y992600D01*
X1274249Y992779D01*
X1274606Y993008D01*
X1274912Y993238D01*
X1274938Y993263D01*
X1274988Y993314D01*
X1275065Y993391D01*
X1275167Y993493D01*
X1275269Y993646D01*
X1275422Y993799D01*
X1275550Y994003D01*
X1275703Y994232D01*
X1275855Y994487D01*
X1275983Y994742D01*
X1276238Y995380D01*
X1276340Y995737D01*
X1276417Y996094D01*
X1276467Y996502D01*
X1276493Y996910D01*
Y997114D01*
X1276467Y997318D01*
X1276442Y997624D01*
X1276391Y997955D01*
X1276314Y998338D01*
X1276213Y998746D01*
X1276060Y999154D01*
Y999179D01*
X1276034Y999205D01*
X1275983Y999332D01*
X1275881Y999562D01*
X1275754Y999817D01*
X1275601Y1000123D01*
X1275422Y1000454D01*
X1275218Y1000786D01*
X1274988Y1001092D01*
X1272719D01*
Y997012D01*
X1269736D01*
Y1004687D01*
X1276824D01*
X1276876Y1004636D01*
D02*
G37*
G36*
X1271112Y1249202D02*
X1271316D01*
X1271572Y1249176D01*
X1271852Y1249151D01*
X1272438Y1249100D01*
X1273051Y1248998D01*
X1273688Y1248845D01*
X1274300Y1248666D01*
X1274325D01*
X1274377Y1248641D01*
X1274478Y1248590D01*
X1274631Y1248539D01*
X1274784Y1248488D01*
X1274963Y1248386D01*
X1275422Y1248182D01*
X1275907Y1247927D01*
X1276442Y1247595D01*
X1276952Y1247213D01*
X1277437Y1246779D01*
X1277487Y1246728D01*
X1277590Y1246601D01*
X1277743Y1246397D01*
X1277947Y1246116D01*
X1278176Y1245759D01*
X1278406Y1245351D01*
X1278635Y1244841D01*
X1278839Y1244280D01*
Y1244255D01*
X1278864Y1244229D01*
Y1244153D01*
X1278890Y1244076D01*
X1278941Y1243796D01*
X1279017Y1243439D01*
X1279094Y1243005D01*
X1279145Y1242470D01*
X1279170Y1241832D01*
X1279196Y1241144D01*
Y1234463D01*
X1261550D01*
Y1241501D01*
X1261575Y1241705D01*
X1261601Y1242189D01*
X1261627Y1242725D01*
X1261703Y1243286D01*
X1261780Y1243821D01*
X1261907Y1244306D01*
Y1244331D01*
X1261932Y1244382D01*
X1261958Y1244459D01*
X1261984Y1244561D01*
X1262111Y1244867D01*
X1262290Y1245224D01*
X1262519Y1245632D01*
X1262800Y1246091D01*
X1263131Y1246524D01*
X1263539Y1246958D01*
Y1246983D01*
X1263590Y1247009D01*
X1263743Y1247136D01*
X1263998Y1247340D01*
X1264330Y1247570D01*
X1264737Y1247850D01*
X1265222Y1248131D01*
X1265783Y1248411D01*
X1266395Y1248641D01*
X1266420D01*
X1266472Y1248666D01*
X1266573Y1248692D01*
X1266701Y1248743D01*
X1266854Y1248768D01*
X1267058Y1248819D01*
X1267287Y1248870D01*
X1267543Y1248947D01*
X1267823Y1248998D01*
X1268155Y1249049D01*
X1268486Y1249100D01*
X1268869Y1249125D01*
X1269659Y1249202D01*
X1270552Y1249227D01*
X1270577D01*
X1270653D01*
X1270755D01*
X1270909D01*
X1271112Y1249202D01*
D02*
G37*
G36*
X1279196Y1227119D02*
X1267568Y1219953D01*
X1279196D01*
Y1216664D01*
X1261550D01*
Y1220106D01*
X1273433Y1227399D01*
X1261550D01*
Y1230689D01*
X1279196D01*
Y1227119D01*
D02*
G37*
G36*
X1276876Y1213298D02*
X1276927Y1213221D01*
X1277003Y1213145D01*
X1277105Y1213017D01*
X1277207Y1212890D01*
X1277462Y1212533D01*
X1277743Y1212048D01*
X1278074Y1211487D01*
X1278406Y1210850D01*
X1278711Y1210085D01*
Y1210059D01*
X1278737Y1209983D01*
X1278788Y1209881D01*
X1278839Y1209728D01*
X1278890Y1209524D01*
X1278966Y1209294D01*
X1279043Y1209039D01*
X1279120Y1208759D01*
X1279273Y1208121D01*
X1279400Y1207382D01*
X1279502Y1206617D01*
X1279527Y1205801D01*
Y1205520D01*
X1279502Y1205342D01*
Y1205087D01*
X1279476Y1204806D01*
X1279426Y1204500D01*
X1279374Y1204143D01*
X1279247Y1203404D01*
X1279043Y1202588D01*
X1278763Y1201746D01*
X1278584Y1201364D01*
X1278380Y1200956D01*
X1278354Y1200930D01*
X1278329Y1200879D01*
X1278253Y1200752D01*
X1278150Y1200624D01*
X1278049Y1200446D01*
X1277896Y1200267D01*
X1277717Y1200038D01*
X1277513Y1199808D01*
X1277054Y1199298D01*
X1276467Y1198788D01*
X1275804Y1198304D01*
X1275040Y1197870D01*
X1275014D01*
X1274938Y1197819D01*
X1274810Y1197768D01*
X1274657Y1197717D01*
X1274453Y1197641D01*
X1274224Y1197539D01*
X1273943Y1197462D01*
X1273637Y1197360D01*
X1273305Y1197258D01*
X1272923Y1197182D01*
X1272132Y1197003D01*
X1271265Y1196901D01*
X1270322Y1196850D01*
X1270296D01*
X1270195D01*
X1270042D01*
X1269863Y1196876D01*
X1269608D01*
X1269328Y1196901D01*
X1269022Y1196952D01*
X1268665Y1197003D01*
X1267925Y1197131D01*
X1267083Y1197335D01*
X1266242Y1197615D01*
X1265834Y1197794D01*
X1265426Y1197998D01*
X1265400Y1198023D01*
X1265324Y1198049D01*
X1265222Y1198125D01*
X1265069Y1198202D01*
X1264890Y1198329D01*
X1264687Y1198482D01*
X1264457Y1198661D01*
X1264202Y1198839D01*
X1263947Y1199069D01*
X1263667Y1199324D01*
X1263386Y1199604D01*
X1263105Y1199910D01*
X1262851Y1200242D01*
X1262570Y1200573D01*
X1262111Y1201364D01*
Y1201389D01*
X1262060Y1201440D01*
X1262034Y1201542D01*
X1261958Y1201670D01*
X1261907Y1201848D01*
X1261831Y1202027D01*
X1261754Y1202282D01*
X1261652Y1202537D01*
X1261575Y1202817D01*
X1261499Y1203149D01*
X1261422Y1203506D01*
X1261346Y1203863D01*
X1261244Y1204679D01*
X1261218Y1205597D01*
Y1205903D01*
X1261244Y1206132D01*
X1261270Y1206413D01*
X1261295Y1206744D01*
X1261321Y1207101D01*
X1261397Y1207484D01*
X1261550Y1208300D01*
X1261805Y1209141D01*
X1261958Y1209575D01*
X1262137Y1209983D01*
X1262341Y1210365D01*
X1262595Y1210722D01*
X1262621Y1210748D01*
X1262647Y1210799D01*
X1262748Y1210901D01*
X1262851Y1211028D01*
X1262978Y1211181D01*
X1263157Y1211334D01*
X1263361Y1211513D01*
X1263590Y1211717D01*
X1263845Y1211921D01*
X1264126Y1212125D01*
X1264431Y1212329D01*
X1264789Y1212507D01*
X1265146Y1212711D01*
X1265528Y1212864D01*
X1265961Y1213017D01*
X1266395Y1213119D01*
X1267058Y1209575D01*
X1267033D01*
X1267007Y1209549D01*
X1266854Y1209498D01*
X1266624Y1209396D01*
X1266319Y1209243D01*
X1265987Y1209065D01*
X1265656Y1208810D01*
X1265324Y1208504D01*
X1265018Y1208147D01*
X1264993Y1208096D01*
X1264890Y1207968D01*
X1264763Y1207739D01*
X1264636Y1207458D01*
X1264483Y1207076D01*
X1264380Y1206642D01*
X1264278Y1206158D01*
X1264253Y1205597D01*
Y1205367D01*
X1264278Y1205214D01*
X1264304Y1205010D01*
X1264330Y1204781D01*
X1264380Y1204526D01*
X1264431Y1204245D01*
X1264610Y1203659D01*
X1264737Y1203353D01*
X1264890Y1203047D01*
X1265069Y1202741D01*
X1265247Y1202435D01*
X1265503Y1202154D01*
X1265757Y1201874D01*
X1265783Y1201848D01*
X1265834Y1201823D01*
X1265910Y1201746D01*
X1266038Y1201670D01*
X1266191Y1201568D01*
X1266370Y1201440D01*
X1266599Y1201313D01*
X1266854Y1201211D01*
X1267160Y1201083D01*
X1267492Y1200956D01*
X1267849Y1200828D01*
X1268231Y1200726D01*
X1268665Y1200650D01*
X1269149Y1200573D01*
X1269633Y1200548D01*
X1270169Y1200522D01*
X1270195D01*
X1270296D01*
X1270475D01*
X1270679Y1200548D01*
X1270959Y1200573D01*
X1271240Y1200599D01*
X1271597Y1200650D01*
X1271954Y1200701D01*
X1272719Y1200854D01*
X1273509Y1201109D01*
X1273892Y1201262D01*
X1274249Y1201440D01*
X1274606Y1201670D01*
X1274912Y1201899D01*
X1274938Y1201925D01*
X1274988Y1201976D01*
X1275065Y1202052D01*
X1275167Y1202154D01*
X1275269Y1202307D01*
X1275422Y1202460D01*
X1275550Y1202664D01*
X1275703Y1202894D01*
X1275855Y1203149D01*
X1275983Y1203404D01*
X1276238Y1204041D01*
X1276340Y1204398D01*
X1276417Y1204755D01*
X1276467Y1205163D01*
X1276493Y1205571D01*
Y1205775D01*
X1276467Y1205979D01*
X1276442Y1206285D01*
X1276391Y1206617D01*
X1276314Y1206999D01*
X1276213Y1207407D01*
X1276060Y1207815D01*
Y1207841D01*
X1276034Y1207866D01*
X1275983Y1207994D01*
X1275881Y1208223D01*
X1275754Y1208478D01*
X1275601Y1208784D01*
X1275422Y1209116D01*
X1275218Y1209447D01*
X1274988Y1209753D01*
X1272719D01*
Y1205673D01*
X1269736D01*
Y1213349D01*
X1276824D01*
X1276876Y1213298D01*
D02*
G37*
G36*
X902165Y68796D02*
X898774D01*
Y72188D01*
X902165D01*
Y68796D01*
D02*
G37*
G36*
X865445Y59387D02*
X861595D01*
X855271Y77033D01*
X859121D01*
X863609Y63977D01*
X867919Y77033D01*
X871718D01*
X865445Y59387D01*
D02*
G37*
G36*
X966476Y77109D02*
X966706Y77084D01*
X966935Y77058D01*
X967216Y77007D01*
X967496Y76931D01*
X968134Y76752D01*
X968465Y76625D01*
X968822Y76446D01*
X969154Y76268D01*
X969460Y76064D01*
X969791Y75809D01*
X970072Y75528D01*
X970097Y75503D01*
X970123Y75477D01*
X970199Y75401D01*
X970276Y75299D01*
X970480Y75044D01*
X970709Y74687D01*
X970939Y74253D01*
X971117Y73743D01*
X971270Y73182D01*
X971296Y72902D01*
X971321Y72596D01*
Y72570D01*
Y72494D01*
X971296Y72366D01*
X971270Y72213D01*
X971245Y72009D01*
X971194Y71780D01*
X971117Y71525D01*
X971015Y71244D01*
X970862Y70964D01*
X970709Y70658D01*
X970505Y70352D01*
X970250Y70046D01*
X969944Y69740D01*
X969613Y69434D01*
X969230Y69153D01*
X968771Y68873D01*
X968797D01*
X968848Y68847D01*
X968924D01*
X969026Y68796D01*
X969307Y68720D01*
X969638Y68567D01*
X970021Y68363D01*
X970429Y68108D01*
X970837Y67776D01*
X971194Y67394D01*
X971245Y67343D01*
X971347Y67190D01*
X971474Y66960D01*
X971653Y66629D01*
X971831Y66246D01*
X971959Y65762D01*
X972061Y65252D01*
X972112Y64665D01*
Y64640D01*
Y64563D01*
Y64436D01*
X972086Y64283D01*
X972061Y64079D01*
X972010Y63849D01*
X971959Y63569D01*
X971908Y63288D01*
X971704Y62676D01*
X971551Y62345D01*
X971398Y61988D01*
X971194Y61656D01*
X970964Y61325D01*
X970709Y60993D01*
X970403Y60687D01*
X970378Y60662D01*
X970327Y60611D01*
X970225Y60534D01*
X970097Y60432D01*
X969919Y60305D01*
X969740Y60177D01*
X969485Y60024D01*
X969230Y59871D01*
X968950Y59718D01*
X968618Y59565D01*
X968261Y59438D01*
X967904Y59310D01*
X967496Y59208D01*
X967088Y59132D01*
X966629Y59081D01*
X966170Y59055D01*
X965941D01*
X965762Y59081D01*
X965558Y59106D01*
X965329Y59132D01*
X965074Y59183D01*
X964768Y59234D01*
X964156Y59387D01*
X963493Y59642D01*
X963136Y59795D01*
X962830Y59973D01*
X962498Y60203D01*
X962192Y60432D01*
X962167Y60458D01*
X962116Y60509D01*
X962039Y60585D01*
X961937Y60687D01*
X961810Y60815D01*
X961682Y60993D01*
X961529Y61172D01*
X961376Y61401D01*
X961223Y61656D01*
X961045Y61911D01*
X960764Y62523D01*
X960535Y63237D01*
X960433Y63620D01*
X960382Y64028D01*
X963646Y64436D01*
Y64410D01*
Y64385D01*
X963671Y64232D01*
X963722Y64002D01*
X963799Y63722D01*
X963926Y63416D01*
X964054Y63084D01*
X964258Y62778D01*
X964487Y62498D01*
X964513Y62472D01*
X964615Y62396D01*
X964768Y62294D01*
X964946Y62192D01*
X965201Y62064D01*
X965482Y61962D01*
X965788Y61886D01*
X966145Y61860D01*
X966196D01*
X966323Y61886D01*
X966502Y61911D01*
X966757Y61962D01*
X967037Y62064D01*
X967318Y62192D01*
X967624Y62396D01*
X967904Y62651D01*
X967930Y62676D01*
X968032Y62804D01*
X968134Y62982D01*
X968287Y63212D01*
X968414Y63518D01*
X968542Y63900D01*
X968618Y64334D01*
X968644Y64818D01*
Y64844D01*
Y64869D01*
Y65022D01*
X968618Y65252D01*
X968567Y65558D01*
X968465Y65889D01*
X968338Y66221D01*
X968159Y66552D01*
X967930Y66858D01*
X967904Y66884D01*
X967802Y66986D01*
X967649Y67113D01*
X967471Y67241D01*
X967216Y67394D01*
X966935Y67496D01*
X966629Y67598D01*
X966272Y67623D01*
X966017D01*
X965839Y67598D01*
X965609Y67572D01*
X965329Y67521D01*
X965048Y67445D01*
X964717Y67368D01*
X965074Y70097D01*
X965303D01*
X965558Y70122D01*
X965864Y70148D01*
X966196Y70224D01*
X966553Y70326D01*
X966884Y70479D01*
X967190Y70683D01*
X967216Y70709D01*
X967318Y70811D01*
X967420Y70938D01*
X967573Y71142D01*
X967700Y71372D01*
X967828Y71652D01*
X967904Y71984D01*
X967930Y72366D01*
Y72417D01*
Y72519D01*
X967904Y72672D01*
X967853Y72876D01*
X967802Y73106D01*
X967700Y73335D01*
X967573Y73590D01*
X967394Y73794D01*
X967369Y73820D01*
X967292Y73871D01*
X967190Y73973D01*
X967012Y74075D01*
X966808Y74151D01*
X966578Y74253D01*
X966272Y74304D01*
X965966Y74330D01*
X965813D01*
X965660Y74304D01*
X965456Y74253D01*
X965227Y74177D01*
X964972Y74075D01*
X964717Y73922D01*
X964487Y73718D01*
X964462Y73692D01*
X964385Y73616D01*
X964283Y73463D01*
X964156Y73259D01*
X964028Y73029D01*
X963926Y72723D01*
X963824Y72366D01*
X963748Y71958D01*
X960637Y72468D01*
Y72494D01*
X960662Y72545D01*
Y72621D01*
X960688Y72749D01*
X960764Y73029D01*
X960866Y73412D01*
X961019Y73820D01*
X961172Y74253D01*
X961376Y74661D01*
X961606Y75044D01*
X961631Y75095D01*
X961733Y75197D01*
X961886Y75375D01*
X962090Y75605D01*
X962345Y75834D01*
X962651Y76089D01*
X963034Y76344D01*
X963442Y76574D01*
X963467D01*
X963493Y76599D01*
X963646Y76650D01*
X963901Y76752D01*
X964207Y76854D01*
X964589Y76956D01*
X965048Y77058D01*
X965533Y77109D01*
X966068Y77135D01*
X966298D01*
X966476Y77109D01*
D02*
G37*
G36*
X1019669Y73641D02*
X1013269D01*
X1012733Y70632D01*
X1012759D01*
X1012784Y70658D01*
X1012937Y70734D01*
X1013167Y70811D01*
X1013447Y70938D01*
X1013804Y71040D01*
X1014187Y71117D01*
X1014620Y71193D01*
X1015054Y71219D01*
X1015283D01*
X1015436Y71193D01*
X1015615Y71168D01*
X1015844Y71142D01*
X1016099Y71091D01*
X1016380Y71015D01*
X1016966Y70811D01*
X1017298Y70683D01*
X1017604Y70530D01*
X1017935Y70326D01*
X1018267Y70097D01*
X1018573Y69842D01*
X1018879Y69561D01*
X1018904Y69536D01*
X1018955Y69485D01*
X1019032Y69383D01*
X1019134Y69255D01*
X1019236Y69102D01*
X1019389Y68898D01*
X1019516Y68669D01*
X1019669Y68414D01*
X1019822Y68133D01*
X1019950Y67802D01*
X1020103Y67445D01*
X1020205Y67088D01*
X1020307Y66680D01*
X1020383Y66246D01*
X1020434Y65787D01*
X1020460Y65303D01*
Y65277D01*
Y65201D01*
Y65099D01*
X1020434Y64946D01*
Y64742D01*
X1020383Y64512D01*
X1020358Y64257D01*
X1020307Y64002D01*
X1020154Y63390D01*
X1019924Y62727D01*
X1019771Y62370D01*
X1019618Y62039D01*
X1019414Y61707D01*
X1019185Y61376D01*
X1019159Y61350D01*
X1019108Y61274D01*
X1019006Y61172D01*
X1018879Y61019D01*
X1018700Y60840D01*
X1018471Y60636D01*
X1018216Y60432D01*
X1017935Y60228D01*
X1017604Y59999D01*
X1017247Y59795D01*
X1016864Y59591D01*
X1016431Y59412D01*
X1015972Y59259D01*
X1015487Y59157D01*
X1014952Y59081D01*
X1014391Y59055D01*
X1014161D01*
X1013983Y59081D01*
X1013779Y59106D01*
X1013524Y59132D01*
X1013269Y59157D01*
X1012963Y59208D01*
X1012351Y59361D01*
X1011662Y59616D01*
X1011331Y59744D01*
X1010999Y59922D01*
X1010693Y60126D01*
X1010387Y60356D01*
X1010362Y60381D01*
X1010311Y60407D01*
X1010234Y60483D01*
X1010132Y60585D01*
X1010030Y60738D01*
X1009877Y60891D01*
X1009750Y61070D01*
X1009597Y61274D01*
X1009418Y61529D01*
X1009265Y61784D01*
X1008985Y62396D01*
X1008730Y63084D01*
X1008653Y63467D01*
X1008577Y63875D01*
X1011943Y64232D01*
Y64181D01*
X1011968Y64053D01*
X1012019Y63824D01*
X1012096Y63569D01*
X1012198Y63288D01*
X1012351Y62982D01*
X1012555Y62702D01*
X1012784Y62421D01*
X1012810Y62396D01*
X1012912Y62319D01*
X1013065Y62217D01*
X1013269Y62090D01*
X1013498Y61962D01*
X1013779Y61860D01*
X1014110Y61784D01*
X1014442Y61758D01*
X1014493D01*
X1014620Y61784D01*
X1014824Y61809D01*
X1015079Y61860D01*
X1015360Y61962D01*
X1015666Y62115D01*
X1015972Y62345D01*
X1016252Y62625D01*
X1016278Y62676D01*
X1016380Y62778D01*
X1016482Y62982D01*
X1016635Y63288D01*
X1016762Y63645D01*
X1016890Y64079D01*
X1016966Y64614D01*
X1016992Y65226D01*
Y65252D01*
Y65303D01*
Y65379D01*
Y65507D01*
X1016966Y65787D01*
X1016890Y66144D01*
X1016813Y66552D01*
X1016686Y66960D01*
X1016507Y67343D01*
X1016252Y67674D01*
X1016227Y67700D01*
X1016125Y67802D01*
X1015946Y67929D01*
X1015742Y68108D01*
X1015462Y68261D01*
X1015130Y68388D01*
X1014748Y68490D01*
X1014340Y68516D01*
X1014187D01*
X1014085Y68490D01*
X1013830Y68439D01*
X1013473Y68363D01*
X1013065Y68210D01*
X1012631Y67980D01*
X1012402Y67827D01*
X1012172Y67649D01*
X1011943Y67445D01*
X1011713Y67215D01*
X1008985Y67598D01*
X1010719Y76803D01*
X1019669D01*
Y73641D01*
D02*
G37*
G36*
X1001054Y77109D02*
X1001284Y77084D01*
X1001539Y77058D01*
X1001819Y77007D01*
X1002125Y76956D01*
X1002788Y76778D01*
X1003451Y76523D01*
X1003808Y76370D01*
X1004114Y76191D01*
X1004446Y75962D01*
X1004726Y75707D01*
X1004752Y75681D01*
X1004803Y75656D01*
X1004854Y75554D01*
X1004956Y75452D01*
X1005083Y75324D01*
X1005211Y75146D01*
X1005338Y74967D01*
X1005491Y74738D01*
X1005746Y74228D01*
X1006001Y73641D01*
X1006103Y73310D01*
X1006154Y72953D01*
X1006205Y72570D01*
X1006231Y72188D01*
Y72137D01*
Y71984D01*
X1006205Y71754D01*
X1006180Y71474D01*
X1006129Y71117D01*
X1006052Y70734D01*
X1005950Y70326D01*
X1005797Y69918D01*
X1005772Y69867D01*
X1005721Y69740D01*
X1005619Y69510D01*
X1005466Y69230D01*
X1005287Y68898D01*
X1005058Y68516D01*
X1004777Y68108D01*
X1004446Y67674D01*
X1004420Y67649D01*
X1004318Y67521D01*
X1004165Y67343D01*
X1003936Y67088D01*
X1003630Y66782D01*
X1003247Y66374D01*
X1002788Y65940D01*
X1002227Y65405D01*
X1002202Y65379D01*
X1002151Y65354D01*
X1002074Y65277D01*
X1001972Y65175D01*
X1001692Y64920D01*
X1001360Y64614D01*
X1001029Y64283D01*
X1000697Y63951D01*
X1000391Y63671D01*
X1000289Y63543D01*
X1000187Y63441D01*
X1000162Y63416D01*
X1000111Y63365D01*
X1000034Y63263D01*
X999932Y63135D01*
X999703Y62855D01*
X999499Y62523D01*
X1006231D01*
Y59387D01*
X994373D01*
Y59412D01*
Y59463D01*
X994399Y59565D01*
X994424Y59693D01*
X994450Y59846D01*
X994475Y60024D01*
X994577Y60483D01*
X994730Y60993D01*
X994934Y61554D01*
X995189Y62166D01*
X995521Y62753D01*
Y62778D01*
X995572Y62829D01*
X995623Y62931D01*
X995725Y63033D01*
X995827Y63212D01*
X995980Y63390D01*
X996158Y63620D01*
X996362Y63875D01*
X996592Y64181D01*
X996872Y64487D01*
X997178Y64844D01*
X997535Y65226D01*
X997918Y65609D01*
X998351Y66042D01*
X998810Y66501D01*
X999320Y66986D01*
X999346Y67011D01*
X999422Y67088D01*
X999524Y67190D01*
X999677Y67343D01*
X999881Y67496D01*
X1000085Y67700D01*
X1000544Y68159D01*
X1001003Y68643D01*
X1001462Y69128D01*
X1001666Y69332D01*
X1001870Y69561D01*
X1002023Y69740D01*
X1002125Y69893D01*
X1002151Y69944D01*
X1002227Y70071D01*
X1002355Y70275D01*
X1002482Y70556D01*
X1002610Y70862D01*
X1002737Y71219D01*
X1002814Y71576D01*
X1002839Y71958D01*
Y71984D01*
Y72009D01*
Y72137D01*
X1002814Y72366D01*
X1002763Y72621D01*
X1002686Y72902D01*
X1002584Y73182D01*
X1002431Y73463D01*
X1002227Y73718D01*
X1002202Y73743D01*
X1002125Y73820D01*
X1001972Y73922D01*
X1001794Y74024D01*
X1001539Y74126D01*
X1001258Y74228D01*
X1000927Y74304D01*
X1000544Y74330D01*
X1000366D01*
X1000162Y74304D01*
X999932Y74253D01*
X999652Y74177D01*
X999371Y74049D01*
X999091Y73896D01*
X998836Y73692D01*
X998810Y73667D01*
X998734Y73565D01*
X998632Y73412D01*
X998530Y73182D01*
X998402Y72902D01*
X998300Y72519D01*
X998198Y72086D01*
X998147Y71576D01*
X994781Y71907D01*
Y71933D01*
X994807Y72035D01*
Y72162D01*
X994858Y72366D01*
X994883Y72596D01*
X994960Y72851D01*
X995036Y73131D01*
X995113Y73463D01*
X995368Y74100D01*
X995674Y74763D01*
X995878Y75095D01*
X996107Y75401D01*
X996362Y75656D01*
X996643Y75911D01*
X996668Y75936D01*
X996719Y75962D01*
X996796Y76013D01*
X996923Y76115D01*
X997076Y76191D01*
X997280Y76293D01*
X997484Y76421D01*
X997739Y76523D01*
X998020Y76650D01*
X998326Y76752D01*
X998989Y76956D01*
X999779Y77084D01*
X1000187Y77109D01*
X1000621Y77135D01*
X1000876D01*
X1001054Y77109D01*
D02*
G37*
G36*
X953038D02*
X953267Y77084D01*
X953522Y77058D01*
X953803Y77007D01*
X954109Y76956D01*
X954772Y76778D01*
X955435Y76523D01*
X955792Y76370D01*
X956098Y76191D01*
X956429Y75962D01*
X956710Y75707D01*
X956735Y75681D01*
X956786Y75656D01*
X956837Y75554D01*
X956939Y75452D01*
X957067Y75324D01*
X957194Y75146D01*
X957322Y74967D01*
X957475Y74738D01*
X957730Y74228D01*
X957985Y73641D01*
X958087Y73310D01*
X958138Y72953D01*
X958189Y72570D01*
X958214Y72188D01*
Y72137D01*
Y71984D01*
X958189Y71754D01*
X958163Y71474D01*
X958112Y71117D01*
X958036Y70734D01*
X957934Y70326D01*
X957781Y69918D01*
X957755Y69867D01*
X957704Y69740D01*
X957602Y69510D01*
X957449Y69230D01*
X957271Y68898D01*
X957041Y68516D01*
X956761Y68108D01*
X956429Y67674D01*
X956404Y67649D01*
X956302Y67521D01*
X956149Y67343D01*
X955919Y67088D01*
X955613Y66782D01*
X955231Y66374D01*
X954772Y65940D01*
X954211Y65405D01*
X954185Y65379D01*
X954134Y65354D01*
X954058Y65277D01*
X953956Y65175D01*
X953675Y64920D01*
X953344Y64614D01*
X953012Y64283D01*
X952681Y63951D01*
X952375Y63671D01*
X952273Y63543D01*
X952171Y63441D01*
X952145Y63416D01*
X952094Y63365D01*
X952018Y63263D01*
X951916Y63135D01*
X951686Y62855D01*
X951482Y62523D01*
X958214D01*
Y59387D01*
X946357D01*
Y59412D01*
Y59463D01*
X946382Y59565D01*
X946408Y59693D01*
X946433Y59846D01*
X946459Y60024D01*
X946561Y60483D01*
X946714Y60993D01*
X946918Y61554D01*
X947173Y62166D01*
X947504Y62753D01*
Y62778D01*
X947555Y62829D01*
X947606Y62931D01*
X947708Y63033D01*
X947810Y63212D01*
X947963Y63390D01*
X948142Y63620D01*
X948346Y63875D01*
X948575Y64181D01*
X948856Y64487D01*
X949162Y64844D01*
X949519Y65226D01*
X949901Y65609D01*
X950335Y66042D01*
X950794Y66501D01*
X951304Y66986D01*
X951329Y67011D01*
X951406Y67088D01*
X951508Y67190D01*
X951661Y67343D01*
X951865Y67496D01*
X952069Y67700D01*
X952528Y68159D01*
X952987Y68643D01*
X953446Y69128D01*
X953650Y69332D01*
X953854Y69561D01*
X954007Y69740D01*
X954109Y69893D01*
X954134Y69944D01*
X954211Y70071D01*
X954338Y70275D01*
X954466Y70556D01*
X954593Y70862D01*
X954721Y71219D01*
X954797Y71576D01*
X954823Y71958D01*
Y71984D01*
Y72009D01*
Y72137D01*
X954797Y72366D01*
X954746Y72621D01*
X954670Y72902D01*
X954568Y73182D01*
X954415Y73463D01*
X954211Y73718D01*
X954185Y73743D01*
X954109Y73820D01*
X953956Y73922D01*
X953777Y74024D01*
X953522Y74126D01*
X953242Y74228D01*
X952910Y74304D01*
X952528Y74330D01*
X952349D01*
X952145Y74304D01*
X951916Y74253D01*
X951635Y74177D01*
X951355Y74049D01*
X951074Y73896D01*
X950819Y73692D01*
X950794Y73667D01*
X950717Y73565D01*
X950615Y73412D01*
X950513Y73182D01*
X950386Y72902D01*
X950284Y72519D01*
X950182Y72086D01*
X950131Y71576D01*
X946765Y71907D01*
Y71933D01*
X946790Y72035D01*
Y72162D01*
X946841Y72366D01*
X946867Y72596D01*
X946943Y72851D01*
X947020Y73131D01*
X947096Y73463D01*
X947351Y74100D01*
X947657Y74763D01*
X947861Y75095D01*
X948091Y75401D01*
X948346Y75656D01*
X948626Y75911D01*
X948652Y75936D01*
X948703Y75962D01*
X948779Y76013D01*
X948907Y76115D01*
X949060Y76191D01*
X949264Y76293D01*
X949468Y76421D01*
X949723Y76523D01*
X950003Y76650D01*
X950309Y76752D01*
X950972Y76956D01*
X951763Y77084D01*
X952171Y77109D01*
X952604Y77135D01*
X952859D01*
X953038Y77109D01*
D02*
G37*
G36*
X921137Y59387D02*
X917746D01*
Y72162D01*
X917720Y72137D01*
X917669Y72086D01*
X917567Y72009D01*
X917414Y71882D01*
X917236Y71729D01*
X917032Y71576D01*
X916777Y71397D01*
X916496Y71193D01*
X916190Y70989D01*
X915859Y70785D01*
X915502Y70556D01*
X915119Y70352D01*
X914303Y69969D01*
X913385Y69612D01*
Y72672D01*
X913411D01*
X913436Y72698D01*
X913513Y72723D01*
X913615Y72749D01*
X913870Y72876D01*
X914227Y73029D01*
X914660Y73233D01*
X915145Y73514D01*
X915680Y73871D01*
X916241Y74279D01*
X916267Y74304D01*
X916318Y74330D01*
X916394Y74406D01*
X916496Y74508D01*
X916777Y74763D01*
X917083Y75095D01*
X917440Y75503D01*
X917797Y76013D01*
X918128Y76548D01*
X918383Y77135D01*
X921137D01*
Y59387D01*
D02*
G37*
G36*
X902165D02*
X898774D01*
Y62778D01*
X902165D01*
Y59387D01*
D02*
G37*
G36*
X896275D02*
X892424D01*
X890894Y63390D01*
X883805D01*
X882352Y59387D01*
X878578D01*
X885412Y77033D01*
X889186D01*
X896275Y59387D01*
D02*
G37*
G36*
X853715Y74049D02*
X844204D01*
Y70148D01*
X853052D01*
Y67164D01*
X844204D01*
Y62370D01*
X854047D01*
Y59387D01*
X840634D01*
Y77033D01*
X853715D01*
Y74049D01*
D02*
G37*
G36*
X831020Y77007D02*
X831301D01*
X831581Y76982D01*
X831913D01*
X832576Y76905D01*
X833264Y76829D01*
X833902Y76701D01*
X834182Y76625D01*
X834437Y76548D01*
X834463D01*
X834488Y76523D01*
X834641Y76446D01*
X834871Y76319D01*
X835177Y76166D01*
X835508Y75911D01*
X835840Y75630D01*
X836171Y75273D01*
X836477Y74840D01*
Y74814D01*
X836503Y74789D01*
X836554Y74712D01*
X836605Y74636D01*
X836732Y74381D01*
X836885Y74049D01*
X837013Y73641D01*
X837140Y73182D01*
X837242Y72647D01*
X837268Y72086D01*
Y72060D01*
Y72009D01*
Y71882D01*
X837242Y71754D01*
Y71576D01*
X837217Y71397D01*
X837115Y70938D01*
X836987Y70403D01*
X836783Y69867D01*
X836477Y69306D01*
X836299Y69051D01*
X836095Y68796D01*
X836069Y68771D01*
X836044Y68745D01*
X835967Y68669D01*
X835865Y68592D01*
X835763Y68490D01*
X835610Y68363D01*
X835432Y68235D01*
X835228Y68108D01*
X834998Y67955D01*
X834718Y67827D01*
X834437Y67700D01*
X834131Y67572D01*
X833774Y67445D01*
X833417Y67343D01*
X833035Y67241D01*
X832601Y67164D01*
X832627D01*
X832652Y67139D01*
X832805Y67037D01*
X833009Y66909D01*
X833264Y66731D01*
X833570Y66501D01*
X833876Y66272D01*
X834208Y65991D01*
X834488Y65685D01*
X834514Y65660D01*
X834641Y65532D01*
X834794Y65328D01*
X835024Y65022D01*
X835330Y64640D01*
X835483Y64385D01*
X835661Y64130D01*
X835865Y63849D01*
X836069Y63543D01*
X836299Y63186D01*
X836528Y62829D01*
X838696Y59387D01*
X834412D01*
X831862Y63212D01*
X831836Y63237D01*
X831811Y63314D01*
X831734Y63416D01*
X831632Y63543D01*
X831530Y63696D01*
X831403Y63900D01*
X831122Y64308D01*
X830791Y64767D01*
X830485Y65175D01*
X830204Y65558D01*
X830077Y65685D01*
X829975Y65813D01*
X829949Y65838D01*
X829898Y65889D01*
X829796Y65991D01*
X829669Y66119D01*
X829490Y66221D01*
X829312Y66348D01*
X829108Y66450D01*
X828904Y66552D01*
X828878D01*
X828802Y66578D01*
X828674Y66629D01*
X828470Y66654D01*
X828215Y66705D01*
X827909Y66731D01*
X827552Y66756D01*
X826405D01*
Y59387D01*
X822835D01*
Y77033D01*
X830791D01*
X831020Y77007D01*
D02*
G37*
G36*
X982516Y59081D02*
X980017D01*
X984377Y77339D01*
X986927D01*
X982516Y59081D01*
D02*
G37*
G36*
X934499D02*
X932000D01*
X936361Y77339D01*
X938911D01*
X934499Y59081D01*
D02*
G37*
G36*
X829781Y45784D02*
X830182Y45747D01*
X830655Y45711D01*
X831128Y45638D01*
X831674Y45565D01*
X832839Y45311D01*
X833421Y45129D01*
X834004Y44947D01*
X834586Y44692D01*
X835132Y44401D01*
X835642Y44073D01*
X836115Y43709D01*
X836151Y43673D01*
X836224Y43600D01*
X836333Y43491D01*
X836479Y43345D01*
X836661Y43127D01*
X836879Y42872D01*
X837098Y42581D01*
X837352Y42253D01*
X837571Y41853D01*
X837789Y41452D01*
X838008Y40979D01*
X838190Y40469D01*
X838372Y39960D01*
X838517Y39377D01*
X838626Y38795D01*
X838663Y38140D01*
X833567Y37958D01*
Y37994D01*
Y38031D01*
X833494Y38285D01*
X833421Y38613D01*
X833276Y39013D01*
X833094Y39487D01*
X832839Y39923D01*
X832511Y40360D01*
X832147Y40724D01*
X832111Y40761D01*
X831965Y40870D01*
X831710Y41015D01*
X831346Y41161D01*
X830910Y41307D01*
X830364Y41452D01*
X829708Y41561D01*
X828944Y41598D01*
X828580D01*
X828180Y41561D01*
X827706Y41489D01*
X827160Y41379D01*
X826578Y41197D01*
X826032Y40979D01*
X825522Y40651D01*
X825486Y40615D01*
X825413Y40542D01*
X825268Y40433D01*
X825122Y40251D01*
X824976Y40033D01*
X824831Y39741D01*
X824758Y39450D01*
X824722Y39086D01*
Y39050D01*
Y38941D01*
X824758Y38759D01*
X824831Y38577D01*
X824904Y38322D01*
X825013Y38067D01*
X825195Y37812D01*
X825450Y37557D01*
X825486Y37521D01*
X825668Y37412D01*
X825777Y37339D01*
X825959Y37266D01*
X826141Y37157D01*
X826396Y37048D01*
X826687Y36939D01*
X827015Y36793D01*
X827415Y36647D01*
X827816Y36502D01*
X828325Y36356D01*
X828871Y36211D01*
X829454Y36065D01*
X830109Y35883D01*
X830145D01*
X830291Y35847D01*
X830473Y35810D01*
X830728Y35737D01*
X831019Y35665D01*
X831383Y35555D01*
X831783Y35446D01*
X832184Y35337D01*
X833057Y35046D01*
X833967Y34755D01*
X834841Y34427D01*
X835205Y34245D01*
X835569Y34063D01*
X835605D01*
X835642Y34027D01*
X835860Y33881D01*
X836188Y33663D01*
X836588Y33371D01*
X837025Y33007D01*
X837498Y32571D01*
X837971Y32061D01*
X838372Y31479D01*
X838408Y31406D01*
X838517Y31187D01*
X838699Y30860D01*
X838881Y30387D01*
X839063Y29804D01*
X839245Y29113D01*
X839354Y28348D01*
X839391Y27475D01*
Y27438D01*
Y27365D01*
Y27256D01*
Y27111D01*
X839354Y26929D01*
X839318Y26674D01*
X839245Y26164D01*
X839100Y25509D01*
X838881Y24817D01*
X838554Y24126D01*
X838153Y23398D01*
Y23361D01*
X838080Y23325D01*
X837935Y23107D01*
X837644Y22743D01*
X837280Y22342D01*
X836806Y21869D01*
X836188Y21432D01*
X835532Y20995D01*
X834732Y20595D01*
X834695D01*
X834622Y20559D01*
X834513Y20522D01*
X834331Y20449D01*
X834113Y20377D01*
X833858Y20304D01*
X833567Y20231D01*
X833239Y20158D01*
X832839Y20049D01*
X832438Y19976D01*
X831492Y19831D01*
X830436Y19721D01*
X829272Y19685D01*
X828798D01*
X828471Y19721D01*
X828070Y19758D01*
X827634Y19794D01*
X827124Y19867D01*
X826578Y19976D01*
X825377Y20231D01*
X824758Y20413D01*
X824176Y20595D01*
X823557Y20850D01*
X822974Y21141D01*
X822428Y21469D01*
X821919Y21869D01*
X821882Y21905D01*
X821810Y21978D01*
X821664Y22087D01*
X821518Y22269D01*
X821300Y22524D01*
X821082Y22815D01*
X820827Y23143D01*
X820572Y23507D01*
X820317Y23944D01*
X820062Y24417D01*
X819808Y24963D01*
X819553Y25545D01*
X819371Y26164D01*
X819152Y26856D01*
X819007Y27584D01*
X818898Y28348D01*
X823848Y28821D01*
Y28785D01*
X823884Y28712D01*
Y28567D01*
X823921Y28421D01*
X824066Y27984D01*
X824248Y27438D01*
X824467Y26819D01*
X824794Y26201D01*
X825158Y25655D01*
X825632Y25145D01*
X825704Y25109D01*
X825886Y24963D01*
X826178Y24781D01*
X826614Y24563D01*
X827160Y24344D01*
X827779Y24162D01*
X828507Y24017D01*
X829344Y23980D01*
X829745D01*
X830182Y24053D01*
X830728Y24126D01*
X831310Y24235D01*
X831929Y24417D01*
X832511Y24672D01*
X833021Y24999D01*
X833094Y25036D01*
X833239Y25181D01*
X833421Y25400D01*
X833676Y25691D01*
X833894Y26055D01*
X834113Y26492D01*
X834258Y26929D01*
X834295Y27438D01*
Y27475D01*
Y27584D01*
X834258Y27766D01*
X834222Y27984D01*
X834149Y28203D01*
X834076Y28457D01*
X833931Y28712D01*
X833749Y28967D01*
X833712Y29003D01*
X833640Y29076D01*
X833530Y29185D01*
X833348Y29331D01*
X833094Y29513D01*
X832766Y29695D01*
X832402Y29877D01*
X831929Y30059D01*
X831892D01*
X831747Y30132D01*
X831492Y30205D01*
X831310Y30277D01*
X831092Y30314D01*
X830837Y30387D01*
X830546Y30496D01*
X830218Y30569D01*
X829854Y30678D01*
X829417Y30787D01*
X828944Y30896D01*
X828434Y31042D01*
X827852Y31187D01*
X827816D01*
X827670Y31224D01*
X827452Y31297D01*
X827197Y31369D01*
X826869Y31479D01*
X826469Y31588D01*
X826068Y31733D01*
X825595Y31879D01*
X824649Y32243D01*
X823739Y32680D01*
X823266Y32898D01*
X822865Y33153D01*
X822465Y33408D01*
X822137Y33663D01*
X822101Y33699D01*
X822028Y33772D01*
X821919Y33881D01*
X821773Y34027D01*
X821591Y34245D01*
X821409Y34500D01*
X821191Y34755D01*
X821009Y35082D01*
X820572Y35847D01*
X820208Y36720D01*
X820062Y37193D01*
X819953Y37667D01*
X819880Y38213D01*
X819844Y38759D01*
Y38795D01*
Y38831D01*
Y38941D01*
Y39086D01*
X819917Y39450D01*
X819990Y39923D01*
X820099Y40469D01*
X820281Y41088D01*
X820536Y41743D01*
X820900Y42362D01*
Y42399D01*
X820936Y42435D01*
X821118Y42653D01*
X821336Y42945D01*
X821700Y43309D01*
X822137Y43709D01*
X822683Y44146D01*
X823302Y44546D01*
X824030Y44910D01*
X824066D01*
X824139Y44947D01*
X824248Y44983D01*
X824394Y45056D01*
X824612Y45129D01*
X824831Y45201D01*
X825122Y45274D01*
X825450Y45383D01*
X826178Y45529D01*
X827015Y45675D01*
X827961Y45784D01*
X829017Y45820D01*
X829454D01*
X829781Y45784D01*
D02*
G37*
G36*
X918524Y20158D02*
X913428D01*
X903200Y36757D01*
Y20158D01*
X898504D01*
Y45347D01*
X903418D01*
X913829Y28385D01*
Y45347D01*
X918524D01*
Y20158D01*
D02*
G37*
G36*
X958200D02*
X952704D01*
X947754Y38977D01*
X942730Y20158D01*
X937198D01*
X931228Y45347D01*
X936433D01*
X940219Y28021D01*
X944805Y45347D01*
X950920D01*
X955288Y27729D01*
X959147Y45347D01*
X964279D01*
X958200Y20158D01*
D02*
G37*
G36*
X1016440Y41088D02*
X1009015D01*
Y20158D01*
X1003919D01*
Y41088D01*
X996457D01*
Y45347D01*
X1016440D01*
Y41088D01*
D02*
G37*
G36*
X994928D02*
X987502D01*
Y20158D01*
X982406D01*
Y41088D01*
X974944D01*
Y45347D01*
X994928D01*
Y41088D01*
D02*
G37*
G36*
X971850Y20158D02*
X966754D01*
Y45347D01*
X971850D01*
Y20158D01*
D02*
G37*
G36*
X893627D02*
X888531D01*
Y45347D01*
X893627D01*
Y20158D01*
D02*
G37*
G36*
X883908Y41088D02*
X870331D01*
Y35519D01*
X882962D01*
Y31260D01*
X870331D01*
Y24417D01*
X884381D01*
Y20158D01*
X865235D01*
Y45347D01*
X883908D01*
Y41088D01*
D02*
G37*
G36*
X861922D02*
X854497D01*
Y20158D01*
X849401D01*
Y41088D01*
X841939D01*
Y45347D01*
X861922D01*
Y41088D01*
D02*
G37*
G36*
X1118948Y145011D02*
Y90551D01*
X818898D01*
Y145011D01*
X1118948D01*
D02*
G37*
%LPC*%
G36*
X179291Y915426D02*
X173868D01*
X167716Y896789D01*
X161310Y915426D01*
X155813D01*
X164840Y890237D01*
X170337D01*
X179291Y915426D01*
D02*
G37*
G36*
X153629Y915098D02*
X140853D01*
X138378Y901958D01*
X142273Y901412D01*
X142600Y901739D01*
X142928Y902031D01*
X143255Y902285D01*
X143583Y902504D01*
X144202Y902831D01*
X144784Y903050D01*
X145294Y903159D01*
X145658Y903232D01*
X145803Y903268D01*
X146022D01*
X146604Y903232D01*
X147150Y903086D01*
X147623Y902904D01*
X148024Y902686D01*
X148315Y902431D01*
X148570Y902249D01*
X148715Y902103D01*
X148752Y902067D01*
X149116Y901594D01*
X149370Y901048D01*
X149553Y900465D01*
X149662Y899883D01*
X149771Y899373D01*
X149807Y898973D01*
Y898791D01*
Y898682D01*
Y898609D01*
Y898573D01*
X149771Y897699D01*
X149662Y896935D01*
X149480Y896316D01*
X149298Y895806D01*
X149079Y895369D01*
X148934Y895078D01*
X148788Y894933D01*
X148752Y894860D01*
X148351Y894459D01*
X147915Y894132D01*
X147478Y893913D01*
X147077Y893768D01*
X146713Y893695D01*
X146422Y893659D01*
X146240Y893622D01*
X146167D01*
X145694Y893659D01*
X145221Y893768D01*
X144821Y893913D01*
X144493Y894095D01*
X144202Y894277D01*
X143983Y894423D01*
X143838Y894532D01*
X143801Y894569D01*
X143474Y894969D01*
X143183Y895369D01*
X142964Y895806D01*
X142819Y896207D01*
X142709Y896571D01*
X142637Y896898D01*
X142600Y897080D01*
Y897153D01*
X137795Y896643D01*
X137905Y896061D01*
X138014Y895515D01*
X138378Y894532D01*
X138778Y893659D01*
X138996Y893295D01*
X139251Y892931D01*
X139470Y892639D01*
X139652Y892385D01*
X139870Y892166D01*
X140016Y891948D01*
X140161Y891802D01*
X140270Y891693D01*
X140343Y891657D01*
X140380Y891620D01*
X140816Y891293D01*
X141253Y891001D01*
X141726Y890747D01*
X142200Y890565D01*
X143183Y890201D01*
X144056Y889982D01*
X144493Y889909D01*
X144857Y889873D01*
X145221Y889837D01*
X145512Y889800D01*
X145767Y889764D01*
X146095D01*
X146895Y889800D01*
X147660Y889909D01*
X148351Y890055D01*
X149006Y890273D01*
X149625Y890528D01*
X150171Y890819D01*
X150681Y891111D01*
X151154Y891438D01*
X151554Y891729D01*
X151918Y892021D01*
X152246Y892312D01*
X152501Y892567D01*
X152683Y892785D01*
X152828Y892931D01*
X152901Y893040D01*
X152938Y893076D01*
X153265Y893549D01*
X153556Y894023D01*
X153775Y894496D01*
X153993Y895005D01*
X154321Y895952D01*
X154539Y896825D01*
X154612Y897189D01*
X154649Y897553D01*
X154721Y897881D01*
Y898172D01*
X154758Y898391D01*
Y898682D01*
X154721Y899373D01*
X154649Y900029D01*
X154539Y900647D01*
X154394Y901230D01*
X154248Y901739D01*
X154030Y902249D01*
X153848Y902722D01*
X153629Y903123D01*
X153411Y903487D01*
X153229Y903814D01*
X153011Y904105D01*
X152865Y904324D01*
X152719Y904506D01*
X152610Y904651D01*
X152537Y904724D01*
X152501Y904761D01*
X152064Y905161D01*
X151627Y905525D01*
X151154Y905853D01*
X150681Y906144D01*
X150244Y906362D01*
X149771Y906544D01*
X148934Y906835D01*
X148533Y906945D01*
X148169Y907017D01*
X147842Y907054D01*
X147587Y907090D01*
X147369Y907127D01*
X147041D01*
X146422Y907090D01*
X145803Y906981D01*
X145257Y906872D01*
X144748Y906726D01*
X144347Y906544D01*
X144020Y906435D01*
X143801Y906326D01*
X143765Y906289D01*
X143728D01*
X144493Y910585D01*
X153629D01*
Y915098D01*
D02*
G37*
G36*
X179546Y809127D02*
X174123D01*
X167971Y790490D01*
X161565Y809127D01*
X156068D01*
X165095Y783938D01*
X170592D01*
X179546Y809127D01*
D02*
G37*
G36*
X189301Y809272D02*
X188974D01*
X188209Y809236D01*
X187518Y809163D01*
X186863Y809017D01*
X186316Y808872D01*
X185880Y808726D01*
X185516Y808581D01*
X185297Y808508D01*
X185261Y808471D01*
X185225D01*
X184642Y808144D01*
X184096Y807780D01*
X183659Y807416D01*
X183295Y807088D01*
X183004Y806761D01*
X182786Y806506D01*
X182640Y806360D01*
X182604Y806287D01*
X182276Y805741D01*
X181985Y805159D01*
X181767Y804540D01*
X181548Y803958D01*
X181403Y803412D01*
X181293Y803011D01*
X181257Y802829D01*
Y802720D01*
X181220Y802647D01*
Y802611D01*
X185661Y801883D01*
X185770Y802465D01*
X185916Y802975D01*
X186062Y803412D01*
X186244Y803739D01*
X186426Y804031D01*
X186571Y804249D01*
X186680Y804358D01*
X186717Y804395D01*
X187044Y804686D01*
X187409Y804904D01*
X187773Y805050D01*
X188100Y805159D01*
X188391Y805232D01*
X188610Y805268D01*
X188828D01*
X189265Y805232D01*
X189702Y805159D01*
X190029Y805013D01*
X190321Y804904D01*
X190575Y804759D01*
X190721Y804613D01*
X190830Y804540D01*
X190867Y804504D01*
X191121Y804213D01*
X191303Y803849D01*
X191449Y803521D01*
X191522Y803193D01*
X191595Y802902D01*
X191631Y802684D01*
Y802538D01*
Y802465D01*
X191595Y801919D01*
X191485Y801446D01*
X191303Y801046D01*
X191121Y800718D01*
X190903Y800427D01*
X190757Y800245D01*
X190612Y800099D01*
X190575Y800063D01*
X190138Y799772D01*
X189665Y799553D01*
X189156Y799408D01*
X188683Y799299D01*
X188246Y799262D01*
X187882Y799226D01*
X187554D01*
X187044Y795331D01*
X187518Y795440D01*
X187918Y795549D01*
X188319Y795622D01*
X188646Y795659D01*
X188901Y795695D01*
X189265D01*
X189774Y795659D01*
X190211Y795513D01*
X190612Y795367D01*
X190976Y795149D01*
X191231Y794967D01*
X191449Y794785D01*
X191595Y794639D01*
X191631Y794603D01*
X191958Y794166D01*
X192213Y793693D01*
X192395Y793220D01*
X192541Y792747D01*
X192614Y792310D01*
X192650Y791982D01*
Y791764D01*
Y791727D01*
Y791691D01*
X192614Y790999D01*
X192505Y790381D01*
X192322Y789835D01*
X192141Y789398D01*
X191922Y789070D01*
X191776Y788815D01*
X191631Y788633D01*
X191595Y788597D01*
X191194Y788233D01*
X190757Y787942D01*
X190357Y787760D01*
X189957Y787614D01*
X189593Y787541D01*
X189338Y787505D01*
X189156Y787469D01*
X189083D01*
X188573Y787505D01*
X188137Y787614D01*
X187736Y787760D01*
X187372Y787942D01*
X187117Y788087D01*
X186899Y788233D01*
X186753Y788342D01*
X186717Y788379D01*
X186389Y788779D01*
X186098Y789216D01*
X185916Y789689D01*
X185734Y790126D01*
X185625Y790526D01*
X185552Y790854D01*
X185516Y791072D01*
Y791109D01*
Y791145D01*
X180857Y790563D01*
X180929Y789980D01*
X181075Y789434D01*
X181403Y788415D01*
X181803Y787541D01*
X182058Y787177D01*
X182276Y786813D01*
X182494Y786486D01*
X182713Y786231D01*
X182895Y785976D01*
X183077Y785794D01*
X183222Y785649D01*
X183332Y785539D01*
X183405Y785467D01*
X183441Y785430D01*
X183878Y785103D01*
X184351Y784775D01*
X184788Y784520D01*
X185297Y784302D01*
X186244Y783938D01*
X187117Y783719D01*
X187554Y783647D01*
X187918Y783574D01*
X188246Y783537D01*
X188537Y783501D01*
X188792Y783465D01*
X189119D01*
X189774Y783501D01*
X190430Y783574D01*
X191012Y783683D01*
X191595Y783829D01*
X192104Y784011D01*
X192614Y784193D01*
X193087Y784411D01*
X193487Y784629D01*
X193851Y784848D01*
X194215Y785066D01*
X194470Y785248D01*
X194725Y785430D01*
X194907Y785576D01*
X195053Y785685D01*
X195125Y785758D01*
X195162Y785794D01*
X195599Y786231D01*
X195963Y786704D01*
X196290Y787177D01*
X196581Y787651D01*
X196800Y788160D01*
X197018Y788633D01*
X197309Y789507D01*
X197382Y789907D01*
X197455Y790308D01*
X197528Y790635D01*
X197564Y790927D01*
X197601Y791145D01*
Y791473D01*
X197528Y792310D01*
X197382Y793038D01*
X197200Y793729D01*
X196945Y794275D01*
X196690Y794749D01*
X196508Y795076D01*
X196363Y795295D01*
X196290Y795367D01*
X195780Y795913D01*
X195198Y796387D01*
X194616Y796751D01*
X194070Y797042D01*
X193596Y797260D01*
X193196Y797369D01*
X193050Y797442D01*
X192941D01*
X192869Y797479D01*
X192832D01*
X193487Y797879D01*
X194033Y798279D01*
X194506Y798716D01*
X194943Y799153D01*
X195307Y799590D01*
X195599Y800027D01*
X195817Y800463D01*
X196035Y800864D01*
X196181Y801264D01*
X196290Y801628D01*
X196363Y801956D01*
X196399Y802247D01*
X196436Y802465D01*
X196472Y802647D01*
Y802757D01*
Y802793D01*
X196436Y803230D01*
X196399Y803630D01*
X196181Y804431D01*
X195926Y805159D01*
X195599Y805778D01*
X195271Y806287D01*
X194980Y806651D01*
X194870Y806797D01*
X194761Y806906D01*
X194725Y806943D01*
X194689Y806979D01*
X194288Y807379D01*
X193815Y807743D01*
X193378Y808035D01*
X192905Y808289D01*
X192395Y808544D01*
X191922Y808726D01*
X191012Y808981D01*
X190612Y809090D01*
X190211Y809163D01*
X189884Y809199D01*
X189556Y809236D01*
X189301Y809272D01*
D02*
G37*
G36*
X146240D02*
X145912D01*
X145148Y809236D01*
X144457Y809163D01*
X143801Y809017D01*
X143255Y808872D01*
X142819Y808726D01*
X142454Y808581D01*
X142236Y808508D01*
X142200Y808471D01*
X142163D01*
X141581Y808144D01*
X141035Y807780D01*
X140598Y807416D01*
X140234Y807088D01*
X139943Y806761D01*
X139725Y806506D01*
X139579Y806360D01*
X139542Y806287D01*
X139215Y805741D01*
X138924Y805159D01*
X138705Y804540D01*
X138487Y803958D01*
X138341Y803412D01*
X138232Y803011D01*
X138196Y802829D01*
Y802720D01*
X138159Y802647D01*
Y802611D01*
X142600Y801883D01*
X142709Y802465D01*
X142855Y802975D01*
X143000Y803412D01*
X143183Y803739D01*
X143364Y804031D01*
X143510Y804249D01*
X143619Y804358D01*
X143656Y804395D01*
X143983Y804686D01*
X144347Y804904D01*
X144711Y805050D01*
X145039Y805159D01*
X145330Y805232D01*
X145548Y805268D01*
X145767D01*
X146204Y805232D01*
X146641Y805159D01*
X146968Y805013D01*
X147259Y804904D01*
X147514Y804759D01*
X147660Y804613D01*
X147769Y804540D01*
X147805Y804504D01*
X148060Y804213D01*
X148242Y803849D01*
X148388Y803521D01*
X148460Y803193D01*
X148533Y802902D01*
X148570Y802684D01*
Y802538D01*
Y802465D01*
X148533Y801919D01*
X148424Y801446D01*
X148242Y801046D01*
X148060Y800718D01*
X147842Y800427D01*
X147696Y800245D01*
X147550Y800099D01*
X147514Y800063D01*
X147077Y799772D01*
X146604Y799553D01*
X146095Y799408D01*
X145621Y799299D01*
X145185Y799262D01*
X144821Y799226D01*
X144493D01*
X143983Y795331D01*
X144457Y795440D01*
X144857Y795549D01*
X145257Y795622D01*
X145585Y795659D01*
X145840Y795695D01*
X146204D01*
X146713Y795659D01*
X147150Y795513D01*
X147550Y795367D01*
X147915Y795149D01*
X148169Y794967D01*
X148388Y794785D01*
X148533Y794639D01*
X148570Y794603D01*
X148897Y794166D01*
X149152Y793693D01*
X149334Y793220D01*
X149480Y792747D01*
X149553Y792310D01*
X149589Y791982D01*
Y791764D01*
Y791727D01*
Y791691D01*
X149553Y790999D01*
X149443Y790381D01*
X149261Y789835D01*
X149079Y789398D01*
X148861Y789070D01*
X148715Y788815D01*
X148570Y788633D01*
X148533Y788597D01*
X148133Y788233D01*
X147696Y787942D01*
X147296Y787760D01*
X146895Y787614D01*
X146531Y787541D01*
X146276Y787505D01*
X146095Y787469D01*
X146022D01*
X145512Y787505D01*
X145075Y787614D01*
X144675Y787760D01*
X144311Y787942D01*
X144056Y788087D01*
X143838Y788233D01*
X143692Y788342D01*
X143656Y788379D01*
X143328Y788779D01*
X143037Y789216D01*
X142855Y789689D01*
X142673Y790126D01*
X142564Y790526D01*
X142491Y790854D01*
X142454Y791072D01*
Y791109D01*
Y791145D01*
X137795Y790563D01*
X137868Y789980D01*
X138014Y789434D01*
X138341Y788415D01*
X138742Y787541D01*
X138996Y787177D01*
X139215Y786813D01*
X139433Y786486D01*
X139652Y786231D01*
X139834Y785976D01*
X140016Y785794D01*
X140161Y785649D01*
X140270Y785539D01*
X140343Y785467D01*
X140380Y785430D01*
X140816Y785103D01*
X141290Y784775D01*
X141726Y784520D01*
X142236Y784302D01*
X143183Y783938D01*
X144056Y783719D01*
X144493Y783647D01*
X144857Y783574D01*
X145185Y783537D01*
X145476Y783501D01*
X145731Y783465D01*
X146058D01*
X146713Y783501D01*
X147369Y783574D01*
X147951Y783683D01*
X148533Y783829D01*
X149043Y784011D01*
X149553Y784193D01*
X150026Y784411D01*
X150426Y784629D01*
X150790Y784848D01*
X151154Y785066D01*
X151409Y785248D01*
X151664Y785430D01*
X151846Y785576D01*
X151991Y785685D01*
X152064Y785758D01*
X152101Y785794D01*
X152537Y786231D01*
X152901Y786704D01*
X153229Y787177D01*
X153520Y787651D01*
X153738Y788160D01*
X153957Y788633D01*
X154248Y789507D01*
X154321Y789907D01*
X154394Y790308D01*
X154466Y790635D01*
X154503Y790927D01*
X154539Y791145D01*
Y791473D01*
X154466Y792310D01*
X154321Y793038D01*
X154139Y793729D01*
X153884Y794275D01*
X153629Y794749D01*
X153447Y795076D01*
X153302Y795295D01*
X153229Y795367D01*
X152719Y795913D01*
X152137Y796387D01*
X151554Y796751D01*
X151008Y797042D01*
X150535Y797260D01*
X150135Y797369D01*
X149989Y797442D01*
X149880D01*
X149807Y797479D01*
X149771D01*
X150426Y797879D01*
X150972Y798279D01*
X151445Y798716D01*
X151882Y799153D01*
X152246Y799590D01*
X152537Y800027D01*
X152756Y800463D01*
X152974Y800864D01*
X153120Y801264D01*
X153229Y801628D01*
X153302Y801956D01*
X153338Y802247D01*
X153375Y802465D01*
X153411Y802647D01*
Y802757D01*
Y802793D01*
X153375Y803230D01*
X153338Y803630D01*
X153120Y804431D01*
X152865Y805159D01*
X152537Y805778D01*
X152210Y806287D01*
X151918Y806651D01*
X151809Y806797D01*
X151700Y806906D01*
X151664Y806943D01*
X151627Y806979D01*
X151227Y807379D01*
X150754Y807743D01*
X150317Y808035D01*
X149844Y808289D01*
X149334Y808544D01*
X148861Y808726D01*
X147951Y808981D01*
X147550Y809090D01*
X147150Y809163D01*
X146822Y809199D01*
X146495Y809236D01*
X146240Y809272D01*
D02*
G37*
G36*
X150717Y711175D02*
X150280D01*
X148970Y711138D01*
X147805Y710993D01*
X147296Y710883D01*
X146786Y710774D01*
X146313Y710665D01*
X145912Y710556D01*
X145548Y710410D01*
X145185Y710301D01*
X144930Y710192D01*
X144675Y710119D01*
X144493Y710010D01*
X144347Y709973D01*
X144274Y709901D01*
X144238D01*
X143110Y709245D01*
X142637Y708845D01*
X142163Y708481D01*
X141726Y708081D01*
X141326Y707680D01*
X140962Y707280D01*
X140635Y706916D01*
X140380Y706552D01*
X140125Y706224D01*
X139906Y705933D01*
X139725Y705678D01*
X139615Y705460D01*
X139506Y705314D01*
X139470Y705205D01*
X139433Y705169D01*
X139142Y704586D01*
X138887Y704004D01*
X138487Y702803D01*
X138196Y701601D01*
X138014Y700546D01*
X137941Y700036D01*
X137868Y699599D01*
X137832Y699199D01*
Y698835D01*
X137795Y698580D01*
Y698180D01*
X137868Y696833D01*
X138014Y695595D01*
X138268Y694467D01*
X138378Y693921D01*
X138523Y693448D01*
X138669Y693011D01*
X138778Y692611D01*
X138924Y692283D01*
X139033Y691992D01*
X139106Y691773D01*
X139179Y691591D01*
X139251Y691482D01*
Y691446D01*
X139870Y690354D01*
X140562Y689407D01*
X141290Y688570D01*
X142018Y687915D01*
X142345Y687624D01*
X142673Y687369D01*
X142928Y687151D01*
X143183Y687005D01*
X143364Y686859D01*
X143547Y686750D01*
X143619Y686714D01*
X143656Y686677D01*
X144238Y686386D01*
X144784Y686131D01*
X145985Y685731D01*
X147150Y685440D01*
X148206Y685258D01*
X148715Y685185D01*
X149152Y685112D01*
X149553Y685076D01*
X149917D01*
X150171Y685039D01*
X150572D01*
X151737Y685076D01*
X152828Y685221D01*
X153884Y685403D01*
X154794Y685622D01*
X155195Y685731D01*
X155559Y685840D01*
X155886Y685949D01*
X156177Y686022D01*
X156396Y686095D01*
X156541Y686168D01*
X156650Y686204D01*
X156687D01*
X157779Y686641D01*
X158689Y687114D01*
X159490Y687587D01*
X160181Y687988D01*
X160691Y688352D01*
X160873Y688497D01*
X161055Y688643D01*
X161164Y688752D01*
X161273Y688825D01*
X161346Y688898D01*
Y699017D01*
X150390D01*
Y694758D01*
X156214D01*
Y691519D01*
X155777Y691191D01*
X155304Y690900D01*
X154831Y690645D01*
X154394Y690427D01*
X154030Y690245D01*
X153702Y690099D01*
X153520Y690026D01*
X153484Y689990D01*
X153447D01*
X152865Y689771D01*
X152282Y689626D01*
X151737Y689517D01*
X151263Y689444D01*
X150827Y689407D01*
X150535Y689371D01*
X150244D01*
X149662Y689407D01*
X149079Y689480D01*
X148570Y689589D01*
X148060Y689735D01*
X147150Y690099D01*
X146786Y690281D01*
X146422Y690499D01*
X146095Y690718D01*
X145803Y690900D01*
X145585Y691118D01*
X145367Y691264D01*
X145221Y691409D01*
X145112Y691519D01*
X145039Y691591D01*
X145002Y691628D01*
X144675Y692065D01*
X144347Y692574D01*
X144093Y693084D01*
X143874Y693630D01*
X143510Y694758D01*
X143292Y695850D01*
X143219Y696360D01*
X143146Y696869D01*
X143110Y697270D01*
X143073Y697670D01*
X143037Y697961D01*
Y698216D01*
Y698362D01*
Y698398D01*
X143073Y699163D01*
X143110Y699854D01*
X143219Y700546D01*
X143328Y701165D01*
X143474Y701711D01*
X143656Y702220D01*
X143838Y702693D01*
X144020Y703130D01*
X144165Y703494D01*
X144347Y703822D01*
X144529Y704077D01*
X144675Y704295D01*
X144784Y704477D01*
X144893Y704586D01*
X144930Y704659D01*
X144966Y704695D01*
X145367Y705059D01*
X145767Y705423D01*
X146204Y705678D01*
X146641Y705933D01*
X147077Y706151D01*
X147514Y706333D01*
X148351Y706588D01*
X148752Y706661D01*
X149116Y706734D01*
X149443Y706770D01*
X149734Y706807D01*
X149953Y706843D01*
X150280D01*
X151081Y706807D01*
X151773Y706661D01*
X152392Y706515D01*
X152938Y706297D01*
X153338Y706115D01*
X153666Y705933D01*
X153848Y705787D01*
X153921Y705751D01*
X154430Y705314D01*
X154867Y704841D01*
X155231Y704368D01*
X155486Y703895D01*
X155704Y703458D01*
X155850Y703130D01*
X155923Y702912D01*
X155959Y702875D01*
Y702839D01*
X161018Y703785D01*
X160873Y704404D01*
X160655Y705023D01*
X160436Y705569D01*
X160145Y706079D01*
X159890Y706588D01*
X159599Y707025D01*
X159308Y707425D01*
X159017Y707789D01*
X158725Y708117D01*
X158470Y708408D01*
X158252Y708663D01*
X158034Y708845D01*
X157852Y708991D01*
X157706Y709136D01*
X157633Y709173D01*
X157597Y709209D01*
X157087Y709573D01*
X156541Y709864D01*
X155959Y710119D01*
X155340Y710337D01*
X154139Y710701D01*
X152974Y710920D01*
X152428Y711029D01*
X151918Y711065D01*
X151445Y711102D01*
X151045Y711138D01*
X150717Y711175D01*
D02*
G37*
G36*
X186098Y710701D02*
X181403D01*
Y693739D01*
X170992Y710701D01*
X166078D01*
Y685513D01*
X170774D01*
Y702111D01*
X181002Y685513D01*
X186098D01*
Y710701D01*
D02*
G37*
G36*
X201532D02*
X191485D01*
Y685513D01*
X201022D01*
X202005Y685549D01*
X202915Y685585D01*
X203679Y685658D01*
X204298Y685767D01*
X204808Y685877D01*
X205208Y685949D01*
X205317Y685986D01*
X205427D01*
X205463Y686022D01*
X205499D01*
X206300Y686313D01*
X207028Y686641D01*
X207611Y686969D01*
X208120Y687296D01*
X208520Y687587D01*
X208812Y687806D01*
X208994Y687951D01*
X209066Y688024D01*
X209685Y688716D01*
X210231Y689444D01*
X210704Y690208D01*
X211069Y690900D01*
X211360Y691555D01*
X211505Y691810D01*
X211578Y692028D01*
X211651Y692247D01*
X211724Y692392D01*
X211760Y692465D01*
Y692501D01*
X212015Y693375D01*
X212233Y694285D01*
X212379Y695159D01*
X212452Y695996D01*
X212488Y696396D01*
X212524Y696760D01*
Y697051D01*
X212561Y697343D01*
Y697852D01*
X212524Y699126D01*
X212415Y700255D01*
X212379Y700801D01*
X212306Y701274D01*
X212233Y701747D01*
X212161Y702147D01*
X212051Y702511D01*
X211978Y702839D01*
X211906Y703130D01*
X211869Y703349D01*
X211797Y703531D01*
X211760Y703676D01*
X211724Y703749D01*
Y703785D01*
X211396Y704659D01*
X210996Y705460D01*
X210595Y706151D01*
X210195Y706734D01*
X209867Y707207D01*
X209576Y707571D01*
X209394Y707789D01*
X209358Y707862D01*
X209321D01*
X208702Y708445D01*
X208084Y708918D01*
X207429Y709318D01*
X206846Y709646D01*
X206337Y709901D01*
X205900Y710083D01*
X205754Y710119D01*
X205645Y710155D01*
X205572Y710192D01*
X205536D01*
X204844Y710374D01*
X204080Y710483D01*
X203279Y710592D01*
X202514Y710629D01*
X201823Y710665D01*
X201532Y710701D01*
D02*
G37*
%LPD*%
G36*
X200367Y706406D02*
X200804D01*
X201168Y706370D01*
X201495D01*
X201823Y706333D01*
X202078D01*
X202478Y706261D01*
X202769Y706224D01*
X202951Y706188D01*
X202988D01*
X203497Y706042D01*
X203934Y705860D01*
X204334Y705678D01*
X204698Y705460D01*
X204953Y705278D01*
X205172Y705132D01*
X205281Y705023D01*
X205317Y704987D01*
X205645Y704623D01*
X205936Y704222D01*
X206191Y703822D01*
X206409Y703458D01*
X206555Y703094D01*
X206664Y702803D01*
X206737Y702621D01*
X206773Y702584D01*
Y702548D01*
X206955Y701893D01*
X207101Y701201D01*
X207174Y700437D01*
X207246Y699709D01*
X207283Y699090D01*
X207319Y698799D01*
Y698544D01*
Y698362D01*
Y698216D01*
Y698107D01*
Y698071D01*
X207283Y697051D01*
X207246Y696105D01*
X207137Y695341D01*
X207065Y694685D01*
X206955Y694139D01*
X206919Y693921D01*
X206846Y693775D01*
X206810Y693630D01*
Y693521D01*
X206773Y693484D01*
Y693448D01*
X206555Y692865D01*
X206373Y692356D01*
X206118Y691955D01*
X205936Y691628D01*
X205754Y691373D01*
X205608Y691191D01*
X205499Y691082D01*
X205463Y691045D01*
X205135Y690791D01*
X204808Y690572D01*
X204480Y690390D01*
X204153Y690245D01*
X203861Y690135D01*
X203643Y690063D01*
X203497Y689990D01*
X203424D01*
X203024Y689917D01*
X202551Y689881D01*
X202041Y689808D01*
X201532D01*
X201059Y689771D01*
X196581D01*
Y706443D01*
X199894D01*
X200367Y706406D01*
D02*
G37*
%LPC*%
G36*
X244199Y144941D02*
X240655D01*
Y140861D01*
X244072D01*
X244505Y140886D01*
X245296D01*
X245449Y140912D01*
X245602D01*
X245704Y140937D01*
X245857Y140963D01*
X246086Y141039D01*
X246316Y141116D01*
X246545Y141218D01*
X246775Y141345D01*
X246979Y141524D01*
X247004Y141549D01*
X247055Y141626D01*
X247157Y141728D01*
X247259Y141906D01*
X247336Y142110D01*
X247438Y142340D01*
X247489Y142620D01*
X247514Y142926D01*
Y142952D01*
Y143054D01*
X247489Y143207D01*
X247463Y143411D01*
X247412Y143615D01*
X247310Y143819D01*
X247208Y144048D01*
X247055Y144252D01*
X247030Y144278D01*
X246979Y144329D01*
X246851Y144431D01*
X246724Y144533D01*
X246520Y144635D01*
X246290Y144737D01*
X246010Y144813D01*
X245704Y144864D01*
X245678D01*
X245576Y144890D01*
X245296D01*
X245143Y144915D01*
X244480D01*
X244199Y144941D01*
D02*
G37*
G36*
X244352Y137928D02*
X240655D01*
Y133211D01*
X244582D01*
X244964Y133236D01*
X245372D01*
X245780Y133262D01*
X246112Y133287D01*
X246265D01*
X246367Y133313D01*
X246392D01*
X246494Y133338D01*
X246647Y133389D01*
X246826Y133440D01*
X247030Y133542D01*
X247259Y133670D01*
X247463Y133823D01*
X247667Y134001D01*
X247693Y134027D01*
X247744Y134103D01*
X247820Y134231D01*
X247922Y134409D01*
X248024Y134613D01*
X248101Y134868D01*
X248152Y135174D01*
X248177Y135506D01*
Y135531D01*
Y135633D01*
X248152Y135786D01*
X248126Y135965D01*
X248075Y136194D01*
X247999Y136398D01*
X247897Y136628D01*
X247769Y136857D01*
X247744Y136883D01*
X247693Y136959D01*
X247616Y137061D01*
X247489Y137163D01*
X247336Y137316D01*
X247132Y137444D01*
X246902Y137571D01*
X246647Y137673D01*
X246622D01*
X246494Y137724D01*
X246290Y137750D01*
X246163Y137775D01*
X245984Y137801D01*
X245806Y137826D01*
X245576Y137852D01*
X245321Y137877D01*
X245015D01*
X244709Y137903D01*
X244352Y137928D01*
D02*
G37*
G36*
X338458Y143768D02*
X336061Y137214D01*
X340932D01*
X338458Y143768D01*
D02*
G37*
G36*
X531692Y144915D02*
X529371D01*
Y133236D01*
X532508D01*
X532840Y133262D01*
X533197D01*
X533553Y133313D01*
X533885Y133338D01*
X534165Y133389D01*
X534216D01*
X534318Y133440D01*
X534471Y133491D01*
X534676Y133568D01*
X534905Y133670D01*
X535135Y133797D01*
X535364Y133950D01*
X535593Y134129D01*
X535619Y134154D01*
X535696Y134231D01*
X535798Y134358D01*
X535925Y134537D01*
X536053Y134766D01*
X536231Y135047D01*
X536359Y135404D01*
X536511Y135812D01*
Y135837D01*
X536537Y135863D01*
Y135939D01*
X536562Y136041D01*
X536614Y136143D01*
X536639Y136296D01*
X536716Y136679D01*
X536766Y137138D01*
X536843Y137673D01*
X536869Y138336D01*
X536894Y139050D01*
Y139076D01*
Y139152D01*
Y139254D01*
Y139382D01*
Y139560D01*
X536869Y139764D01*
X536843Y140198D01*
X536792Y140708D01*
X536741Y141243D01*
X536639Y141728D01*
X536511Y142187D01*
Y142212D01*
X536486Y142238D01*
X536435Y142365D01*
X536359Y142569D01*
X536256Y142824D01*
X536104Y143079D01*
X535925Y143360D01*
X535721Y143640D01*
X535491Y143895D01*
X535466Y143921D01*
X535389Y143997D01*
X535236Y144099D01*
X535058Y144227D01*
X534803Y144380D01*
X534523Y144507D01*
X534216Y144635D01*
X533860Y144737D01*
X533834D01*
X533707Y144762D01*
X533503Y144788D01*
X533222Y144839D01*
X533043D01*
X532814Y144864D01*
X532585D01*
X532330Y144890D01*
X532024D01*
X531692Y144915D01*
D02*
G37*
G36*
X1273943Y893847D02*
X1273918D01*
X1273816D01*
X1273663Y893821D01*
X1273484Y893796D01*
X1273255Y893745D01*
X1273051Y893668D01*
X1272821Y893566D01*
X1272592Y893439D01*
X1272566Y893413D01*
X1272490Y893362D01*
X1272388Y893286D01*
X1272286Y893158D01*
X1272133Y893005D01*
X1272005Y892801D01*
X1271878Y892572D01*
X1271776Y892317D01*
Y892291D01*
X1271725Y892164D01*
X1271699Y891960D01*
X1271674Y891832D01*
X1271648Y891654D01*
X1271623Y891475D01*
X1271597Y891246D01*
X1271572Y890991D01*
Y890685D01*
X1271546Y890379D01*
X1271521Y890022D01*
Y886324D01*
X1276238D01*
Y890251D01*
X1276213Y890634D01*
Y891042D01*
X1276187Y891450D01*
X1276162Y891781D01*
Y891934D01*
X1276136Y892036D01*
Y892062D01*
X1276111Y892164D01*
X1276060Y892317D01*
X1276009Y892495D01*
X1275907Y892699D01*
X1275779Y892929D01*
X1275626Y893133D01*
X1275448Y893337D01*
X1275422Y893362D01*
X1275346Y893413D01*
X1275218Y893490D01*
X1275040Y893592D01*
X1274836Y893694D01*
X1274581Y893770D01*
X1274275Y893821D01*
X1273943Y893847D01*
D02*
G37*
G36*
X1266523Y893184D02*
X1266497D01*
X1266395D01*
X1266242Y893158D01*
X1266038Y893133D01*
X1265834Y893082D01*
X1265630Y892980D01*
X1265401Y892878D01*
X1265197Y892725D01*
X1265171Y892699D01*
X1265120Y892648D01*
X1265018Y892521D01*
X1264916Y892393D01*
X1264814Y892189D01*
X1264712Y891960D01*
X1264636Y891679D01*
X1264585Y891373D01*
Y891348D01*
X1264559Y891246D01*
Y890965D01*
X1264534Y890812D01*
Y890149D01*
X1264508Y889869D01*
Y886324D01*
X1268588D01*
Y889741D01*
X1268563Y890175D01*
Y890965D01*
X1268537Y891118D01*
Y891271D01*
X1268512Y891373D01*
X1268486Y891526D01*
X1268410Y891756D01*
X1268333Y891985D01*
X1268231Y892215D01*
X1268104Y892444D01*
X1267925Y892648D01*
X1267900Y892674D01*
X1267823Y892725D01*
X1267721Y892827D01*
X1267543Y892929D01*
X1267339Y893005D01*
X1267109Y893107D01*
X1266829Y893158D01*
X1266523Y893184D01*
D02*
G37*
G36*
X1272235Y797625D02*
X1265681Y795151D01*
X1272235Y792754D01*
Y797625D01*
D02*
G37*
G36*
X1270322Y367769D02*
X1270296D01*
X1270195D01*
X1270042D01*
X1269812Y367744D01*
X1269557Y367718D01*
X1269276Y367693D01*
X1268945Y367667D01*
X1268613Y367591D01*
X1267874Y367438D01*
X1267109Y367208D01*
X1266726Y367055D01*
X1266395Y366877D01*
X1266063Y366647D01*
X1265757Y366418D01*
X1265732Y366392D01*
X1265681Y366367D01*
X1265630Y366290D01*
X1265528Y366188D01*
X1265400Y366035D01*
X1265273Y365882D01*
X1265146Y365704D01*
X1264993Y365474D01*
X1264865Y365245D01*
X1264737Y364964D01*
X1264483Y364378D01*
X1264380Y364046D01*
X1264330Y363689D01*
X1264278Y363307D01*
X1264253Y362899D01*
Y362695D01*
X1264278Y362542D01*
X1264304Y362338D01*
X1264330Y362134D01*
X1264431Y361624D01*
X1264636Y361063D01*
X1264737Y360757D01*
X1264890Y360451D01*
X1265069Y360170D01*
X1265273Y359864D01*
X1265503Y359584D01*
X1265783Y359329D01*
X1265809Y359303D01*
X1265860Y359278D01*
X1265936Y359201D01*
X1266063Y359125D01*
X1266242Y359023D01*
X1266420Y358921D01*
X1266650Y358793D01*
X1266930Y358666D01*
X1267236Y358538D01*
X1267568Y358411D01*
X1267950Y358309D01*
X1268359Y358207D01*
X1268818Y358130D01*
X1269302Y358054D01*
X1269812Y358028D01*
X1270373Y358003D01*
X1270399D01*
X1270501D01*
X1270653D01*
X1270858Y358028D01*
X1271112Y358054D01*
X1271418Y358079D01*
X1271725Y358130D01*
X1272082Y358181D01*
X1272821Y358334D01*
X1273561Y358589D01*
X1273943Y358742D01*
X1274300Y358921D01*
X1274631Y359150D01*
X1274938Y359380D01*
X1274963Y359405D01*
X1275014Y359456D01*
X1275091Y359533D01*
X1275167Y359635D01*
X1275294Y359762D01*
X1275422Y359941D01*
X1275575Y360119D01*
X1275703Y360349D01*
X1276008Y360833D01*
X1276238Y361445D01*
X1276340Y361777D01*
X1276417Y362134D01*
X1276467Y362516D01*
X1276493Y362899D01*
Y363103D01*
X1276467Y363256D01*
X1276442Y363434D01*
X1276417Y363638D01*
X1276289Y364123D01*
X1276111Y364684D01*
X1275983Y364964D01*
X1275855Y365270D01*
X1275677Y365551D01*
X1275473Y365857D01*
X1275244Y366137D01*
X1274963Y366392D01*
X1274938Y366418D01*
X1274887Y366443D01*
X1274810Y366520D01*
X1274682Y366596D01*
X1274504Y366724D01*
X1274300Y366826D01*
X1274071Y366953D01*
X1273790Y367081D01*
X1273484Y367208D01*
X1273152Y367336D01*
X1272770Y367463D01*
X1272336Y367565D01*
X1271903Y367642D01*
X1271418Y367718D01*
X1270883Y367744D01*
X1270322Y367769D01*
D02*
G37*
G36*
X1272209Y198092D02*
X1265656Y195618D01*
X1272209Y193221D01*
Y198092D01*
D02*
G37*
G36*
X1270399Y182027D02*
X1270373D01*
X1270297D01*
X1270195D01*
X1270067D01*
X1269889D01*
X1269685Y182001D01*
X1269251Y181976D01*
X1268741Y181925D01*
X1268206Y181874D01*
X1267721Y181772D01*
X1267262Y181644D01*
X1267237D01*
X1267211Y181619D01*
X1267084Y181568D01*
X1266880Y181491D01*
X1266625Y181389D01*
X1266370Y181236D01*
X1266089Y181058D01*
X1265809Y180854D01*
X1265554Y180624D01*
X1265528Y180599D01*
X1265452Y180522D01*
X1265350Y180369D01*
X1265222Y180191D01*
X1265069Y179936D01*
X1264942Y179655D01*
X1264814Y179349D01*
X1264712Y178992D01*
Y178967D01*
X1264687Y178839D01*
X1264661Y178635D01*
X1264610Y178355D01*
Y178176D01*
X1264585Y177947D01*
Y177717D01*
X1264559Y177462D01*
Y177156D01*
X1264534Y176825D01*
Y174504D01*
X1276213D01*
Y177641D01*
X1276187Y177972D01*
Y178329D01*
X1276136Y178686D01*
X1276111Y179018D01*
X1276060Y179298D01*
Y179349D01*
X1276009Y179451D01*
X1275958Y179604D01*
X1275881Y179808D01*
X1275779Y180038D01*
X1275652Y180267D01*
X1275499Y180497D01*
X1275320Y180726D01*
X1275295Y180752D01*
X1275218Y180828D01*
X1275091Y180930D01*
X1274912Y181058D01*
X1274683Y181185D01*
X1274402Y181364D01*
X1274045Y181491D01*
X1273637Y181644D01*
X1273612D01*
X1273586Y181670D01*
X1273510D01*
X1273408Y181695D01*
X1273306Y181746D01*
X1273153Y181772D01*
X1272770Y181848D01*
X1272311Y181899D01*
X1271776Y181976D01*
X1271113Y182001D01*
X1270399Y182027D01*
D02*
G37*
G36*
X71371Y200787D02*
X71371D01*
Y182344D01*
X71298Y183875D01*
X71079Y185260D01*
X70788Y186645D01*
X70423Y187884D01*
X69913Y189051D01*
X69403Y190217D01*
X68820Y191165D01*
X68309Y192112D01*
X67726Y192914D01*
X67143Y193643D01*
X66632Y194226D01*
X66122Y194737D01*
X65758Y195174D01*
X65466Y195466D01*
X65247Y195612D01*
X65174Y195685D01*
X63935Y196559D01*
X62550Y197361D01*
X61019Y198017D01*
X59488Y198601D01*
X57812Y199111D01*
X56135Y199548D01*
X54458Y199913D01*
X52854Y200131D01*
X51324Y200350D01*
X49865Y200496D01*
X48553Y200642D01*
X47387Y200715D01*
X46441Y200787D01*
X45124D01*
X42648Y200715D01*
X40389Y200569D01*
X38274Y200350D01*
X36379Y199986D01*
X34556Y199621D01*
X32953Y199257D01*
X31568Y198819D01*
X30255Y198309D01*
X29162Y197871D01*
X28214Y197434D01*
X27412Y197070D01*
X26756Y196632D01*
X26246Y196341D01*
X25881Y196122D01*
X25663Y195976D01*
X25590Y195903D01*
X24569Y194956D01*
X23622Y193935D01*
X22820Y192914D01*
X22163Y191821D01*
X21580Y190800D01*
X21143Y189707D01*
X20706Y188686D01*
X20414Y187738D01*
X20195Y186791D01*
X19977Y185989D01*
X19904Y185187D01*
X19758Y184531D01*
Y184020D01*
X19685Y183656D01*
Y183290D01*
X19758Y181979D01*
X19904Y180740D01*
X20122Y179574D01*
X20414Y178480D01*
X20778Y177387D01*
X21143Y176439D01*
X21580Y175564D01*
X22018Y174762D01*
X22455Y174033D01*
X22892Y173450D01*
X23257Y172867D01*
X23622Y172429D01*
X23913Y172065D01*
X24132Y171846D01*
X24278Y171700D01*
X24351Y171627D01*
X25225Y170826D01*
X26246Y170097D01*
X27267Y169513D01*
X28287Y169003D01*
X29308Y168493D01*
X30328Y168128D01*
X32370Y167618D01*
X33244Y167399D01*
X34119Y167254D01*
X34848Y167181D01*
X35504Y167108D01*
X36087Y167035D01*
X19685D01*
Y167035D01*
X71371D01*
Y200787D01*
D02*
G37*
G36*
X71079Y164556D02*
X71079D01*
X20633Y146477D01*
Y135469D01*
X71079Y117536D01*
X20633D01*
Y117536D01*
X71079D01*
Y164556D01*
D02*
G37*
%LPD*%
G36*
X39076Y189852D02*
X40389Y189634D01*
X41482Y189342D01*
X42430Y188978D01*
X43086Y188613D01*
X43596Y188322D01*
X43961Y188103D01*
X44033Y188030D01*
X44763Y187301D01*
X45346Y186499D01*
X45710Y185697D01*
X46002Y184968D01*
X46148Y184312D01*
X46293Y183729D01*
Y183292D01*
X46221Y182271D01*
X45929Y181323D01*
X45564Y180521D01*
X45127Y179792D01*
X44690Y179209D01*
X44325Y178845D01*
X44033Y178553D01*
X43961Y178480D01*
X43013Y177824D01*
X41846Y177314D01*
X40607Y177022D01*
X39441Y176731D01*
X38347Y176585D01*
X37472Y176512D01*
X37181D01*
X36889D01*
X36743D01*
X36671D01*
X34994Y176585D01*
X33536Y176803D01*
X32370Y177095D01*
X31422Y177387D01*
X30693Y177751D01*
X30183Y178043D01*
X29818Y178261D01*
X29745Y178334D01*
X29089Y179063D01*
X28579Y179792D01*
X28214Y180594D01*
X27995Y181250D01*
X27850Y181906D01*
X27704Y182417D01*
Y182854D01*
X27850Y183875D01*
X28141Y184822D01*
X28506Y185624D01*
X29016Y186353D01*
X29453Y186936D01*
X29891Y187447D01*
X30183Y187738D01*
X30255Y187811D01*
X31276Y188540D01*
X32442Y189051D01*
X33682Y189415D01*
X34848Y189634D01*
X35942Y189780D01*
X36743Y189925D01*
X37108D01*
X37327D01*
X37472D01*
X37545D01*
X39076Y189852D01*
D02*
G37*
G36*
X50667Y190654D02*
X52125Y190509D01*
X53438Y190363D01*
X54604Y190144D01*
X55625Y189925D01*
X56572Y189707D01*
X57374Y189488D01*
X58103Y189196D01*
X58759Y188978D01*
X59270Y188832D01*
X59707Y188613D01*
X59999Y188467D01*
X60290Y188322D01*
X60436Y188176D01*
X60582Y188103D01*
X61529Y187301D01*
X62186Y186426D01*
X62696Y185551D01*
X62987Y184750D01*
X63206Y184020D01*
X63279Y183437D01*
X63352Y183073D01*
Y182927D01*
X63279Y182125D01*
X63133Y181323D01*
X62915Y180667D01*
X62696Y180157D01*
X62404Y179719D01*
X62186Y179428D01*
X62040Y179209D01*
X61967Y179136D01*
X61384Y178626D01*
X60728Y178261D01*
X59999Y177897D01*
X59343Y177678D01*
X58686Y177532D01*
X58176Y177387D01*
X57885Y177314D01*
X57739D01*
X58759Y167982D01*
X60946Y168493D01*
X62769Y169222D01*
X64373Y170024D01*
X65758Y170826D01*
X66778Y171627D01*
X67143Y171919D01*
X67507Y172284D01*
X67726Y172502D01*
X67945Y172721D01*
X68091Y172794D01*
Y172867D01*
X68674Y173596D01*
X69184Y174325D01*
X69986Y175929D01*
X70569Y177532D01*
X70934Y178990D01*
X71225Y180303D01*
X71298Y180886D01*
Y181396D01*
X71371Y181761D01*
Y167035D01*
X36816D01*
X38202Y167108D01*
X39441Y167254D01*
X40680Y167472D01*
X41774Y167691D01*
X42867Y168055D01*
X43815Y168420D01*
X44763Y168784D01*
X45564Y169222D01*
X46293Y169659D01*
X46950Y170024D01*
X47460Y170388D01*
X47970Y170753D01*
X48335Y170971D01*
X48553Y171190D01*
X48699Y171336D01*
X48772Y171409D01*
X49574Y172211D01*
X50303Y173085D01*
X50959Y173960D01*
X51469Y174835D01*
X51907Y175710D01*
X52271Y176585D01*
X52854Y178189D01*
X53073Y178917D01*
X53219Y179647D01*
X53292Y180230D01*
X53365Y180740D01*
X53438Y181177D01*
Y181761D01*
X53365Y182781D01*
X53219Y183729D01*
X53073Y184604D01*
X52782Y185478D01*
X52053Y187009D01*
X51324Y188322D01*
X50522Y189342D01*
X50157Y189780D01*
X49793Y190144D01*
X49501Y190436D01*
X49355Y190654D01*
X49209Y190727D01*
X49136Y190800D01*
X50667Y190654D01*
D02*
G37*
G36*
X71079Y128398D02*
X33755Y140718D01*
X71079Y153548D01*
Y128398D01*
D02*
G37*
%LPC*%
G36*
X1270399Y1036894D02*
X1270373D01*
X1270296D01*
X1270195D01*
X1270067D01*
X1269889D01*
X1269685Y1036868D01*
X1269251Y1036843D01*
X1268741Y1036792D01*
X1268206Y1036741D01*
X1267721Y1036639D01*
X1267262Y1036511D01*
X1267236D01*
X1267211Y1036486D01*
X1267083Y1036435D01*
X1266880Y1036358D01*
X1266624Y1036256D01*
X1266370Y1036103D01*
X1266089Y1035925D01*
X1265809Y1035721D01*
X1265553Y1035491D01*
X1265528Y1035466D01*
X1265451Y1035389D01*
X1265350Y1035236D01*
X1265222Y1035058D01*
X1265069Y1034803D01*
X1264941Y1034522D01*
X1264814Y1034216D01*
X1264712Y1033859D01*
Y1033834D01*
X1264687Y1033706D01*
X1264661Y1033502D01*
X1264610Y1033222D01*
Y1033043D01*
X1264584Y1032814D01*
Y1032584D01*
X1264559Y1032329D01*
Y1032023D01*
X1264534Y1031692D01*
Y1029371D01*
X1276213D01*
Y1032508D01*
X1276187Y1032839D01*
Y1033196D01*
X1276136Y1033553D01*
X1276111Y1033885D01*
X1276060Y1034165D01*
Y1034216D01*
X1276008Y1034318D01*
X1275957Y1034471D01*
X1275881Y1034675D01*
X1275779Y1034905D01*
X1275651Y1035134D01*
X1275498Y1035364D01*
X1275320Y1035593D01*
X1275294Y1035619D01*
X1275218Y1035695D01*
X1275091Y1035797D01*
X1274912Y1035925D01*
X1274682Y1036052D01*
X1274402Y1036231D01*
X1274045Y1036358D01*
X1273637Y1036511D01*
X1273611D01*
X1273586Y1036537D01*
X1273509D01*
X1273408Y1036562D01*
X1273305Y1036613D01*
X1273152Y1036639D01*
X1272770Y1036715D01*
X1272311Y1036766D01*
X1271775Y1036843D01*
X1271112Y1036868D01*
X1270399Y1036894D01*
D02*
G37*
G36*
Y1245555D02*
X1270373D01*
X1270296D01*
X1270195D01*
X1270067D01*
X1269889D01*
X1269685Y1245530D01*
X1269251Y1245504D01*
X1268741Y1245453D01*
X1268206Y1245402D01*
X1267721Y1245300D01*
X1267262Y1245173D01*
X1267236D01*
X1267211Y1245147D01*
X1267083Y1245096D01*
X1266880Y1245020D01*
X1266624Y1244918D01*
X1266370Y1244765D01*
X1266089Y1244586D01*
X1265809Y1244382D01*
X1265553Y1244153D01*
X1265528Y1244127D01*
X1265451Y1244051D01*
X1265350Y1243898D01*
X1265222Y1243719D01*
X1265069Y1243464D01*
X1264941Y1243184D01*
X1264814Y1242878D01*
X1264712Y1242521D01*
Y1242495D01*
X1264687Y1242368D01*
X1264661Y1242164D01*
X1264610Y1241883D01*
Y1241705D01*
X1264584Y1241475D01*
Y1241246D01*
X1264559Y1240991D01*
Y1240685D01*
X1264534Y1240353D01*
Y1238033D01*
X1276213D01*
Y1241169D01*
X1276187Y1241501D01*
Y1241858D01*
X1276136Y1242215D01*
X1276111Y1242546D01*
X1276060Y1242827D01*
Y1242878D01*
X1276008Y1242980D01*
X1275957Y1243133D01*
X1275881Y1243337D01*
X1275779Y1243566D01*
X1275651Y1243796D01*
X1275498Y1244025D01*
X1275320Y1244255D01*
X1275294Y1244280D01*
X1275218Y1244357D01*
X1275091Y1244459D01*
X1274912Y1244586D01*
X1274682Y1244714D01*
X1274402Y1244892D01*
X1274045Y1245020D01*
X1273637Y1245173D01*
X1273611D01*
X1273586Y1245198D01*
X1273509D01*
X1273408Y1245224D01*
X1273305Y1245275D01*
X1273152Y1245300D01*
X1272770Y1245377D01*
X1272311Y1245428D01*
X1271775Y1245504D01*
X1271112Y1245530D01*
X1270399Y1245555D01*
D02*
G37*
G36*
X887273Y72927D02*
X884876Y66374D01*
X889747D01*
X887273Y72927D01*
D02*
G37*
G36*
X830485Y74049D02*
X826405D01*
Y69561D01*
X829873D01*
X830383Y69587D01*
X830918Y69612D01*
X831454Y69638D01*
X831683Y69663D01*
X831887Y69689D01*
X832091Y69740D01*
X832219Y69765D01*
X832244D01*
X832321Y69816D01*
X832448Y69867D01*
X832576Y69944D01*
X832907Y70173D01*
X833060Y70326D01*
X833213Y70505D01*
X833239Y70530D01*
X833264Y70607D01*
X833341Y70709D01*
X833417Y70862D01*
X833468Y71066D01*
X833545Y71295D01*
X833570Y71550D01*
X833596Y71831D01*
Y71882D01*
Y71984D01*
X833570Y72137D01*
X833545Y72341D01*
X833468Y72570D01*
X833392Y72800D01*
X833264Y73055D01*
X833111Y73259D01*
X833086Y73284D01*
X833035Y73361D01*
X832907Y73437D01*
X832754Y73565D01*
X832576Y73692D01*
X832346Y73794D01*
X832066Y73896D01*
X831760Y73973D01*
X831734D01*
X831658Y73998D01*
X831505D01*
X831275Y74024D01*
X830714D01*
X830485Y74049D01*
D02*
G37*
G36*
X1071480Y127145D02*
X1062207D01*
D01*
X1071480D01*
D02*
G37*
G36*
X1017107D02*
X999417D01*
X1012302D01*
X1011647Y127090D01*
X1011101Y127036D01*
X1010555Y126872D01*
X1010118Y126708D01*
X1009736Y126544D01*
X1009409Y126435D01*
X1009245Y126326D01*
X1009190Y126271D01*
X1008644Y125889D01*
X1008153Y125343D01*
X1007607Y124742D01*
X1007170Y124142D01*
X1006733Y123541D01*
X1006406Y123050D01*
X1006187Y122722D01*
X1006133Y122668D01*
Y126544D01*
X999417D01*
D01*
Y99135D01*
X1006679D01*
Y107543D01*
Y108799D01*
Y109946D01*
X1006733Y110983D01*
X1006788Y111911D01*
Y112785D01*
X1006842Y113495D01*
X1006897Y114205D01*
X1006952Y114751D01*
X1007006Y115242D01*
X1007061Y115679D01*
X1007115Y116006D01*
Y116279D01*
X1007170Y116443D01*
X1007225Y116607D01*
Y116716D01*
X1007443Y117481D01*
X1007716Y118136D01*
X1007989Y118682D01*
X1008262Y119064D01*
X1008480Y119392D01*
X1008699Y119610D01*
X1008808Y119719D01*
X1008863Y119774D01*
X1009299Y120047D01*
X1009736Y120265D01*
X1010173Y120429D01*
X1010555Y120538D01*
X1010883Y120593D01*
X1011210Y120647D01*
X1011429D01*
X1012029Y120593D01*
X1012630Y120484D01*
X1013176Y120265D01*
X1013722Y120047D01*
X1014159Y119828D01*
X1014486Y119610D01*
X1014759Y119501D01*
X1014814Y119446D01*
X1017107Y125725D01*
X1016234Y126217D01*
X1015415Y126544D01*
X1014596Y126817D01*
X1013831Y126981D01*
X1013231Y127090D01*
X1012739Y127145D01*
X1017107D01*
D02*
G37*
G36*
X1111074D02*
X1093383D01*
Y99135D01*
X1100645D01*
Y107543D01*
Y108799D01*
Y109946D01*
X1100700Y110983D01*
X1100754Y111911D01*
Y112785D01*
X1100809Y113495D01*
X1100864Y114205D01*
X1100918Y114751D01*
X1100973Y115242D01*
X1101027Y115679D01*
X1101082Y116006D01*
Y116279D01*
X1101137Y116443D01*
X1101191Y116607D01*
Y116716D01*
X1101410Y117481D01*
X1101683Y118136D01*
X1101956Y118682D01*
X1102229Y119064D01*
X1102447Y119392D01*
X1102665Y119610D01*
X1102775Y119719D01*
X1102829Y119774D01*
X1103266Y120047D01*
X1103703Y120265D01*
X1104140Y120429D01*
X1104522Y120538D01*
X1104849Y120593D01*
X1105177Y120647D01*
X1105395D01*
X1105996Y120593D01*
X1106597Y120484D01*
X1107143Y120265D01*
X1107689Y120047D01*
X1108125Y119828D01*
X1108453Y119610D01*
X1108726Y119501D01*
X1108781Y119446D01*
X1111074Y125725D01*
X1110200Y126217D01*
X1109381Y126544D01*
X1108562Y126817D01*
X1107798Y126981D01*
X1107197Y127090D01*
X1106706Y127145D01*
X1111074D01*
D02*
G37*
G36*
X1087760D02*
Y112239D01*
X1087650Y113604D01*
X1087487Y114914D01*
X1087268Y116116D01*
X1086995Y117262D01*
X1086722Y118245D01*
X1086395Y119173D01*
X1086067Y119992D01*
X1085739Y120702D01*
X1085412Y121357D01*
X1085139Y121849D01*
X1084866Y122285D01*
X1084647Y122613D01*
X1084484Y122886D01*
X1084374Y122995D01*
X1084320Y123050D01*
X1083665Y123760D01*
X1082900Y124415D01*
X1082136Y124961D01*
X1081371Y125398D01*
X1080552Y125834D01*
X1079733Y126162D01*
X1078969Y126435D01*
X1078205Y126653D01*
X1077495Y126817D01*
X1076840Y126926D01*
X1076239Y127036D01*
X1075748Y127090D01*
X1075311Y127145D01*
X1074710D01*
X1073727Y127090D01*
X1072799Y126981D01*
X1071871Y126763D01*
X1071052Y126544D01*
X1070233Y126271D01*
X1069523Y125944D01*
X1068813Y125561D01*
X1068213Y125234D01*
X1067667Y124852D01*
X1067175Y124469D01*
X1066739Y124142D01*
X1066411Y123869D01*
X1066138Y123650D01*
X1065920Y123432D01*
X1065810Y123323D01*
X1065756Y123268D01*
X1065155Y122504D01*
X1064609Y121685D01*
X1064118Y120866D01*
X1063681Y119992D01*
X1063353Y119064D01*
X1063080Y118190D01*
X1062644Y116498D01*
X1062480Y115679D01*
X1062371Y114969D01*
X1062316Y114314D01*
X1062261Y113768D01*
X1062207Y113276D01*
Y113386D01*
Y113276D01*
Y112621D01*
X1062261Y111584D01*
X1062316Y110546D01*
X1062480Y109618D01*
X1062644Y108745D01*
X1062807Y107871D01*
X1063080Y107107D01*
X1063299Y106397D01*
X1063572Y105742D01*
X1063790Y105141D01*
X1064063Y104650D01*
X1064282Y104213D01*
X1064445Y103831D01*
X1064664Y103558D01*
X1064773Y103339D01*
X1064828Y103230D01*
X1064882Y103175D01*
X1065592Y102356D01*
X1066302Y101647D01*
X1067121Y101046D01*
X1067994Y100500D01*
X1068868Y100063D01*
X1069742Y99681D01*
X1070615Y99353D01*
X1071489Y99135D01*
X1072253Y98917D01*
X1073018Y98807D01*
X1073727Y98698D01*
X1074328Y98589D01*
X1074819D01*
X1075147Y98534D01*
X1075475D01*
D01*
X1087760D01*
X1075475D01*
X1077058Y98644D01*
X1078532Y98862D01*
X1079788Y99190D01*
X1080880Y99572D01*
X1081371Y99790D01*
X1081754Y99954D01*
X1082136Y100118D01*
X1082409Y100282D01*
X1082627Y100445D01*
X1082846Y100500D01*
X1082900Y100609D01*
X1082955D01*
X1083992Y101483D01*
X1084920Y102411D01*
X1085685Y103448D01*
X1086285Y104431D01*
X1086777Y105305D01*
X1086941Y105687D01*
X1087104Y106015D01*
X1087214Y106288D01*
X1087323Y106506D01*
X1087377Y106615D01*
Y106670D01*
X1080170Y107871D01*
X1079897Y107161D01*
X1079624Y106506D01*
X1079351Y106015D01*
X1079024Y105578D01*
X1078805Y105250D01*
X1078587Y105032D01*
X1078423Y104923D01*
X1078368Y104868D01*
X1077932Y104540D01*
X1077440Y104322D01*
X1076949Y104158D01*
X1076512Y104049D01*
X1076130Y103994D01*
X1075802Y103940D01*
X1075529D01*
X1074656Y103994D01*
X1073837Y104213D01*
X1073072Y104486D01*
X1072472Y104813D01*
X1071980Y105141D01*
X1071653Y105414D01*
X1071380Y105632D01*
X1071325Y105687D01*
X1070779Y106397D01*
X1070397Y107216D01*
X1070069Y108089D01*
X1069851Y108854D01*
X1069742Y109618D01*
X1069687Y110164D01*
X1069632Y110383D01*
Y110546D01*
Y110656D01*
Y110710D01*
X1087760D01*
Y127145D01*
D02*
G37*
G36*
X928710Y137137D02*
X928164D01*
X927181Y137082D01*
X926253Y137027D01*
X925379Y136864D01*
X924560Y136700D01*
X923796Y136481D01*
X923086Y136263D01*
X922485Y135990D01*
X921939Y135772D01*
X921393Y135499D01*
X920957Y135226D01*
X920629Y135007D01*
X920301Y134789D01*
X920083Y134625D01*
X919919Y134461D01*
X919810Y134407D01*
X919755Y134352D01*
X919264Y133806D01*
X918773Y133260D01*
X918390Y132659D01*
X918063Y132113D01*
X917517Y130912D01*
X917189Y129820D01*
X916971Y128837D01*
X916916Y128401D01*
X916862Y128073D01*
X916807Y127745D01*
Y127527D01*
Y127418D01*
Y127363D01*
X916862Y126435D01*
X917025Y125616D01*
X917189Y124797D01*
X917462Y124142D01*
X917681Y123541D01*
X917844Y123159D01*
X918008Y122886D01*
X918063Y122777D01*
X918609Y122067D01*
X919264Y121412D01*
X919919Y120866D01*
X920629Y120374D01*
X921230Y120047D01*
X921721Y119774D01*
X922049Y119610D01*
X922103Y119555D01*
X922158D01*
X921011Y118955D01*
X920028Y118354D01*
X919209Y117699D01*
X918554Y117044D01*
X918008Y116443D01*
X917626Y116006D01*
X917408Y115679D01*
X917353Y115624D01*
Y115570D01*
X916862Y114587D01*
X916479Y113604D01*
X916261Y112621D01*
X916043Y111748D01*
X915933Y111038D01*
X915879Y110437D01*
Y137137D01*
Y109891D01*
X915933Y108854D01*
X916043Y107926D01*
X916261Y106997D01*
X916534Y106178D01*
X916807Y105359D01*
X917135Y104650D01*
X917517Y103994D01*
X917899Y103394D01*
X918281Y102902D01*
X918663Y102411D01*
X918991Y102029D01*
X919264Y101701D01*
X919537Y101428D01*
X919755Y101264D01*
X919865Y101155D01*
X919919Y101101D01*
X920574Y100609D01*
X921284Y100227D01*
X921994Y99845D01*
X922704Y99572D01*
X924123Y99080D01*
X925488Y98753D01*
X926144Y98644D01*
X926690Y98589D01*
X927181Y98534D01*
X927618Y98480D01*
X928000Y98425D01*
X915879D01*
X940776D01*
D01*
X928491D01*
X929529Y98480D01*
X930457Y98589D01*
X931385Y98753D01*
X932259Y98917D01*
X933023Y99190D01*
X933733Y99463D01*
X934443Y99736D01*
X935043Y100063D01*
X935589Y100391D01*
X936026Y100664D01*
X936463Y100937D01*
X936791Y101210D01*
X937064Y101374D01*
X937227Y101537D01*
X937337Y101647D01*
X937391Y101701D01*
X937992Y102356D01*
X938483Y103012D01*
X938975Y103721D01*
X939357Y104431D01*
X939684Y105141D01*
X939957Y105851D01*
X940340Y107216D01*
X940503Y107816D01*
X940613Y108362D01*
X940667Y108908D01*
X940722Y109345D01*
X940776Y109727D01*
Y110219D01*
X940722Y111365D01*
X940503Y112403D01*
X940285Y113386D01*
X939957Y114205D01*
X939684Y114860D01*
X939411Y115351D01*
X939193Y115679D01*
X939138Y115788D01*
X938483Y116662D01*
X937719Y117426D01*
X936900Y118081D01*
X936135Y118573D01*
X935426Y119009D01*
X934880Y119337D01*
X934661Y119446D01*
X934497Y119501D01*
X934388Y119555D01*
X934334D01*
X935207Y119992D01*
X935972Y120484D01*
X936627Y120975D01*
X937173Y121521D01*
X937610Y121958D01*
X937883Y122340D01*
X938101Y122558D01*
X938156Y122668D01*
X938647Y123487D01*
X938975Y124306D01*
X939248Y125070D01*
X939411Y125780D01*
X939521Y126435D01*
X939575Y126926D01*
Y127254D01*
Y127309D01*
Y127363D01*
X939521Y128128D01*
X939466Y128892D01*
X939084Y130257D01*
X938647Y131404D01*
X938101Y132441D01*
X937500Y133260D01*
X937282Y133588D01*
X937064Y133861D01*
X936845Y134079D01*
X936681Y134243D01*
X936627Y134297D01*
X936572Y134352D01*
X935972Y134843D01*
X935371Y135280D01*
X934661Y135662D01*
X934006Y135990D01*
X932586Y136481D01*
X931221Y136809D01*
X930621Y136918D01*
X930020Y136973D01*
X929529Y137027D01*
X929037Y137082D01*
X928710Y137137D01*
D02*
G37*
G36*
X1059804Y126544D02*
X1052379D01*
X1047137Y112512D01*
X1046810Y111693D01*
X1046591Y110929D01*
X1046482Y110656D01*
X1046427Y110437D01*
X1046373Y110273D01*
Y110219D01*
X1046318Y109946D01*
X1046209Y109618D01*
X1045936Y108799D01*
X1045827Y108472D01*
X1045718Y108144D01*
X1045663Y107926D01*
X1045608Y107871D01*
X1044134Y112512D01*
X1038947Y126544D01*
X1031358D01*
X1042387Y99135D01*
X1031358D01*
X1059804D01*
D01*
X1048939D01*
X1059804Y126544D01*
D02*
G37*
G36*
X853416Y136645D02*
Y105523D01*
X834416D01*
Y136645D01*
X826772D01*
Y99135D01*
X853416D01*
Y136645D01*
D02*
G37*
G36*
X1027481Y136918D02*
X1020219D01*
Y130202D01*
X1027481D01*
Y126544D01*
X1020219D01*
Y99135D01*
X1027481D01*
Y136918D01*
D02*
G37*
G36*
X976758D02*
X961688D01*
Y99135D01*
X993302D01*
X975993D01*
X977468Y99190D01*
X978833Y99244D01*
X979979Y99353D01*
X980907Y99517D01*
X981672Y99681D01*
X982272Y99790D01*
X982436Y99845D01*
X982600D01*
X982655Y99899D01*
X982709D01*
X983910Y100336D01*
X985002Y100828D01*
X985876Y101319D01*
X986640Y101810D01*
X987241Y102247D01*
X987678Y102575D01*
X987951Y102793D01*
X988060Y102902D01*
X988988Y103940D01*
X989807Y105032D01*
X990517Y106178D01*
X991063Y107216D01*
X991500Y108199D01*
X991718Y108581D01*
X991827Y108908D01*
X991937Y109236D01*
X992046Y109454D01*
X992100Y109564D01*
Y109618D01*
X992483Y110929D01*
X992810Y112294D01*
X993029Y113604D01*
X993138Y114860D01*
X993192Y115460D01*
X993247Y116006D01*
Y116443D01*
X993302Y116880D01*
Y117644D01*
X993247Y119555D01*
X993083Y121248D01*
X993029Y122067D01*
X992919Y122777D01*
X992810Y123487D01*
X992701Y124087D01*
X992537Y124633D01*
X992428Y125125D01*
X992319Y125561D01*
X992264Y125889D01*
X992155Y126162D01*
X992100Y126380D01*
X992046Y126490D01*
Y126544D01*
X991554Y127855D01*
X990954Y129056D01*
X990353Y130093D01*
X989753Y130967D01*
X989261Y131677D01*
X988824Y132223D01*
X988551Y132550D01*
X988497Y132659D01*
X988442D01*
X987514Y133533D01*
X986586Y134243D01*
X985603Y134843D01*
X984729Y135335D01*
X983965Y135717D01*
X983310Y135990D01*
X983091Y136045D01*
X982928Y136099D01*
X982818Y136154D01*
X982764D01*
X981726Y136427D01*
X980580Y136591D01*
X979379Y136754D01*
X978232Y136809D01*
X977195Y136864D01*
X976758Y136918D01*
D02*
G37*
G36*
X870233Y137137D02*
X869687D01*
X868759Y137082D01*
X867885Y137027D01*
X866193Y136754D01*
X864773Y136318D01*
X864118Y136099D01*
X863517Y135826D01*
X862971Y135608D01*
X862535Y135335D01*
X862098Y135116D01*
X861770Y134953D01*
X861497Y134734D01*
X861333Y134625D01*
X861224Y134570D01*
X861170Y134516D01*
X860569Y133970D01*
X860023Y133424D01*
X859532Y132769D01*
X859095Y132059D01*
X858440Y130639D01*
X857894Y129274D01*
X857730Y128564D01*
X857566Y127964D01*
X857402Y127418D01*
X857348Y126926D01*
X857238Y126490D01*
Y126217D01*
X857184Y125998D01*
Y125944D01*
X864391Y125234D01*
X864500Y126326D01*
X864719Y127254D01*
X864937Y128073D01*
X865210Y128674D01*
X865428Y129165D01*
X865647Y129493D01*
X865811Y129711D01*
X865865Y129766D01*
X866411Y130202D01*
X867012Y130530D01*
X867612Y130803D01*
X868213Y130967D01*
X868704Y131076D01*
X869141Y131131D01*
X869523D01*
X870342Y131076D01*
X871052Y130912D01*
X871653Y130694D01*
X872199Y130475D01*
X872581Y130257D01*
X872909Y130039D01*
X873072Y129875D01*
X873127Y129820D01*
X873564Y129274D01*
X873891Y128674D01*
X874110Y128073D01*
X874274Y127472D01*
X874383Y126926D01*
X874437Y126435D01*
Y126162D01*
Y126107D01*
Y126053D01*
X874383Y125234D01*
X874219Y124469D01*
X873946Y123705D01*
X873673Y123050D01*
X873400Y122449D01*
X873127Y122012D01*
X872963Y121739D01*
X872909Y121630D01*
X872690Y121303D01*
X872363Y120920D01*
X871926Y120429D01*
X871489Y119992D01*
X870506Y118955D01*
X869523Y117917D01*
X868541Y116935D01*
X868104Y116498D01*
X867667Y116170D01*
X867339Y115843D01*
X867121Y115624D01*
X866957Y115460D01*
X866903Y115406D01*
X865811Y114368D01*
X864828Y113386D01*
X863900Y112457D01*
X863081Y111638D01*
X862316Y110819D01*
X861661Y110055D01*
X861060Y109400D01*
X860569Y108745D01*
X860132Y108199D01*
X859750Y107707D01*
X859422Y107325D01*
X859204Y106943D01*
X858986Y106724D01*
X858876Y106506D01*
X858767Y106397D01*
Y106342D01*
X858057Y105086D01*
X857511Y103776D01*
X857075Y102575D01*
X856747Y101483D01*
X856529Y100500D01*
X856474Y100118D01*
X856419Y99790D01*
X856365Y99517D01*
X856310Y99299D01*
Y99135D01*
X881699D01*
Y126926D01*
Y126544D01*
X881645Y127363D01*
X881535Y128182D01*
X881426Y128947D01*
X881208Y129656D01*
X880662Y130912D01*
X880116Y132004D01*
X879788Y132496D01*
X879515Y132878D01*
X879242Y133260D01*
X878969Y133533D01*
X878751Y133751D01*
X878642Y133970D01*
X878532Y134024D01*
X878478Y134079D01*
X877877Y134625D01*
X877167Y135116D01*
X876512Y135499D01*
X875748Y135826D01*
X874328Y136372D01*
X872909Y136754D01*
X872253Y136864D01*
X871653Y136973D01*
X871107Y137027D01*
X870615Y137082D01*
X870233Y137137D01*
D02*
G37*
G36*
X898407D02*
X898134D01*
X897151Y137082D01*
X896277Y136973D01*
X895404Y136809D01*
X894585Y136591D01*
X893820Y136318D01*
X893111Y135990D01*
X892401Y135717D01*
X891855Y135389D01*
X891309Y135007D01*
X890817Y134734D01*
X890435Y134407D01*
X890053Y134134D01*
X889780Y133915D01*
X889616Y133751D01*
X889507Y133642D01*
X889452Y133588D01*
X888852Y132878D01*
X888360Y132168D01*
X887869Y131404D01*
X887487Y130639D01*
X887159Y129875D01*
X886886Y129056D01*
X886504Y127582D01*
X886340Y126926D01*
X886231Y126271D01*
X886176Y125725D01*
X886122Y125234D01*
X886067Y124797D01*
Y98425D01*
X911292D01*
X897479D01*
X898625Y98480D01*
X899663Y98644D01*
X900645Y98862D01*
X901628Y99135D01*
X902502Y99517D01*
X903321Y99899D01*
X904085Y100282D01*
X904740Y100718D01*
X905341Y101155D01*
X905887Y101537D01*
X906324Y101974D01*
X906706Y102302D01*
X907034Y102575D01*
X907252Y102793D01*
X907361Y102957D01*
X907416Y103012D01*
X908126Y103940D01*
X908672Y104977D01*
X909218Y106124D01*
X909654Y107270D01*
X910037Y108526D01*
X910364Y109782D01*
X910583Y110983D01*
X910801Y112239D01*
X910965Y113386D01*
X911074Y114423D01*
X911183Y115406D01*
X911238Y116279D01*
X911292Y116989D01*
Y118027D01*
Y117972D01*
X911238Y119828D01*
X911129Y121521D01*
X910965Y123104D01*
X910692Y124579D01*
X910419Y125889D01*
X910146Y127090D01*
X909764Y128182D01*
X909436Y129165D01*
X909108Y129984D01*
X908781Y130694D01*
X908453Y131294D01*
X908180Y131786D01*
X907907Y132168D01*
X907743Y132441D01*
X907634Y132605D01*
X907580Y132659D01*
X906870Y133424D01*
X906105Y134134D01*
X905341Y134734D01*
X904577Y135226D01*
X903758Y135662D01*
X902993Y136045D01*
X902229Y136318D01*
X901464Y136591D01*
X900809Y136754D01*
X900154Y136918D01*
X899608Y137027D01*
X899117Y137082D01*
X898680D01*
X898407Y137137D01*
D02*
G37*
%LPD*%
G36*
X1105614Y127090D02*
X1105068Y127036D01*
X1104522Y126872D01*
X1104085Y126708D01*
X1103703Y126544D01*
X1103375Y126435D01*
X1103211Y126326D01*
X1103157Y126271D01*
X1102611Y125889D01*
X1102119Y125343D01*
X1101573Y124742D01*
X1101137Y124142D01*
X1100700Y123541D01*
X1100372Y123050D01*
X1100154Y122722D01*
X1100099Y122668D01*
Y126544D01*
X1093383D01*
Y127145D01*
X1106269D01*
X1105614Y127090D01*
D02*
G37*
G36*
X1075966Y121521D02*
X1076676Y121303D01*
X1077331Y121030D01*
X1077877Y120757D01*
X1078314Y120429D01*
X1078641Y120156D01*
X1078860Y119938D01*
X1078914Y119883D01*
X1079406Y119228D01*
X1079843Y118463D01*
X1080116Y117644D01*
X1080334Y116880D01*
X1080443Y116225D01*
X1080498Y115624D01*
X1080552Y115406D01*
Y115297D01*
Y115187D01*
Y115133D01*
X1069742D01*
X1069796Y116170D01*
X1069960Y117098D01*
X1070178Y117917D01*
X1070506Y118573D01*
X1070779Y119119D01*
X1071052Y119501D01*
X1071216Y119774D01*
X1071270Y119828D01*
X1071871Y120429D01*
X1072526Y120866D01*
X1073181Y121139D01*
X1073782Y121357D01*
X1074328Y121466D01*
X1074765Y121576D01*
X1075147D01*
X1075966Y121521D01*
D02*
G37*
G36*
X928928Y131349D02*
X929583Y131185D01*
X930129Y131021D01*
X930621Y130803D01*
X931003Y130530D01*
X931276Y130366D01*
X931440Y130202D01*
X931494Y130148D01*
X931931Y129656D01*
X932204Y129110D01*
X932423Y128564D01*
X932586Y128018D01*
X932696Y127582D01*
X932750Y127199D01*
Y126981D01*
Y126872D01*
X932696Y126107D01*
X932532Y125398D01*
X932368Y124852D01*
X932150Y124360D01*
X931877Y123923D01*
X931713Y123650D01*
X931549Y123487D01*
X931494Y123432D01*
X931003Y123050D01*
X930457Y122722D01*
X929911Y122504D01*
X929365Y122395D01*
X928874Y122285D01*
X928491Y122231D01*
X928164D01*
X927454Y122285D01*
X926799Y122395D01*
X926253Y122613D01*
X925761Y122831D01*
X925379Y123050D01*
X925106Y123268D01*
X924942Y123377D01*
X924888Y123432D01*
X924506Y123923D01*
X924178Y124469D01*
X923960Y125015D01*
X923850Y125561D01*
X923741Y126053D01*
X923687Y126435D01*
Y126708D01*
Y126817D01*
X923741Y127582D01*
X923850Y128237D01*
X924069Y128783D01*
X924287Y129274D01*
X924506Y129656D01*
X924724Y129929D01*
X924833Y130093D01*
X924888Y130148D01*
X925379Y130585D01*
X925925Y130858D01*
X926471Y131076D01*
X927017Y131240D01*
X927509Y131349D01*
X927891Y131404D01*
X928218D01*
X928928Y131349D01*
D02*
G37*
G36*
X929092Y116443D02*
X929856Y116225D01*
X930512Y116006D01*
X931058Y115679D01*
X931494Y115406D01*
X931822Y115133D01*
X932040Y114914D01*
X932095Y114860D01*
X932586Y114205D01*
X932969Y113495D01*
X933242Y112785D01*
X933460Y112075D01*
X933569Y111475D01*
X933624Y110983D01*
Y110656D01*
Y110601D01*
Y110546D01*
X933569Y109454D01*
X933405Y108526D01*
X933132Y107707D01*
X932859Y107052D01*
X932586Y106506D01*
X932313Y106178D01*
X932150Y105905D01*
X932095Y105851D01*
X931494Y105305D01*
X930894Y104923D01*
X930293Y104650D01*
X929693Y104486D01*
X929147Y104377D01*
X928764Y104267D01*
X928382D01*
X927563Y104322D01*
X926799Y104540D01*
X926144Y104813D01*
X925598Y105086D01*
X925161Y105414D01*
X924833Y105632D01*
X924615Y105851D01*
X924560Y105905D01*
X924069Y106615D01*
X923687Y107380D01*
X923414Y108144D01*
X923250Y108908D01*
X923141Y109618D01*
X923031Y110164D01*
Y110383D01*
Y110546D01*
Y110601D01*
Y110656D01*
X923086Y111420D01*
X923250Y112184D01*
X923414Y112840D01*
X923687Y113440D01*
X923905Y113932D01*
X924069Y114314D01*
X924233Y114532D01*
X924287Y114641D01*
X924833Y115242D01*
X925488Y115733D01*
X926144Y116061D01*
X926799Y116279D01*
X927345Y116389D01*
X927836Y116498D01*
X928273D01*
X929092Y116443D01*
D02*
G37*
G36*
X975011Y130475D02*
X975666D01*
X976212Y130421D01*
X976703D01*
X977195Y130366D01*
X977577D01*
X978177Y130257D01*
X978614Y130202D01*
X978887Y130148D01*
X978942D01*
X979706Y129929D01*
X980361Y129656D01*
X980962Y129383D01*
X981508Y129056D01*
X981890Y128783D01*
X982218Y128564D01*
X982382Y128401D01*
X982436Y128346D01*
X982928Y127800D01*
X983364Y127199D01*
X983747Y126599D01*
X984074Y126053D01*
X984293Y125507D01*
X984456Y125070D01*
X984566Y124797D01*
X984620Y124742D01*
Y124688D01*
X984893Y123705D01*
X985112Y122668D01*
X985221Y121521D01*
X985330Y120429D01*
X985385Y119501D01*
X985439Y119064D01*
Y118682D01*
Y118409D01*
Y118190D01*
Y118027D01*
Y117972D01*
X985385Y116443D01*
X985330Y115024D01*
X985166Y113877D01*
X985057Y112894D01*
X984893Y112075D01*
X984839Y111748D01*
X984729Y111529D01*
X984675Y111311D01*
Y111147D01*
X984620Y111092D01*
Y111038D01*
X984293Y110164D01*
X984020Y109400D01*
X983637Y108799D01*
X983364Y108308D01*
X983091Y107926D01*
X982873Y107653D01*
X982709Y107489D01*
X982655Y107434D01*
X982163Y107052D01*
X981672Y106724D01*
X981180Y106451D01*
X980689Y106233D01*
X980252Y106069D01*
X979925Y105960D01*
X979706Y105851D01*
X979597D01*
X978996Y105742D01*
X978287Y105687D01*
X977522Y105578D01*
X976758D01*
X976048Y105523D01*
X969332D01*
Y130530D01*
X974301D01*
X975011Y130475D01*
D02*
G37*
G36*
X881699Y105851D02*
X867285D01*
X867722Y106561D01*
X868213Y107161D01*
X868431Y107434D01*
X868595Y107653D01*
X868704Y107762D01*
X868759Y107816D01*
X868977Y108035D01*
X869196Y108308D01*
X869851Y108908D01*
X870561Y109618D01*
X871271Y110328D01*
X871980Y110983D01*
X872581Y111529D01*
X872799Y111748D01*
X872963Y111911D01*
X873072Y111966D01*
X873127Y112021D01*
X874328Y113167D01*
X875311Y114095D01*
X876130Y114969D01*
X876785Y115624D01*
X877277Y116170D01*
X877604Y116552D01*
X877823Y116825D01*
X877877Y116880D01*
X878587Y117808D01*
X879188Y118682D01*
X879679Y119501D01*
X880061Y120211D01*
X880389Y120811D01*
X880607Y121303D01*
X880716Y121576D01*
X880771Y121685D01*
X881099Y122558D01*
X881317Y123432D01*
X881481Y124251D01*
X881590Y125015D01*
X881645Y125616D01*
X881699Y126107D01*
Y105851D01*
D02*
G37*
G36*
X898571Y131021D02*
X899280Y130803D01*
X899936Y130530D01*
X900482Y130148D01*
X900918Y129766D01*
X901246Y129493D01*
X901464Y129274D01*
X901519Y129165D01*
X902065Y128346D01*
X902447Y127472D01*
X902775Y126544D01*
X902939Y125671D01*
X903048Y124852D01*
X903157Y124251D01*
Y123978D01*
Y123814D01*
Y123705D01*
Y123650D01*
X903102Y122504D01*
X902939Y121521D01*
X902666Y120702D01*
X902447Y119992D01*
X902174Y119501D01*
X901901Y119119D01*
X901737Y118846D01*
X901683Y118791D01*
X901137Y118245D01*
X900536Y117863D01*
X899936Y117535D01*
X899390Y117371D01*
X898898Y117262D01*
X898516Y117208D01*
X898298Y117153D01*
X898188D01*
X897424Y117208D01*
X896714Y117426D01*
X896114Y117699D01*
X895568Y118027D01*
X895131Y118300D01*
X894858Y118573D01*
X894639Y118791D01*
X894585Y118846D01*
X894093Y119555D01*
X893766Y120429D01*
X893493Y121303D01*
X893329Y122231D01*
X893220Y122995D01*
X893165Y123650D01*
Y123923D01*
Y124087D01*
Y124196D01*
Y124251D01*
X893220Y125507D01*
X893384Y126599D01*
X893602Y127527D01*
X893820Y128237D01*
X894039Y128783D01*
X894257Y129165D01*
X894421Y129438D01*
X894476Y129493D01*
X895022Y130039D01*
X895568Y130421D01*
X896114Y130748D01*
X896660Y130912D01*
X897096Y131021D01*
X897479Y131131D01*
X897806D01*
X898571Y131021D01*
D02*
G37*
G36*
X886122Y123268D02*
X886231Y122285D01*
X886340Y121357D01*
X886559Y120538D01*
X886832Y119719D01*
X887105Y119009D01*
X887378Y118300D01*
X887705Y117699D01*
X887978Y117153D01*
X888251Y116662D01*
X888524Y116279D01*
X888797Y115897D01*
X889016Y115679D01*
X889125Y115460D01*
X889234Y115351D01*
X889289Y115297D01*
X889889Y114696D01*
X890544Y114150D01*
X891200Y113713D01*
X891855Y113331D01*
X892510Y113003D01*
X893111Y112676D01*
X894312Y112294D01*
X895349Y112021D01*
X895786Y111966D01*
X896168Y111911D01*
X896496Y111857D01*
X896933D01*
X897697Y111911D01*
X898407Y112021D01*
X899062Y112130D01*
X899717Y112348D01*
X900918Y112840D01*
X901901Y113440D01*
X902666Y114041D01*
X902993Y114314D01*
X903266Y114532D01*
X903485Y114751D01*
X903648Y114914D01*
X903703Y114969D01*
X903758Y115024D01*
X903648Y113877D01*
X903539Y112785D01*
X903430Y111802D01*
X903266Y110929D01*
X903102Y110164D01*
X902939Y109454D01*
X902775Y108854D01*
X902611Y108308D01*
X902393Y107816D01*
X902283Y107434D01*
X902120Y107107D01*
X902010Y106888D01*
X901901Y106670D01*
X901792Y106561D01*
X901737Y106451D01*
X901137Y105796D01*
X900482Y105305D01*
X899881Y104923D01*
X899280Y104704D01*
X898734Y104540D01*
X898352Y104486D01*
X898079Y104431D01*
X897970D01*
X897369Y104486D01*
X896769Y104595D01*
X896332Y104759D01*
X895895Y104923D01*
X895568Y105086D01*
X895349Y105250D01*
X895185Y105359D01*
X895131Y105414D01*
X894749Y105851D01*
X894476Y106342D01*
X894257Y106888D01*
X894093Y107434D01*
X893930Y107871D01*
X893875Y108253D01*
X893820Y108526D01*
Y108635D01*
X886832Y107816D01*
X886995Y106943D01*
X887214Y106178D01*
X887432Y105414D01*
X887705Y104759D01*
X887978Y104104D01*
X888251Y103503D01*
X888579Y103012D01*
X888852Y102520D01*
X889179Y102138D01*
X889398Y101756D01*
X889671Y101483D01*
X889889Y101210D01*
X890053Y101046D01*
X890217Y100882D01*
X890271Y100828D01*
X890326Y100773D01*
X890872Y100336D01*
X891418Y100009D01*
X892619Y99408D01*
X893766Y99026D01*
X894912Y98698D01*
X895950Y98534D01*
X896387Y98480D01*
X896769D01*
X897042Y98425D01*
X886067D01*
Y124251D01*
X886122Y123268D01*
D02*
G37*
D10*
X457677Y748032D02*
G03*
X457677Y748032I-103347J0D01*
G01*
X924134Y282291D02*
X1085551D01*
X904449Y301976D02*
X924134Y282291D01*
X904449Y301976D02*
Y408276D01*
X1085551Y282291D02*
Y408276D01*
X904449D02*
X1085551D01*
X1007205Y779528D02*
X1108268D01*
X1007205Y874016D02*
X1108268D01*
Y779528D02*
Y874016D01*
X840551Y726378D02*
X941614D01*
X840551Y631890D02*
X941614D01*
X840551D02*
Y726378D01*
X682402Y779528D02*
X783465D01*
X682402Y874016D02*
X783465D01*
Y779528D02*
Y874016D01*
X515748Y736221D02*
X616811D01*
X515748Y641732D02*
X616811D01*
X515748D02*
Y736221D01*
D11*
X891457Y238000D02*
G03*
X891457Y238000I-4921J0D01*
G01*
D12*
X1132756Y264646D02*
Y477244D01*
Y264646D02*
X1227244D01*
Y477244D01*
X1132756D02*
X1227244D01*
X1147756Y1286299D02*
X1242244D01*
Y1073701D02*
Y1286299D01*
X1147756Y1073701D02*
X1242244D01*
X1147756D02*
Y1286299D01*
X1227244Y34646D02*
Y247244D01*
X1132756D02*
X1227244D01*
X1132756Y34646D02*
Y247244D01*
Y34646D02*
X1227244D01*
X1226299Y507756D02*
Y602244D01*
X1013701Y507756D02*
X1226299D01*
X1013701D02*
Y602244D01*
X1226299D01*
X1142756Y632756D02*
Y845354D01*
Y632756D02*
X1237244D01*
Y845354D01*
X1142756D02*
X1237244D01*
X850197Y179528D02*
Y370472D01*
X749803Y179528D02*
X850197D01*
X749803Y370472D02*
X850197D01*
X749803Y179528D02*
Y370472D01*
X169803Y1183504D02*
Y1374449D01*
X270197D01*
X169803Y1183504D02*
X270197D01*
Y1374449D01*
X128937Y1184055D02*
Y1375000D01*
X28543Y1184055D02*
X128937D01*
X28543Y1375000D02*
X128937D01*
X28543Y1184055D02*
Y1375000D01*
D13*
X326772Y906820D02*
X320212Y913380D01*
X307093D01*
X300534Y906820D01*
Y880582D01*
X307093Y874022D01*
X320212D01*
X326772Y880582D01*
X339891Y874022D02*
X353010D01*
X346450D01*
Y913380D01*
X339891Y906820D01*
X1156179Y889770D02*
Y929128D01*
X1175857D01*
X1182417Y922568D01*
Y909449D01*
X1175857Y902889D01*
X1156179D01*
X1169298D02*
X1182417Y889770D01*
X1221774Y929128D02*
X1195536D01*
Y909449D01*
X1208655Y916008D01*
X1215215D01*
X1221774Y909449D01*
Y896330D01*
X1215215Y889770D01*
X1202096D01*
X1195536Y896330D01*
X994090Y528223D02*
X966540D01*
Y541998D01*
X971131Y546589D01*
X980315D01*
X984907Y541998D01*
Y528223D01*
Y537406D02*
X994090Y546589D01*
Y569548D02*
X966540D01*
X980315Y555773D01*
Y574140D01*
X1248038Y103664D02*
X1287395D01*
Y83985D01*
X1280836Y77426D01*
X1267716D01*
X1261157Y83985D01*
Y103664D01*
Y90545D02*
X1248038Y77426D01*
X1280836Y64306D02*
X1287395Y57747D01*
Y44628D01*
X1280836Y38068D01*
X1274276D01*
X1267716Y44628D01*
Y51187D01*
Y44628D01*
X1261157Y38068D01*
X1254597D01*
X1248038Y44628D01*
Y57747D01*
X1254597Y64306D01*
X1160116Y1311030D02*
Y1350387D01*
X1179794D01*
X1186354Y1343828D01*
Y1330709D01*
X1179794Y1324149D01*
X1160116D01*
X1173235D02*
X1186354Y1311030D01*
X1225711D02*
X1199473D01*
X1225711Y1337268D01*
Y1343828D01*
X1219152Y1350387D01*
X1206033D01*
X1199473Y1343828D01*
X534131Y618104D02*
Y578746D01*
X553810D01*
X560370Y585306D01*
Y611544D01*
X553810Y618104D01*
X534131D01*
X593167Y578746D02*
Y618104D01*
X573489Y598425D01*
X599727D01*
X703423Y933064D02*
Y893707D01*
X723101D01*
X729661Y900267D01*
Y926505D01*
X723101Y933064D01*
X703423D01*
X742780Y926505D02*
X749340Y933064D01*
X762459D01*
X769018Y926505D01*
Y919945D01*
X762459Y913386D01*
X755899D01*
X762459D01*
X769018Y906826D01*
Y900267D01*
X762459Y893707D01*
X749340D01*
X742780Y900267D01*
X860903Y610230D02*
Y570872D01*
X880582D01*
X887141Y577432D01*
Y603670D01*
X880582Y610230D01*
X860903D01*
X926499Y570872D02*
X900260D01*
X926499Y597111D01*
Y603670D01*
X919939Y610230D01*
X906820D01*
X900260Y603670D01*
X1028880Y937001D02*
Y897644D01*
X1048559D01*
X1055118Y904204D01*
Y930442D01*
X1048559Y937001D01*
X1028880D01*
X1068237Y897644D02*
X1081356D01*
X1074797D01*
Y937001D01*
X1068237Y930442D01*
X72181Y1147962D02*
X65621Y1154521D01*
X52502D01*
X45942Y1147962D01*
Y1121724D01*
X52502Y1115164D01*
X65621D01*
X72181Y1121724D01*
X104978Y1115164D02*
Y1154521D01*
X85300Y1134843D01*
X111538D01*
X209976Y1146977D02*
X203416Y1153537D01*
X190297D01*
X183738Y1146977D01*
Y1120739D01*
X190297Y1114180D01*
X203416D01*
X209976Y1120739D01*
X223095Y1146977D02*
X229655Y1153537D01*
X242774D01*
X249333Y1146977D01*
Y1140418D01*
X242774Y1133858D01*
X236214D01*
X242774D01*
X249333Y1127299D01*
Y1120739D01*
X242774Y1114180D01*
X229655D01*
X223095Y1120739D01*
X788716Y430442D02*
X782157Y437002D01*
X769037D01*
X762478Y430442D01*
Y404204D01*
X769037Y397644D01*
X782157D01*
X788716Y404204D01*
X828073Y397644D02*
X801835D01*
X828073Y423882D01*
Y430442D01*
X821514Y437002D01*
X808395D01*
X801835Y430442D01*
D14*
X1273618Y402893D02*
X1246067D01*
Y416668D01*
X1250659Y421260D01*
X1259842D01*
X1264434Y416668D01*
Y402893D01*
Y412077D02*
X1273618Y421260D01*
Y430443D02*
Y439627D01*
Y435035D01*
X1246067D01*
X1250659Y430443D01*
M02*
